<svg width="245" height="67" viewBox="0 0 245 67" fill="none" xmlns="http://www.w3.org/2000/svg">
<path d="M231.389 52.7613C229.023 52.7613 226.883 52.2106 224.971 51.1092C223.091 50.0081 221.616 48.4857 220.546 46.5424C219.476 44.5667 218.942 42.3645 218.942 39.9352C218.942 37.6033 219.444 35.4655 220.449 33.5222C221.486 31.5466 222.929 29.9919 224.777 28.8583C226.624 27.6924 228.731 27.1094 231.097 27.1094C233.529 27.1094 235.636 27.6438 237.419 28.7126C239.234 29.7814 240.612 31.2713 241.552 33.1823C242.492 35.0609 242.962 37.2307 242.962 39.6924C242.962 39.9839 242.945 40.2754 242.913 40.567C242.881 40.8582 242.864 41.0203 242.864 41.0526H224.29C224.452 43.2551 225.247 44.9556 226.673 46.1538C228.099 47.3523 229.72 47.9513 231.535 47.9513C234.323 47.9513 236.462 46.6558 237.954 44.0647L242.524 46.2512C241.454 48.2269 239.963 49.8136 238.051 51.0121C236.17 52.1782 233.95 52.7613 231.389 52.7613ZM237.516 36.9718C237.451 36.1943 237.192 35.4008 236.738 34.5912C236.284 33.7813 235.571 33.1012 234.598 32.5507C233.658 31.9677 232.475 31.6762 231.049 31.6762C229.461 31.6762 228.083 32.162 226.916 33.1336C225.781 34.1052 225.004 35.3848 224.582 36.9718H237.516Z" fill="#5E5E5E"/>
<path d="M207.203 52.7613C204.447 52.7613 202.162 52.1295 200.347 50.8663C198.564 49.5708 197.3 47.9513 196.554 46.008L201.319 43.9676C201.871 45.2955 202.665 46.2995 203.702 46.9797C204.772 47.6598 205.939 48 207.203 48C208.532 48 209.618 47.7572 210.461 47.2712C211.304 46.7532 211.725 46.0891 211.725 45.2795C211.725 44.502 211.385 43.8706 210.704 43.3846C210.023 42.8665 208.905 42.4129 207.349 42.0243L204.042 41.2471C202.227 40.8258 200.655 40.0486 199.326 38.9152C198.029 37.749 197.381 36.243 197.381 34.3968C197.381 32.162 198.305 30.3968 200.153 29.1013C202 27.7733 204.269 27.1094 206.96 27.1094C209.196 27.1094 211.174 27.579 212.892 28.5183C214.642 29.4575 215.906 30.8179 216.684 32.5992L211.968 34.5912C211.514 33.5872 210.817 32.842 209.877 32.3563C208.937 31.8705 207.916 31.6276 206.814 31.6276C205.744 31.6276 204.804 31.8705 203.994 32.3563C203.183 32.8097 202.778 33.4251 202.778 34.2026C202.778 34.8827 203.054 35.4331 203.605 35.8544C204.188 36.2754 205.096 36.6316 206.328 36.9231L209.926 37.7977C212.357 38.4128 214.172 39.3521 215.372 40.6153C216.571 41.8462 217.171 43.3362 217.171 45.0851C217.171 46.51 216.733 47.8056 215.858 48.9717C215.015 50.1375 213.832 51.0608 212.308 51.7409C210.817 52.4211 209.116 52.7613 207.203 52.7613Z" fill="#5E5E5E"/>
<path d="M181.615 52.7613C179.897 52.7613 178.341 52.4211 176.947 51.7409C175.586 51.0284 174.5 50.0568 173.689 48.8259C172.911 47.5627 172.523 46.1378 172.523 44.5507C172.523 42.0243 173.463 40.0323 175.343 38.5749C177.255 37.1173 179.67 36.3888 182.588 36.3888C185.148 36.3888 187.336 36.8261 189.152 37.7003V36.6803C189.152 35.2227 188.568 34.0245 187.401 33.0852C186.267 32.1134 184.889 31.6276 183.268 31.6276C180.805 31.6276 178.827 32.6316 177.336 34.6396L173.252 31.8219C174.386 30.2997 175.797 29.1337 177.482 28.3239C179.2 27.5142 181.129 27.1094 183.268 27.1094C186.802 27.1094 189.524 28 191.437 29.7814C193.382 31.5304 194.354 34.0082 194.354 37.2147V51.9838H189.152V49.0204H188.86C188.082 50.1215 187.093 51.0284 185.894 51.7409C184.695 52.4211 183.268 52.7613 181.615 52.7613ZM182.49 48.3399C183.69 48.3399 184.792 48.0487 185.797 47.4657C186.834 46.8503 187.645 46.0567 188.228 45.0851C188.844 44.081 189.152 43.0123 189.152 41.8785C187.434 40.9392 185.602 40.4696 183.657 40.4696C181.874 40.4696 180.481 40.8582 179.476 41.6357C178.471 42.4129 177.969 43.4009 177.969 44.5991C177.969 45.7005 178.406 46.6074 179.281 47.3199C180.189 48 181.259 48.3399 182.49 48.3399Z" fill="#5E5E5E"/>
<path d="M159.174 52.7611C157.423 52.7611 155.851 52.3888 154.458 51.6436C153.096 50.8988 152.075 49.9595 151.394 48.8261H151.103V51.9839H146.046V17.1985H151.394V27.6438L151.103 30.996H151.394C152.075 29.8948 153.096 28.9717 154.458 28.2268C155.851 27.4818 157.423 27.1094 159.174 27.1094C161.249 27.1094 163.161 27.66 164.912 28.7612C166.695 29.8624 168.105 31.4009 169.142 33.3765C170.212 35.3198 170.746 37.506 170.746 39.9353C170.746 42.3643 170.212 44.5508 169.142 46.4938C168.105 48.4371 166.695 49.9758 164.912 51.1093C163.161 52.2107 161.249 52.7611 159.174 52.7611ZM158.25 47.8544C159.514 47.8544 160.681 47.5305 161.751 46.8827C162.853 46.2349 163.728 45.3117 164.377 44.1135C165.057 42.8827 165.398 41.49 165.398 39.9353C165.398 38.3806 165.057 37.004 164.377 35.8058C163.728 34.575 162.853 33.6357 161.751 32.9879C160.681 32.3401 159.514 32.0163 158.25 32.0163C156.986 32.0163 155.803 32.3401 154.701 32.9879C153.631 33.6357 152.756 34.5586 152.075 35.7571C151.427 36.9556 151.103 38.3482 151.103 39.9353C151.103 41.5224 151.427 42.915 152.075 44.1135C152.756 45.3117 153.631 46.2349 154.701 46.8827C155.803 47.5305 156.986 47.8544 158.25 47.8544Z" fill="#5E5E5E"/>
<path d="M131.288 52.7613C128.921 52.7613 126.782 52.2106 124.869 51.1092C122.989 50.0081 121.514 48.4857 120.445 46.5424C119.375 44.5667 118.84 42.3645 118.84 39.9352C118.84 37.6033 119.343 35.4655 120.347 33.5222C121.385 31.5466 122.827 29.9919 124.675 28.8583C126.522 27.6924 128.63 27.1094 130.996 27.1094C133.427 27.1094 135.534 27.6438 137.317 28.7126C139.132 29.7814 140.51 31.2713 141.45 33.1823C142.39 35.0609 142.86 37.2307 142.86 39.6924C142.86 39.9839 142.844 40.2754 142.811 40.567C142.779 40.8582 142.763 41.0203 142.763 41.0526H124.189C124.35 43.2551 125.145 44.9556 126.571 46.1538C127.997 47.3523 129.618 47.9513 131.434 47.9513C134.221 47.9513 136.361 46.6558 137.852 44.0647L142.422 46.2512C141.353 48.2269 139.862 49.8136 137.949 51.0121C136.069 52.1782 133.849 52.7613 131.288 52.7613ZM137.414 36.9718C137.349 36.1943 137.09 35.4008 136.636 34.5912C136.182 33.7813 135.469 33.1012 134.497 32.5507C133.557 31.9677 132.374 31.6762 130.947 31.6762C129.359 31.6762 127.981 32.162 126.814 33.1336C125.68 34.1052 124.902 35.3848 124.48 36.9718H137.414Z" fill="#5E5E5E"/>
<path d="M103.996 27.8867H109.053V31.4818H109.344C109.863 30.2511 110.803 29.2308 112.165 28.4211C113.526 27.579 114.92 27.158 116.346 27.158C117.513 27.158 118.469 27.3199 119.215 27.6438V33.2309C118.113 32.6802 116.881 32.4049 115.52 32.4049C113.769 32.4049 112.294 33.0852 111.095 34.4454C109.928 35.7733 109.344 37.4088 109.344 39.3521V51.9837H103.996V27.8867Z" fill="#5E5E5E"/>
<path d="M96.3625 23.8057C95.3577 23.8057 94.4987 23.4657 93.7853 22.7855C93.1046 22.0729 92.7644 21.2147 92.7644 20.2106C92.7644 19.2065 93.1046 18.3644 93.7853 17.6843C94.4987 16.9718 95.3577 16.6155 96.3625 16.6155C97.3674 16.6155 98.21 16.9718 98.891 17.6843C99.6041 18.3644 99.9607 19.2065 99.9607 20.2106C99.9607 21.2147 99.6041 22.0729 98.891 22.7855C98.21 23.4657 97.3674 23.8057 96.3625 23.8057ZM93.6881 27.8867H99.0366V51.9838H93.6881V27.8867Z" fill="#5E5E5E"/>
<path d="M69.3256 17.1985H90.4767V22.3968H74.7712V32.4049H88.9206V37.5547H74.7712V51.9839H69.3256V17.1985Z" fill="#5E5E5E"/>
<path d="M16.7567 62.46C19.431 63.5353 22.3322 64.1736 25.3786 64.2798C29.5013 64.4236 33.4218 63.5719 36.9267 61.9541C32.7237 60.3042 28.9173 57.8916 25.6688 54.8916C23.563 58.2606 20.4484 60.9213 16.7567 62.46Z" fill="#FF9100"/>
<path d="M25.6681 54.8926C18.2525 48.0399 13.7539 38.1216 14.1341 27.2431C14.1465 26.8898 14.1651 26.5368 14.1869 26.1838C12.8588 25.8406 11.4723 25.6312 10.0454 25.5814C8.003 25.5101 6.02507 25.7632 4.15774 26.2886C2.17818 29.7533 0.983587 33.7287 0.834768 37.9867C0.4507 48.976 7.10644 58.5779 16.7561 62.4609C20.4478 60.9222 23.5622 58.2645 25.6681 54.8926Z" fill="#FFC400"/>
<path d="M25.6684 54.8924C27.3925 52.1356 28.4378 48.9036 28.5595 45.4215C28.8796 36.2618 22.7168 28.3823 14.1872 26.1836C14.1654 26.5365 14.1467 26.8896 14.1344 27.2428C13.7542 38.1215 18.2528 48.0397 25.6684 54.8924Z" fill="#FF9100"/>
<path d="M27.6056 0.436279C22.7477 4.32482 18.9117 9.45218 16.5908 15.3588C15.262 18.742 14.427 22.3762 14.1832 26.1856C22.7128 28.3844 28.8757 36.2639 28.5555 45.4236C28.4338 48.9056 27.3854 52.1344 25.6644 54.8945C28.9129 57.8974 32.7194 60.3071 36.9223 61.9569C45.3583 58.0608 51.3436 49.6766 51.6904 39.76C51.9148 33.3348 49.4442 27.6086 45.953 22.775C42.2662 17.6631 27.6056 0.436279 27.6056 0.436279Z" fill="#DD2C00"/>
</svg>
