<svg width="396" height="398" viewBox="0 0 396 398" fill="none" xmlns="http://www.w3.org/2000/svg">
<path d="M37.11 202.725C37.59 202.725 37.96 202.775 38.22 202.875C38.48 202.955 38.68 203.065 38.82 203.205C38.96 203.325 39.04 203.475 39.06 203.655C39.1 203.815 39.12 203.975 39.12 204.135C39.12 204.675 39 205.035 38.76 205.215C38.52 205.375 37.98 205.485 37.14 205.545C36.7 205.585 36.06 205.615 35.22 205.635C34.38 205.655 33.38 205.675 32.22 205.695C31.06 205.695 29.78 205.705 28.38 205.725C26.98 205.725 25.5 205.725 23.94 205.725C23.2 205.725 22.45 205.635 21.69 205.455C20.93 205.275 20.24 204.935 19.62 204.435C19 203.915 18.5 203.205 18.12 202.305C17.74 201.385 17.55 200.195 17.55 198.735C17.55 197.715 17.66 196.745 17.88 195.825C18.1 194.905 18.48 194.095 19.02 193.395C19.56 192.695 20.28 192.135 21.18 191.715C22.08 191.295 23.2 191.085 24.54 191.085C25.94 191.085 27.1 191.315 28.02 191.775C28.94 192.235 29.67 192.885 30.21 193.725C30.75 194.565 31.13 195.565 31.35 196.725C31.57 197.885 31.68 199.155 31.68 200.535C31.68 200.875 31.68 201.215 31.68 201.555C31.68 201.895 31.66 202.275 31.62 202.695L37.11 202.725ZM24.48 194.085C23.14 194.085 22.13 194.465 21.45 195.225C20.77 195.965 20.43 197.205 20.43 198.945C20.43 199.605 20.49 200.175 20.61 200.655C20.71 201.115 20.9 201.495 21.18 201.795C21.44 202.095 21.8 202.325 22.26 202.485C22.72 202.625 23.3 202.695 24 202.695C24.68 202.695 25.46 202.695 26.34 202.695C27.2 202.695 28.01 202.685 28.77 202.665C28.79 202.205 28.8 201.695 28.8 201.135C28.8 200.555 28.8 200.015 28.8 199.515C28.8 198.915 28.76 198.295 28.68 197.655C28.6 196.995 28.42 196.405 28.14 195.885C27.84 195.365 27.41 194.935 26.85 194.595C26.27 194.255 25.48 194.085 24.48 194.085Z" fill="white"/>
<path d="M39.3804 166.758C38.6678 166.647 37.928 166.521 37.1609 166.378C36.3979 166.216 35.5742 166.051 34.6897 165.883C33.8052 165.716 32.8543 165.524 31.837 165.308C30.8002 165.087 29.646 164.842 28.3744 164.572C26.9854 164.276 25.8039 164.015 24.83 163.788C23.8364 163.556 23.037 163.325 22.4318 163.094C21.8266 162.863 21.398 162.619 21.1462 162.36C20.8985 162.083 20.812 161.768 20.8869 161.416C20.9243 161.24 20.9792 161.078 21.0516 160.93C21.124 160.781 21.2411 160.663 21.403 160.575C21.5454 160.482 21.752 160.424 22.0229 160.4C22.2785 160.352 22.604 160.36 22.9994 160.423C23.712 160.534 24.3442 160.638 24.8961 160.735C25.4481 160.832 26 160.928 26.5519 161.025C27.0843 161.118 27.6439 161.227 28.2308 161.351C28.7981 161.472 29.4437 161.609 30.1675 161.763C31.0478 161.95 31.889 162.129 32.6911 162.3C33.4932 162.47 34.2834 162.648 35.0618 162.834C35.8402 163.02 36.6283 163.208 37.4262 163.398C38.2241 163.588 39.0591 163.796 39.9311 164.022C40.3965 164.142 40.748 164.268 40.9857 164.4C41.2234 164.532 41.3982 164.672 41.5102 164.818C41.6222 164.965 41.6713 165.118 41.6576 165.279C41.6635 165.444 41.6456 165.624 41.604 165.82C41.5292 166.172 41.3474 166.45 41.0586 166.654C40.7502 166.855 40.1908 166.889 39.3804 166.758Z" fill="white"/>
<path d="M47.0982 132.047C44.8787 132.066 42.7637 132.022 40.7534 131.915C38.733 131.782 36.945 131.642 35.3896 131.497C37.4681 132.926 39.5934 134.299 41.7653 135.616C43.9454 136.916 45.9885 138.252 47.8944 139.626C48.3206 139.947 48.5509 140.291 48.5852 140.656C48.6012 141.013 48.5644 141.293 48.475 141.494C48.3285 141.823 48.1101 142.043 47.8196 142.154C47.5373 142.247 47.2408 142.225 46.9302 142.087C46.51 141.9 45.8909 141.569 45.0728 141.095C44.2446 140.595 43.3149 140.028 42.2837 139.394C41.2607 138.741 40.191 138.046 39.0746 137.308C37.9582 136.57 36.8875 135.853 35.8624 135.156C34.8272 134.432 33.8935 133.776 33.0613 133.186C32.2373 132.578 31.6111 132.092 31.1829 131.726C30.4482 131.114 30.2435 130.443 30.5689 129.712C30.7641 129.274 31.1502 128.997 31.727 128.881C32.2855 128.758 33.0897 128.722 34.1395 128.773C35.1792 128.798 36.4849 128.865 38.0566 128.974C39.6364 129.064 41.5188 129.114 43.7038 129.124C42.2265 127.524 40.9267 126.19 39.8045 125.122C38.6721 124.026 37.7406 123.119 37.01 122.4C36.2693 121.654 35.7579 121.032 35.476 120.534C35.1758 120.029 35.1274 119.547 35.3307 119.091C35.5178 118.67 35.7698 118.399 36.0867 118.278C36.3853 118.148 36.7691 118.122 37.2381 118.199C37.8067 118.299 38.5884 118.461 39.5833 118.685C40.5599 118.901 41.6502 119.157 42.8542 119.452C44.0481 119.721 45.2927 120.023 46.5881 120.359C47.8834 120.695 49.1158 121.025 50.2853 121.348C51.4548 121.672 52.5075 121.987 53.4434 122.295C54.3692 122.576 55.0697 122.822 55.5447 123.033C55.8371 123.163 56.0298 123.37 56.1231 123.652C56.198 123.926 56.1663 124.219 56.0281 124.529C55.9386 124.73 55.7557 124.944 55.4794 125.171C55.1848 125.391 54.7755 125.449 54.2517 125.347C53.1126 125.103 51.9452 124.824 50.7493 124.51C49.5615 124.179 48.3647 123.843 47.1587 123.503C45.9425 123.137 44.7355 122.774 43.5376 122.416C42.3215 122.05 41.1104 121.697 39.9044 121.357C40.5295 121.92 41.2114 122.552 41.9501 123.253C42.6888 123.954 43.4285 124.677 44.1692 125.423C44.8917 126.161 45.6009 126.903 46.297 127.651C46.993 128.399 47.6109 129.101 48.1506 129.757C48.3312 129.991 48.4366 130.246 48.4669 130.522C48.4871 130.772 48.4483 131.006 48.3507 131.225C48.245 131.463 48.0885 131.667 47.8812 131.837C47.6638 131.981 47.4028 132.051 47.0982 132.047Z" fill="white"/>
<path d="M64.8118 106.94C65.2001 107.222 65.4701 107.48 65.6217 107.713C65.785 107.931 65.8821 108.138 65.9131 108.333C65.9558 108.512 65.9324 108.681 65.8428 108.838C65.7811 108.991 65.7032 109.132 65.6092 109.262C65.2918 109.699 64.9831 109.919 64.6831 109.924C64.3949 109.912 63.8934 109.684 63.1785 109.239C62.7991 109.012 62.2637 108.661 61.5723 108.183C60.881 107.705 60.0602 107.134 59.11 106.468C58.1715 105.786 57.1301 105.042 55.9857 104.235C54.8531 103.412 53.6558 102.542 52.3937 101.626C51.795 101.191 51.2412 100.677 50.7321 100.085C50.2231 99.4923 49.8647 98.8116 49.657 98.0427C49.4611 97.2576 49.4739 96.3893 49.6955 95.4378C49.9288 94.4701 50.4745 93.3957 51.3327 92.2146C51.9323 91.3894 52.5914 90.6693 53.3101 90.0543C54.0289 89.4393 54.8124 89.0074 55.6607 88.7585C56.5091 88.5096 57.4207 88.4797 58.3957 88.6689C59.3707 88.8582 60.4002 89.3466 61.4843 90.1342C62.6169 90.9571 63.4202 91.825 63.8941 92.7379C64.368 93.6508 64.5765 94.6058 64.5197 95.6028C64.4628 96.5997 64.1824 97.6321 63.6786 98.6999C63.1747 99.7677 62.5173 100.86 61.7061 101.976C61.5063 102.251 61.3064 102.526 61.1066 102.801C60.9067 103.076 60.6672 103.372 60.388 103.688L64.8118 106.94ZM59.6724 92.526C58.5883 91.7384 57.5479 91.4521 56.551 91.6673C55.5659 91.8663 54.562 92.6696 53.5392 94.0773C53.1513 94.6112 52.8648 95.1076 52.6798 95.5665C52.4903 95.9974 52.4206 96.4165 52.4708 96.8238C52.5048 97.2194 52.6609 97.617 52.939 98.0169C53.2288 98.4005 53.6569 98.798 54.2232 99.2095C54.7734 99.6092 55.4044 100.068 56.1163 100.585C56.8121 101.09 57.4733 101.558 58.0999 101.989C58.3864 101.629 58.6943 101.222 59.0235 100.769C59.3644 100.3 59.6818 99.8627 59.9757 99.4582C60.3284 98.9728 60.6604 98.4477 60.9719 97.8829C61.2951 97.3019 61.4963 96.7188 61.5754 96.1335C61.6383 95.5365 61.5432 94.9359 61.29 94.3316C61.0206 93.7157 60.4814 93.1138 59.6724 92.526Z" fill="white"/>
<path d="M94.6872 74.7254C94.2174 74.5025 93.6859 74.241 93.0927 73.9408C92.501 73.6124 91.8743 73.2751 91.2127 72.9289C90.7802 73.3452 90.3254 73.7816 89.8483 74.2381C89.3578 74.6798 88.8599 75.1281 88.3546 75.5831C87.7155 76.1585 87.1358 76.6805 86.6156 77.1488C86.0954 77.6172 85.6131 78.0381 85.1687 78.4113C85.4587 79.0921 85.7294 79.7365 85.9808 80.3444C86.2322 80.9524 86.4441 81.5016 86.6167 81.9922C87.0019 83.0178 86.9122 83.7849 86.3474 84.2935C86.1393 84.4808 85.8784 84.5946 85.5648 84.6348C85.266 84.6616 85.0028 84.5487 84.7753 84.296C84.5478 84.0434 84.298 83.6762 84.0258 83.1946C83.7403 82.6982 83.457 82.1594 83.1759 81.5782C82.8963 80.9687 82.6174 80.3452 82.3393 79.7075C82.0477 79.0549 81.7823 78.4462 81.5428 77.8814C81.2632 77.2719 80.9293 76.4826 80.541 75.5135C80.1543 74.5161 79.7557 73.4755 79.3451 72.3919C78.9346 71.3083 78.5374 70.2395 78.1537 69.1856C77.7565 68.1168 77.4233 67.1789 77.154 66.3717C77.0797 66.1695 77.0068 65.9391 76.9354 65.6805C76.8506 65.407 76.794 65.1349 76.7657 64.8644C76.7523 64.5805 76.7663 64.3121 76.8079 64.0594C76.8643 63.7933 76.9891 63.5732 77.1824 63.3993C77.3756 63.2253 77.6142 63.1316 77.8981 63.1181C78.1686 63.0898 78.4437 63.1113 78.7232 63.1826C79.0175 63.2405 79.2963 63.326 79.5594 63.4389C79.8374 63.5384 80.0731 63.6357 80.2664 63.7308C81.0395 64.1112 81.9226 64.554 82.9158 65.0592C83.9238 65.5511 84.9311 66.057 85.9376 66.5771C86.959 67.0838 87.9246 67.5734 88.8345 68.046C89.7444 68.5185 90.5019 68.9264 91.1071 69.2697C91.6289 69.5803 92.1924 69.9072 92.7975 70.2504C93.4175 70.5803 94.0159 70.9162 94.5928 71.2579C95.1697 71.5997 95.6901 71.9386 96.154 72.2744C96.6193 72.582 96.9658 72.8622 97.1933 73.1149C97.4208 73.3675 97.4981 73.6477 97.4254 73.9555C97.3675 74.2498 97.2345 74.4907 97.0264 74.678C96.7588 74.9189 96.4333 75.0506 96.0498 75.073C95.6529 75.0805 95.1987 74.9646 94.6872 74.7254ZM86.3249 73.3737C86.6816 73.0525 87.045 72.7388 87.4151 72.4325C87.7718 72.1113 88.1352 71.7975 88.5053 71.4912C87.8585 71.1316 87.2118 70.772 86.565 70.4124C85.9183 70.0528 85.2991 69.7088 84.7073 69.3804C84.1305 69.0386 83.5945 68.7273 83.0994 68.4464C82.6058 68.1373 82.1738 67.8668 81.8036 67.635C81.5702 67.4953 81.3628 67.3995 81.1814 67.3475C81.0001 67.2955 80.8499 67.323 80.731 67.4301C80.6121 67.5372 80.5757 67.691 80.6218 67.8917C80.6546 68.0775 80.7282 68.2938 80.8428 68.5406C81.2131 69.3105 81.6764 70.3332 82.2327 71.6086C82.7904 72.8557 83.3727 74.1749 83.9795 75.5662C84.3674 75.19 84.7621 74.8213 85.1634 74.4599C85.5513 74.0837 85.9384 73.7217 86.3249 73.3737Z" fill="white"/>
<path d="M113.397 42.1129C112.932 42.4275 112.427 42.7535 111.883 43.0908C111.356 43.4182 110.768 43.7805 110.12 44.1778C110.407 44.6354 110.68 45.0671 110.937 45.4728C111.184 45.8612 111.437 46.2582 111.694 46.6639C111.951 47.0696 112.21 47.4976 112.47 47.9479C112.747 48.3883 113.046 48.8856 113.366 49.4398C113.816 50.2193 114.251 50.9727 114.671 51.7002C115.081 52.4103 115.487 53.1341 115.89 53.8716C116.283 54.5917 116.68 55.3205 117.083 56.058C117.486 56.7954 117.895 57.5639 118.31 58.3633C118.533 58.789 118.675 59.1344 118.735 59.3996C118.813 59.6547 118.835 59.8729 118.801 60.0542C118.767 60.2354 118.686 60.3747 118.558 60.472C118.439 60.5867 118.293 60.694 118.12 60.794C117.808 60.974 117.48 61.0251 117.135 60.9472C116.797 60.8421 116.406 60.4444 115.961 59.7543C115.566 59.1507 115.16 58.5076 114.743 57.8247C114.343 57.1319 113.904 56.3921 113.427 55.6054C112.95 54.8186 112.446 53.9663 111.916 53.0483C111.376 52.113 110.781 51.0824 110.131 49.9566C109.581 49.004 109.101 48.1726 108.691 47.4624C108.298 46.7423 107.969 46.1124 107.704 45.5728L106.639 46.1878C105.911 46.6078 105.283 46.9591 104.753 47.2418C104.241 47.5145 103.8 47.7112 103.431 47.8319C103.052 47.9353 102.734 47.9454 102.479 47.8622C102.24 47.769 102.031 47.5665 101.851 47.2547C101.761 47.0989 101.698 46.9503 101.663 46.809C101.617 46.6505 101.625 46.4842 101.687 46.3103C101.738 46.1191 101.847 45.9288 102.015 45.7395C102.2 45.5402 102.456 45.3233 102.783 45.0886C103.102 44.8813 103.386 44.694 103.636 44.5267C103.886 44.3594 104.135 44.192 104.385 44.0247C104.635 43.8574 104.899 43.6937 105.176 43.5337C105.453 43.3737 105.773 43.1887 106.137 42.9787C107.159 42.3887 108.125 41.8424 109.036 41.3397C109.964 40.827 110.954 40.3017 112.006 39.7636C112.441 39.5583 112.792 39.4252 113.057 39.3645C113.312 39.2865 113.53 39.2644 113.712 39.2984C113.893 39.3323 114.032 39.4135 114.129 39.5421C114.244 39.6606 114.351 39.8065 114.451 39.9797C114.631 40.2915 114.669 40.6163 114.564 40.9542C114.476 41.282 114.087 41.6682 113.397 42.1129Z" fill="white"/>
<path d="M146.543 45.6314C146.282 44.959 146.022 44.255 145.762 43.5193C145.521 42.7775 145.252 41.9817 144.955 41.1319C144.658 40.2822 144.348 39.3627 144.027 38.3736C143.699 37.3655 143.335 36.2433 142.933 35.0069C142.494 33.6564 142.13 32.5025 141.84 31.5453C141.544 30.569 141.344 29.7611 141.242 29.1215C141.139 28.482 141.136 27.9886 141.234 27.6415C141.35 27.2882 141.58 27.0559 141.922 26.9447C142.093 26.889 142.261 26.8555 142.426 26.8441C142.59 26.8327 142.751 26.8751 142.909 26.9711C143.06 27.0482 143.214 27.198 143.37 27.4205C143.539 27.6179 143.695 27.9037 143.838 28.2779C144.098 28.9503 144.325 29.5497 144.517 30.0761C144.709 30.6025 144.901 31.129 145.093 31.6554C145.279 32.1628 145.465 32.7018 145.65 33.2724C145.829 33.824 146.033 34.4517 146.262 35.1555C146.54 36.0114 146.806 36.8294 147.059 37.6092C147.313 38.3891 147.553 39.1625 147.781 39.9296C148.01 40.6966 148.241 41.4731 148.475 42.2592C148.71 43.0452 148.947 43.8724 149.187 44.7407C149.316 45.2034 149.383 45.5707 149.387 45.8427C149.392 46.1147 149.358 46.3358 149.287 46.5061C149.217 46.6763 149.108 46.7956 148.962 46.8641C148.822 46.9516 148.657 47.0262 148.467 47.088C148.125 47.1993 147.793 47.181 147.471 47.033C147.144 46.8661 146.834 46.3989 146.543 45.6314Z" fill="white"/>
<path d="M177.248 38.5255C177.298 39.0028 177.287 39.376 177.214 39.6451C177.162 39.912 177.074 40.1224 176.949 40.2763C176.844 40.4281 176.703 40.5233 176.527 40.562C176.372 40.6185 176.215 40.6551 176.055 40.6719C175.518 40.7283 175.148 40.6466 174.944 40.4267C174.76 40.2048 174.594 39.6792 174.446 38.8501C174.36 38.4167 174.264 37.7833 174.156 36.95C174.048 36.1167 173.924 35.1243 173.783 33.9727C173.661 32.8191 173.518 31.5471 173.352 30.1569C173.205 28.7646 173.05 27.2927 172.887 25.7412C172.81 25.0053 172.821 24.25 172.921 23.4753C173.02 22.7007 173.286 21.9789 173.719 21.31C174.171 20.6391 174.825 20.0676 175.68 19.5956C176.556 19.1215 177.719 18.8082 179.171 18.6556C180.186 18.5489 181.162 18.5569 182.1 18.6796C183.038 18.8022 183.883 19.0955 184.636 19.5593C185.388 20.0232 186.02 20.6807 186.532 21.5319C187.044 22.3831 187.37 23.475 187.51 24.8076C187.656 26.2 187.549 27.3776 187.187 28.3407C186.826 29.3037 186.256 30.0977 185.477 30.7225C184.698 31.3474 183.743 31.8298 182.613 32.1699C181.482 32.5099 180.23 32.7521 178.858 32.8963C178.52 32.9318 178.182 32.9674 177.844 33.0029C177.505 33.0385 177.125 33.0583 176.704 33.0624L177.248 38.5255ZM184.52 25.0615C184.38 23.7289 183.897 22.7641 183.07 22.1673C182.263 21.5684 180.994 21.3599 179.263 21.5417C178.607 21.6107 178.046 21.73 177.582 21.8995C177.135 22.047 176.776 22.2757 176.507 22.5855C176.236 22.8755 176.045 23.2575 175.934 23.7317C175.843 24.2039 175.834 24.788 175.907 25.4842C175.978 26.1604 176.06 26.9362 176.152 27.8113C176.242 28.6666 176.336 29.4711 176.436 30.2249C176.895 30.1967 177.403 30.1533 177.96 30.0948C178.537 30.0342 179.074 29.9777 179.571 29.9255C180.168 29.8627 180.781 29.7582 181.409 29.6117C182.057 29.4631 182.625 29.2225 183.113 28.8896C183.598 28.5369 183.981 28.0643 184.261 27.4719C184.538 26.8595 184.625 26.0561 184.52 25.0615Z" fill="white"/>
<path d="M221.178 39.1718C221.029 38.6735 220.868 38.1035 220.694 37.4619C220.542 36.8024 220.373 36.1109 220.188 35.3876C219.589 35.3448 218.961 35.2988 218.302 35.2497C217.646 35.1807 216.979 35.1107 216.303 35.0396C215.448 34.9497 214.672 34.8682 213.976 34.795C213.28 34.7218 212.644 34.645 212.07 34.5645C211.758 35.2356 211.46 35.8679 211.176 36.4615C210.893 37.0551 210.627 37.5802 210.377 38.0366C209.873 39.0092 209.243 39.4558 208.487 39.3764C208.209 39.3471 207.949 39.2294 207.71 39.0232C207.49 38.8191 207.398 38.548 207.433 38.2098C207.469 37.8717 207.574 37.4404 207.75 36.9159C207.928 36.3715 208.139 35.8004 208.383 35.2026C208.649 34.587 208.925 33.9625 209.213 33.3291C209.503 32.6759 209.778 32.0713 210.037 31.5153C210.303 30.8998 210.666 30.1235 211.127 29.1865C211.609 28.2317 212.116 27.2392 212.646 26.209C213.177 25.1788 213.705 24.1685 214.232 23.1781C214.76 22.1678 215.234 21.2926 215.654 20.5524C215.754 20.3618 215.877 20.1535 216.021 19.9274C216.168 19.6813 216.332 19.4573 216.514 19.2552C216.716 19.0552 216.925 18.8861 217.141 18.7479C217.376 18.6118 217.623 18.5573 217.882 18.5845C218.14 18.6117 218.37 18.7263 218.57 18.9283C218.772 19.1104 218.94 19.3292 219.074 19.5846C219.228 19.8421 219.351 20.1064 219.443 20.3775C219.555 20.6507 219.64 20.8909 219.699 21.0982C219.934 21.9273 220.196 22.8799 220.485 23.956C220.794 25.0342 221.092 26.1213 221.379 27.2173C221.686 28.3154 221.968 29.3606 222.226 30.353C222.483 31.3454 222.687 32.1812 222.837 32.8606C222.955 33.4563 223.089 34.0938 223.239 34.7731C223.409 35.4546 223.56 36.1241 223.692 36.7815C223.824 37.4389 223.92 38.0523 223.981 38.6218C224.064 39.1734 224.087 39.6184 224.052 39.9565C224.016 40.2946 223.86 40.5396 223.582 40.6914C223.325 40.8454 223.057 40.9077 222.778 40.8784C222.42 40.8408 222.105 40.687 221.831 40.4169C221.56 40.127 221.342 39.712 221.178 39.1718ZM216.587 32.0529C217.064 32.1031 217.541 32.1632 218.016 32.2333C218.493 32.2834 218.97 32.3436 219.445 32.4136C219.279 31.6924 219.114 30.9711 218.948 30.2499C218.783 29.5286 218.624 28.8382 218.472 28.1788C218.34 27.5214 218.213 26.9147 218.09 26.3589C217.99 25.7852 217.902 25.2833 217.826 24.853C217.774 24.5861 217.706 24.3678 217.624 24.1982C217.541 24.0287 217.42 23.9355 217.261 23.9188C217.102 23.9021 216.963 23.978 216.845 24.1466C216.729 24.2952 216.617 24.4947 216.51 24.7449C216.186 25.5353 215.736 26.5639 215.16 27.8307C214.607 29.0797 214.016 30.3951 213.388 31.777C213.927 31.8136 214.465 31.8601 215.003 31.9165C215.542 31.9531 216.07 31.9986 216.587 32.0529Z" fill="white"/>
<path d="M252.718 47.2549C252.381 46.2202 252.07 45.2043 251.784 44.2072C251.523 43.1972 251.24 42.0957 250.933 40.9026C250.646 39.7158 250.298 38.3934 249.888 36.9355C249.504 35.4647 249.023 33.7417 248.445 31.7665C247.981 33.1931 247.564 34.477 247.193 35.6183C246.829 36.7405 246.479 37.7836 246.145 38.7475C245.811 39.7114 245.495 40.6182 245.198 41.468C244.901 42.3177 244.594 43.1644 244.278 44.008C244.111 44.4583 243.949 44.7948 243.792 45.0173C243.655 45.2461 243.507 45.4085 243.35 45.5045C243.193 45.6006 243.035 45.6334 242.876 45.603C242.731 45.5978 242.563 45.5643 242.373 45.5025C242.03 45.3912 241.782 45.1844 241.628 44.882C241.48 44.5605 241.514 44.0037 241.729 43.2115C242.314 41.0882 242.937 38.9774 243.598 36.8789C244.284 34.7675 244.991 32.5896 245.721 30.3451C246.135 29.0707 246.469 28.0752 246.723 27.3586C246.995 26.6481 247.238 26.1276 247.451 25.7971C247.682 25.4728 247.899 25.2909 248.101 25.2514C248.322 25.2181 248.585 25.2509 248.889 25.3498C249.194 25.4487 249.516 25.8163 249.856 26.4525C250.202 27.0697 250.546 27.8545 250.889 28.8069C251.231 29.7594 251.575 30.8383 251.919 32.0437C252.282 33.2553 252.627 34.4923 252.953 35.7548C253.279 37.0173 253.579 38.261 253.854 39.4859C254.148 40.717 254.416 41.8344 254.657 42.8382C254.929 41.938 255.238 40.9553 255.584 39.8902C255.936 38.806 256.325 37.6076 256.752 36.2952C257.24 34.7925 257.651 33.5592 257.986 32.5953C258.326 31.6124 258.627 30.848 258.888 30.3021C259.169 29.7623 259.441 29.4092 259.706 29.2428C259.97 29.0763 260.273 29.0487 260.616 29.16C260.939 29.2651 261.191 29.4624 261.37 29.752C261.549 30.0415 261.534 30.5729 261.325 31.3461C261.141 32.0433 260.971 32.6612 260.817 33.2C260.663 33.7387 260.509 34.2775 260.355 34.8163C260.207 35.336 260.041 35.8812 259.855 36.4519C259.676 37.0035 259.472 37.6312 259.243 38.335C258.965 39.1909 258.7 40.0088 258.446 40.7887C258.193 41.5686 257.933 42.3358 257.667 43.0905C257.4 43.8451 257.131 44.6093 256.859 45.383C256.586 46.1567 256.292 46.9653 255.976 47.8089C255.809 48.2592 255.647 48.5957 255.49 48.8182C255.353 49.047 255.205 49.2094 255.048 49.3054C254.891 49.4015 254.733 49.4343 254.574 49.4039C254.429 49.3987 254.261 49.3652 254.071 49.3034C253.747 49.1983 253.503 49.0136 253.336 48.7492C253.17 48.4848 252.964 47.9867 252.718 47.2549Z" fill="white"/>
<path d="M310.669 83.4022C310.842 82.9117 311.046 82.3558 311.283 81.7344C311.548 81.1116 311.818 80.4531 312.093 79.7589C311.633 79.3723 311.152 78.9656 310.648 78.5389C310.158 78.0972 309.66 77.6489 309.154 77.1939C308.515 76.6185 307.936 76.0965 307.415 75.6281C306.895 75.1598 306.426 74.7241 306.009 74.3211C305.362 74.6807 304.749 75.0173 304.171 75.3308C303.593 75.6444 303.069 75.9126 302.599 76.1355C301.619 76.6258 300.847 76.6167 300.282 76.1082C300.074 75.9209 299.933 75.6733 299.861 75.3656C299.803 75.0712 299.887 74.7977 300.115 74.545C300.342 74.2924 300.681 74.0055 301.132 73.6845C301.596 73.3487 302.102 73.0106 302.651 72.6703C303.228 72.3285 303.819 71.9859 304.424 71.6427C305.042 71.2846 305.62 70.9569 306.157 70.6597C306.733 70.3179 307.484 69.9033 308.407 69.4159C309.358 68.927 310.351 68.4218 311.386 67.9003C312.421 67.3787 313.442 66.872 314.45 66.3802C315.472 65.8735 316.37 65.444 317.144 65.0919C317.338 64.9968 317.559 64.9002 317.809 64.8022C318.072 64.6892 318.337 64.6046 318.603 64.5481C318.884 64.5051 319.152 64.491 319.408 64.5059C319.678 64.5342 319.91 64.6354 320.104 64.8094C320.297 64.9833 320.415 65.2108 320.458 65.4918C320.514 65.7579 320.522 66.0337 320.48 66.3191C320.453 66.6179 320.397 66.904 320.313 67.1775C320.243 67.4644 320.171 67.709 320.096 67.9111C319.799 68.7198 319.451 69.6443 319.052 70.6849C318.668 71.7388 318.27 72.7934 317.858 73.8488C317.461 74.9176 317.075 75.9291 316.7 76.8834C316.325 77.8377 315.999 78.6337 315.721 79.2714C315.467 79.8229 315.2 80.4174 314.922 81.0551C314.659 81.7062 314.387 82.3364 314.108 82.9459C313.828 83.5553 313.546 84.1083 313.26 84.6047C313.003 85.0997 312.76 85.4735 312.533 85.7262C312.305 85.9789 312.035 86.0851 311.721 86.0449C311.422 86.0181 311.169 85.911 310.961 85.7236C310.693 85.4827 310.528 85.1727 310.466 84.7936C310.417 84.3997 310.485 83.9359 310.669 83.4022ZM311.139 74.9444C311.496 75.2656 311.846 75.5942 312.189 75.9302C312.546 76.2514 312.896 76.58 313.24 76.9161C313.53 76.2353 313.82 75.5545 314.11 74.8737C314.4 74.1929 314.677 73.5411 314.942 72.9183C315.221 72.3089 315.475 71.7433 315.703 71.2215C315.958 70.6983 316.182 70.2405 316.374 69.8481C316.489 69.6013 316.562 69.385 316.595 69.1992C316.628 69.0134 316.585 68.867 316.466 68.7599C316.347 68.6528 316.19 68.6327 315.995 68.6996C315.814 68.7516 315.606 68.8474 315.373 68.9871C314.646 69.4359 313.677 70.0036 312.467 70.6901C311.285 71.3751 310.034 72.0921 308.714 72.8411C309.128 73.1876 309.536 73.5415 309.938 73.9028C310.352 74.2492 310.753 74.5965 311.139 74.9444Z" fill="white"/>
<path d="M331.434 108.48C331.77 107.445 332.115 106.44 332.47 105.466C332.853 104.495 333.271 103.437 333.724 102.292C334.19 101.163 334.685 99.8885 335.211 98.4683C335.764 97.0525 336.388 95.3758 337.081 93.4381C335.868 94.3198 334.776 95.1133 333.805 95.8187C332.85 96.5122 331.954 97.1507 331.117 97.7341C330.28 98.3174 329.492 98.8655 328.752 99.3784C328.012 99.8912 327.267 100.396 326.515 100.893C326.115 101.159 325.786 101.336 325.529 101.424C325.283 101.528 325.068 101.573 324.885 101.558C324.701 101.543 324.554 101.477 324.444 101.359C324.329 101.269 324.213 101.144 324.095 100.982C323.884 100.691 323.804 100.377 323.857 100.042C323.927 99.6951 324.281 99.2645 324.921 98.7501C326.642 97.3761 328.387 96.0344 330.155 94.7251C331.951 93.4202 333.804 92.0742 335.713 90.687C336.797 89.8994 337.652 89.2903 338.279 88.8598C338.917 88.4454 339.42 88.167 339.786 88.0246C340.164 87.8983 340.446 87.8786 340.633 87.9654C340.831 88.0684 341.025 88.2494 341.213 88.5083C341.401 88.7672 341.445 89.2539 341.346 89.9685C341.264 90.6713 341.081 91.5086 340.798 92.4804C340.515 93.4523 340.159 94.527 339.729 95.7046C339.311 96.8984 338.863 98.1017 338.384 99.3146C337.906 100.527 337.418 101.71 336.92 102.863C336.434 104.032 335.994 105.093 335.6 106.047C336.348 105.478 337.176 104.865 338.082 104.207C339.004 103.536 340.024 102.796 341.14 101.985C342.418 101.056 343.476 100.3 344.313 99.7166C345.166 99.1215 345.859 98.68 346.391 98.392C346.935 98.1203 347.363 97.9948 347.675 98.0155C347.987 98.0362 348.248 98.1922 348.46 98.4835C348.66 98.7585 348.747 99.0659 348.722 99.4055C348.697 99.7452 348.372 100.166 347.749 100.669C347.19 101.124 346.69 101.525 346.248 101.87C345.807 102.216 345.366 102.561 344.924 102.906C344.499 103.24 344.044 103.583 343.559 103.936C343.089 104.277 342.555 104.665 341.957 105.099C341.229 105.628 340.533 106.134 339.87 106.616C339.206 107.098 338.545 107.566 337.886 108.02C337.227 108.474 336.56 108.934 335.885 109.4C335.21 109.866 334.496 110.347 333.745 110.843C333.345 111.109 333.016 111.286 332.758 111.375C332.513 111.479 332.298 111.524 332.114 111.509C331.931 111.494 331.784 111.428 331.673 111.31C331.559 111.22 331.443 111.095 331.325 110.933C331.125 110.658 331.036 110.364 331.056 110.053C331.077 109.741 331.203 109.217 331.434 108.48Z" fill="white"/>
<path d="M364.317 127.617C364.585 128.22 364.807 128.865 364.982 129.554C365.157 130.242 365.253 130.9 365.27 131.527C365.305 132.147 365.244 132.699 365.088 133.184C364.932 133.67 364.653 134.002 364.251 134.181C363.831 134.368 363.462 134.401 363.145 134.279C362.829 134.158 362.597 133.932 362.451 133.603C362.312 133.293 362.237 132.976 362.224 132.653C362.22 132.349 362.209 132.003 362.19 131.618C362.172 131.232 362.116 130.786 362.022 130.281C361.928 129.775 361.727 129.175 361.418 128.481C361.076 127.713 360.572 127.073 359.905 126.56C359.265 126.056 358.512 125.691 357.645 125.465C356.796 125.23 355.877 125.157 354.888 125.247C353.899 125.337 352.902 125.606 351.897 126.053C350.673 126.598 349.682 127.225 348.925 127.935C348.168 128.644 347.607 129.375 347.242 130.129C346.886 130.901 346.699 131.662 346.683 132.414C346.694 133.175 346.842 133.876 347.126 134.515C347.59 135.557 348.102 136.314 348.663 136.786C349.25 137.269 349.863 137.588 350.501 137.742C350.892 137.589 351.353 137.395 351.883 137.159C352.413 136.923 352.988 136.667 353.61 136.39C353.847 136.285 354.022 136.185 354.133 136.091C354.263 135.99 354.332 135.85 354.34 135.671C354.348 135.492 354.296 135.253 354.184 134.952C354.081 134.67 353.923 134.291 353.712 133.816C353.451 133.232 353.313 132.724 353.296 132.294C353.298 131.855 353.555 131.522 354.066 131.294C354.432 131.131 354.765 131.092 355.065 131.178C355.392 131.273 355.708 131.614 356.013 132.2C356.062 132.31 356.139 132.484 356.245 132.721C356.377 132.969 356.504 133.23 356.626 133.504C356.757 133.796 356.883 134.079 357.005 134.353C357.127 134.627 357.224 134.847 357.298 135.011C357.542 135.559 357.682 136.022 357.719 136.4C357.774 136.769 357.685 137.159 357.452 137.57C357.326 137.779 357.039 137.994 356.59 138.216C356.149 138.456 355.628 138.71 355.025 138.979L347.954 142.127C347.461 142.346 347.034 142.372 346.675 142.204C346.323 142.054 346.07 141.805 345.916 141.458C345.729 141.038 345.684 140.642 345.781 140.27C345.868 139.925 346.14 139.65 346.597 139.447L347.665 138.971C346.906 138.74 346.261 138.349 345.73 137.797C345.208 137.263 344.728 136.503 344.288 135.516C343.841 134.511 343.603 133.435 343.573 132.288C343.544 131.14 343.756 130.017 344.208 128.918C344.678 127.811 345.401 126.756 346.378 125.752C347.38 124.759 348.676 123.908 350.266 123.2C351.855 122.492 353.373 122.09 354.819 121.994C356.273 121.916 357.608 122.088 358.825 122.509C360.059 122.923 361.145 123.567 362.082 124.441C363.019 125.316 363.764 126.374 364.317 127.617Z" fill="white"/>
<path d="M354.673 158.916C355.369 158.727 356.096 158.542 356.855 158.36C357.618 158.198 358.438 158.014 359.314 157.807C360.19 157.6 361.137 157.389 362.154 157.173C363.191 156.952 364.345 156.707 365.617 156.437C367.005 156.141 368.191 155.9 369.173 155.711C370.175 155.519 370.998 155.395 371.64 155.34C372.287 155.305 372.778 155.354 373.113 155.487C373.448 155.621 373.653 155.863 373.728 156.215C373.798 156.548 373.753 156.864 373.592 157.164C373.431 157.464 372.963 157.717 372.189 157.923C371.493 158.111 370.873 158.274 370.33 158.41C369.786 158.546 369.243 158.682 368.699 158.818C368.175 158.95 367.619 159.078 367.033 159.203C366.465 159.323 365.82 159.46 365.096 159.614L363.57 159.939L372.094 164.69C373.208 165.312 373.959 165.817 374.348 166.205C374.757 166.588 374.997 166.946 375.067 167.279C375.15 167.67 375.113 167.974 374.955 168.192C374.801 168.429 374.577 168.579 374.283 168.641C374.166 168.666 374.045 168.672 373.919 168.658C373.793 168.643 373.608 168.591 373.364 168.499C373.143 168.424 372.849 168.292 372.482 168.104C372.135 167.912 371.681 167.651 371.12 167.32L365.822 164.183L358.032 172.556C357.85 172.758 357.65 172.923 357.432 173.051C357.218 173.199 357.004 173.296 356.788 173.342C356.417 173.421 356.091 173.377 355.81 173.212C355.514 173.071 355.312 172.745 355.204 172.237C355.117 171.826 355.155 171.429 355.319 171.047C355.468 170.688 355.728 170.326 356.1 169.961L363.161 162.633L359.866 160.695C359.119 160.834 358.371 160.972 357.624 161.111C356.876 161.249 356.087 161.386 355.257 161.522C354.784 161.602 354.411 161.63 354.14 161.606C353.874 161.601 353.659 161.555 353.497 161.466C353.336 161.378 353.228 161.258 353.175 161.105C353.107 160.977 353.052 160.815 353.011 160.619C352.936 160.267 352.991 159.948 353.176 159.664C353.38 159.375 353.879 159.126 354.673 158.916Z" fill="white"/>
<path d="M358.86 204.495C359.94 204.455 361.07 204.415 362.25 204.375C363.45 204.355 364.83 204.345 366.39 204.345C366.37 203.705 366.35 203.025 366.33 202.305C366.33 201.585 366.33 200.845 366.33 200.085C366.33 199.185 366.33 198.365 366.33 197.625C366.33 196.885 366.34 196.225 366.36 195.645C365.1 195.625 363.88 195.605 362.7 195.585C361.54 195.565 360.27 195.525 358.89 195.465C358.41 195.445 358.04 195.395 357.78 195.315C357.52 195.255 357.32 195.165 357.18 195.045C357.04 194.925 356.96 194.785 356.94 194.625C356.9 194.485 356.88 194.315 356.88 194.115C356.88 193.755 357 193.455 357.24 193.215C357.5 192.975 358.04 192.835 358.86 192.795C359.58 192.755 360.33 192.725 361.11 192.705C361.89 192.705 362.73 192.695 363.63 192.675C364.53 192.655 365.5 192.645 366.54 192.645C367.6 192.645 368.78 192.645 370.08 192.645C371.5 192.645 372.71 192.655 373.71 192.675C374.73 192.695 375.56 192.745 376.2 192.825C376.84 192.925 377.31 193.075 377.61 193.275C377.91 193.475 378.06 193.755 378.06 194.115C378.06 194.455 377.95 194.755 377.73 195.015C377.51 195.275 377 195.425 376.2 195.465C375.52 195.505 374.9 195.535 374.34 195.555C373.8 195.575 373.26 195.595 372.72 195.615C372.2 195.635 371.66 195.645 371.1 195.645C370.54 195.645 369.92 195.645 369.24 195.645C369.3 197.145 369.33 198.615 369.33 200.055C369.33 200.755 369.32 201.455 369.3 202.155C369.28 202.875 369.25 203.605 369.21 204.345L370.08 204.345C371.5 204.345 372.71 204.355 373.71 204.375C374.73 204.395 375.56 204.445 376.2 204.525C376.84 204.625 377.31 204.775 377.61 204.975C377.91 205.175 378.06 205.455 378.06 205.815C378.06 206.155 377.95 206.455 377.73 206.715C377.51 206.975 377 207.125 376.2 207.165C375.48 207.205 374.84 207.235 374.28 207.255C373.72 207.275 373.16 207.295 372.6 207.315C372.06 207.335 371.49 207.345 370.89 207.345C370.31 207.345 369.65 207.345 368.91 207.345C368.01 207.345 367.15 207.345 366.33 207.345C365.51 207.345 364.7 207.335 363.9 207.315C363.1 207.295 362.29 207.275 361.47 207.255C360.65 207.235 359.79 207.205 358.89 207.165C358.41 207.145 358.04 207.095 357.78 207.015C357.52 206.955 357.32 206.865 357.18 206.745C357.04 206.625 356.96 206.485 356.94 206.325C356.9 206.185 356.88 206.015 356.88 205.815C356.88 205.455 357 205.155 357.24 204.915C357.5 204.675 358.04 204.535 358.86 204.495Z" fill="white"/>
<path d="M354.375 238.897C354.886 238.801 355.47 238.7 356.126 238.594C356.798 238.512 357.503 238.417 358.242 238.308C358.347 237.717 358.459 237.096 358.576 236.447C358.714 235.801 358.853 235.146 358.994 234.481C359.173 233.639 359.335 232.876 359.481 232.192C359.626 231.507 359.769 230.883 359.909 230.32C359.275 229.94 358.677 229.577 358.116 229.233C357.555 228.889 357.061 228.57 356.633 228.274C355.719 227.671 355.34 226.997 355.498 226.254C355.557 225.98 355.701 225.735 355.931 225.518C356.157 225.321 356.436 225.257 356.769 225.328C357.101 225.399 357.519 225.549 358.022 225.778C358.545 226.012 359.091 226.282 359.66 226.587C360.245 226.915 360.837 227.256 361.437 227.608C362.056 227.965 362.629 228.301 363.154 228.617C363.739 228.946 364.473 229.388 365.357 229.944C366.256 230.524 367.19 231.131 368.159 231.767C369.128 232.402 370.077 233.033 371.007 233.66C371.957 234.292 372.778 234.855 373.47 235.349C373.649 235.469 373.843 235.613 374.053 235.78C374.283 235.951 374.488 236.138 374.67 236.34C374.848 236.562 374.994 236.788 375.109 237.017C375.22 237.265 375.248 237.516 375.194 237.771C375.14 238.025 375.002 238.241 374.781 238.419C374.578 238.601 374.343 238.745 374.075 238.852C373.803 238.978 373.527 239.073 373.248 239.136C372.965 239.219 372.717 239.279 372.504 239.315C371.655 239.462 370.681 239.623 369.58 239.798C368.476 239.992 367.363 240.175 366.243 240.346C365.119 240.536 364.05 240.708 363.036 240.86C362.022 241.013 361.17 241.128 360.478 241.206C359.874 241.262 359.226 241.328 358.534 241.406C357.839 241.504 357.157 241.584 356.49 241.647C355.822 241.709 355.202 241.741 354.629 241.742C354.072 241.766 353.627 241.743 353.294 241.673C352.962 241.602 352.735 241.421 352.613 241.129C352.486 240.857 352.452 240.584 352.511 240.31C352.586 239.958 352.772 239.66 353.069 239.416C353.385 239.177 353.821 239.004 354.375 238.897ZM361.935 235.075C361.835 235.545 361.726 236.012 361.606 236.477C361.507 236.947 361.397 237.414 361.278 237.88C362.012 237.79 362.747 237.701 363.481 237.612C364.216 237.523 364.919 237.437 365.591 237.355C366.259 237.292 366.875 237.229 367.441 237.165C368.022 237.125 368.53 237.09 368.966 237.06C369.237 237.036 369.461 236.992 369.638 236.927C369.816 236.863 369.921 236.752 369.954 236.596C369.987 236.439 369.926 236.293 369.771 236.158C369.635 236.027 369.449 235.895 369.211 235.763C368.459 235.358 367.483 234.803 366.283 234.098C365.099 233.417 363.852 232.692 362.544 231.923C362.451 232.455 362.349 232.985 362.236 233.514C362.144 234.046 362.043 234.566 361.935 235.075Z" fill="white"/>
<path d="M350.612 267.089C350.707 266.825 350.807 266.552 350.911 266.27C351.025 266.014 351.143 265.749 351.265 265.475C351.403 265.165 351.541 264.854 351.68 264.543C351.818 264.233 351.991 263.894 352.198 263.526L346.635 261.049C346.05 260.789 345.75 260.48 345.734 260.123C345.728 259.792 345.818 259.416 346.005 258.996C346.103 258.777 346.199 258.611 346.292 258.5C346.367 258.38 346.462 258.29 346.576 258.232C346.699 258.199 346.856 258.192 347.045 258.211C347.225 258.247 347.466 258.322 347.766 258.433C348.112 258.543 348.599 258.727 349.228 258.986C349.876 259.252 350.706 259.6 351.719 260.029C352.724 260.477 353.943 261.008 355.376 261.625C356.82 262.267 358.51 263.02 360.447 263.882C361.196 264.216 361.877 264.628 362.49 265.12C363.121 265.62 363.596 266.225 363.914 266.936C364.251 267.655 364.404 268.49 364.375 269.441C364.338 270.409 364.039 271.524 363.478 272.784C363.079 273.68 362.592 274.503 362.017 275.254C361.434 276.023 360.749 276.627 359.963 277.065C359.177 277.503 358.274 277.736 357.254 277.764C356.235 277.792 355.095 277.525 353.834 276.963C352.153 276.215 351.01 275.268 350.403 274.122C349.807 273.003 349.597 271.728 349.775 270.296L343.097 271.723C342.512 271.857 341.991 271.822 341.535 271.619C341.169 271.456 340.943 271.202 340.856 270.857C340.742 270.522 340.767 270.171 340.93 269.806C341.109 269.404 341.373 269.106 341.722 268.911C342.09 268.724 342.513 268.584 342.993 268.491L350.612 267.089ZM355.082 274.235C356.342 274.796 357.445 274.827 358.39 274.329C359.344 273.856 360.188 272.798 360.92 271.153C361.188 270.55 361.357 270.023 361.427 269.573C361.514 269.13 361.474 268.729 361.306 268.369C361.137 268.01 360.831 267.665 360.386 267.336C359.952 267.033 359.36 266.715 358.611 266.382C358.081 266.146 357.46 265.869 356.748 265.552C356.035 265.235 355.382 264.955 354.789 264.713C354.584 265.125 354.368 265.587 354.14 266.098C353.904 266.628 353.684 267.122 353.481 267.578C353.253 268.09 353.041 268.641 352.843 269.232C352.656 269.849 352.58 270.461 352.617 271.069C352.671 271.684 352.872 272.266 353.219 272.814C353.584 273.371 354.205 273.845 355.082 274.235Z" fill="white"/>
<path d="M326.242 293.399C327.583 291.555 329.066 290.568 330.692 290.439C331.327 290.382 332.032 290.449 332.807 290.641C333.587 290.861 334.515 291.251 335.591 291.811C336.656 292.387 337.924 293.16 339.395 294.13C340.87 295.127 342.636 296.373 344.69 297.866C345.354 298.348 345.884 298.758 346.281 299.096C346.695 299.445 346.987 299.757 347.16 300.03C347.348 300.315 347.438 300.566 347.429 300.782C347.409 301.015 347.31 301.252 347.134 301.495C346.793 301.964 346.342 302.143 345.78 302.031C345.218 301.92 344.419 301.488 343.384 300.736C343.028 300.477 342.718 300.24 342.455 300.024C342.18 299.824 341.897 299.618 341.605 299.407C341.33 299.207 341.029 298.975 340.701 298.712C340.361 298.465 339.948 298.166 339.463 297.813C337.845 296.637 336.467 295.71 335.328 295.031C334.178 294.369 333.185 293.932 332.35 293.72C331.531 293.521 330.833 293.545 330.257 293.794C329.669 294.059 329.134 294.523 328.652 295.187C328.146 295.882 327.867 296.557 327.813 297.21C327.763 297.891 327.97 298.609 328.433 299.367C328.913 300.135 329.67 300.982 330.704 301.906C331.727 302.847 333.071 303.923 334.738 305.133C335.466 305.662 336.095 306.107 336.624 306.467C337.142 306.843 337.611 307.184 338.032 307.49C338.63 307.925 339.12 308.305 339.501 308.632C339.871 308.974 340.139 309.268 340.307 309.513C340.479 309.787 340.555 310.04 340.534 310.272C340.514 310.504 340.415 310.742 340.239 310.985C340.063 311.227 339.867 311.394 339.653 311.486C339.438 311.577 339.174 311.583 338.861 311.504C338.548 311.424 338.161 311.242 337.7 310.957C337.256 310.684 336.694 310.3 336.015 309.807C333.167 307.738 330.885 305.944 329.17 304.426C327.471 302.92 326.252 301.552 325.514 300.323C324.791 299.106 324.507 297.948 324.663 296.849C324.822 295.779 325.349 294.629 326.242 293.399Z" fill="white"/>
<path d="M312.634 316.906C313.092 317.355 313.704 317.975 314.469 318.765C315.235 319.556 316.006 320.383 316.782 321.245C317.224 321.735 317.679 322.24 318.147 322.761C318.614 323.309 319.088 323.865 319.568 324.428C320.529 325.555 321.238 326.477 321.696 327.195C322.139 327.926 322.338 328.595 322.292 329.202C322.231 329.822 321.93 330.443 321.387 331.066C320.845 331.689 320.068 332.456 319.057 333.366C319.042 333.379 318.886 333.52 318.589 333.787C318.277 334.068 317.899 334.395 317.454 334.769C317.023 335.157 316.571 335.551 316.097 335.951C315.608 336.364 315.2 336.704 314.875 336.97C314.521 337.235 314.221 337.424 313.974 337.539C313.726 337.682 313.51 337.755 313.325 337.76C313.154 337.779 313 337.743 312.864 337.651C312.74 337.573 312.618 337.468 312.498 337.334C312.19 336.992 312.059 336.653 312.105 336.315C312.165 335.993 312.471 335.541 313.026 334.961C313.296 334.664 313.715 334.247 314.281 333.71C314.846 333.202 315.425 332.68 316.02 332.144C316.614 331.609 317.143 331.12 317.605 330.677C318.081 330.249 318.378 329.981 318.497 329.874C318.87 329.511 319.065 329.174 319.081 328.864C319.096 328.581 318.842 328.15 318.32 327.57C318.2 327.437 317.898 327.116 317.415 326.61C316.93 326.131 316.273 325.431 315.443 324.509L313.593 326.176C312.805 326.885 312.152 327.445 311.635 327.857C311.116 328.297 310.69 328.601 310.355 328.767C310.006 328.947 309.706 329.002 309.454 328.933C309.203 328.863 308.957 328.694 308.716 328.427C308.596 328.293 308.497 328.153 308.42 328.007C308.341 327.89 308.313 327.74 308.337 327.557C308.374 327.389 308.463 327.188 308.602 326.955C308.755 326.736 308.997 326.452 309.327 326.101C309.731 325.683 310.12 325.293 310.493 324.93C310.864 324.595 311.236 324.261 311.607 323.926L313.48 322.24C313.279 322.017 313.039 321.749 312.757 321.437C312.476 321.125 312.189 320.806 311.894 320.479C311.6 320.152 311.312 319.832 311.031 319.52C310.735 319.221 310.493 318.982 310.304 318.802C310.075 318.578 309.865 318.404 309.673 318.28C309.466 318.17 309.249 318.124 309.022 318.14C308.779 318.17 308.504 318.283 308.197 318.479C307.874 318.689 307.483 319.001 307.022 319.416L302.228 323.732C301.708 324.2 301.294 324.398 300.987 324.325C300.679 324.253 300.378 324.053 300.083 323.726C299.842 323.458 299.715 323.197 299.7 322.941C299.698 322.7 299.901 322.342 300.308 321.868C300.687 321.392 301.323 320.739 302.216 319.908C303.095 319.09 304.322 317.972 305.897 316.553C306.566 315.951 307.17 315.515 307.708 315.246C308.246 314.977 308.776 314.863 309.297 314.904C309.819 314.946 310.348 315.129 310.883 315.455C311.417 315.809 312 316.292 312.634 316.906Z" fill="white"/>
<path d="M273.922 341.304C274.916 341.746 275.879 342.195 276.812 342.65C277.736 343.132 278.745 343.658 279.836 344.229C280.911 344.809 282.126 345.435 283.484 346.107C284.834 346.805 286.436 347.6 288.291 348.493C287.541 347.194 286.866 346.025 286.266 344.985C285.676 343.963 285.135 343.006 284.642 342.112C284.149 341.219 283.687 340.378 283.254 339.588C282.821 338.799 282.397 338.004 281.982 337.205C281.759 336.779 281.618 336.434 281.557 336.169C281.479 335.914 281.457 335.695 281.491 335.514C281.525 335.333 281.606 335.194 281.734 335.096C281.836 334.992 281.973 334.889 282.146 334.789C282.458 334.609 282.778 334.563 283.105 334.651C283.443 334.756 283.835 335.154 284.279 335.844C285.466 337.699 286.618 339.575 287.735 341.47C288.845 343.392 289.99 345.376 291.17 347.419C291.84 348.58 292.356 349.494 292.719 350.162C293.064 350.841 293.289 351.369 293.392 351.748C293.478 352.137 293.468 352.42 293.363 352.597C293.239 352.783 293.039 352.957 292.762 353.117C292.485 353.277 291.996 353.27 291.296 353.097C290.605 352.942 289.792 352.672 288.855 352.289C287.918 351.907 286.886 351.44 285.76 350.889C284.617 350.349 283.467 349.777 282.311 349.174C281.154 348.572 280.029 347.963 278.935 347.347C277.823 346.742 276.814 346.193 275.906 345.701C276.393 346.505 276.917 347.392 277.477 348.362C278.047 349.35 278.677 350.441 279.367 351.636C280.157 353.004 280.798 354.135 281.291 355.028C281.794 355.939 282.16 356.674 282.391 357.234C282.604 357.803 282.685 358.242 282.631 358.55C282.578 358.858 282.396 359.102 282.084 359.282C281.789 359.452 281.475 359.506 281.139 359.446C280.804 359.385 280.419 359.019 279.985 358.346C279.59 357.742 279.244 357.203 278.947 356.728C278.65 356.253 278.352 355.778 278.055 355.303C277.768 354.846 277.474 354.357 277.174 353.837C276.884 353.335 276.554 352.763 276.184 352.123C275.734 351.343 275.304 350.598 274.894 349.888C274.484 349.178 274.088 348.472 273.705 347.769C273.322 347.066 272.935 346.355 272.542 345.634C272.149 344.914 271.745 344.154 271.33 343.355C271.107 342.929 270.965 342.584 270.905 342.319C270.827 342.064 270.805 341.845 270.839 341.664C270.872 341.483 270.954 341.344 271.082 341.246C271.183 341.142 271.321 341.039 271.494 340.939C271.788 340.769 272.09 340.711 272.397 340.764C272.705 340.817 273.213 340.997 273.922 341.304Z" fill="white"/>
<path d="M251.453 372.007C250.825 372.21 250.16 372.364 249.457 372.466C248.754 372.568 248.09 372.594 247.464 372.545C246.844 372.515 246.301 372.397 245.835 372.192C245.368 371.986 245.067 371.673 244.931 371.255C244.789 370.817 244.795 370.448 244.949 370.145C245.103 369.843 245.351 369.636 245.694 369.525C246.017 369.42 246.34 369.378 246.663 369.399C246.966 369.427 247.31 369.452 247.696 369.473C248.082 369.495 248.531 369.486 249.043 369.446C249.556 369.405 250.174 369.268 250.897 369.033C251.695 368.773 252.385 368.339 252.965 367.73C253.532 367.146 253.974 366.435 254.291 365.596C254.613 364.776 254.781 363.87 254.795 362.877C254.809 361.884 254.646 360.864 254.306 359.818C253.892 358.544 253.372 357.493 252.746 356.666C252.119 355.839 251.451 355.205 250.739 354.763C250.009 354.327 249.271 354.062 248.525 353.968C247.767 353.899 247.055 353.973 246.389 354.189C245.305 354.542 244.498 354.972 243.969 355.48C243.428 356.014 243.047 356.589 242.827 357.208C242.938 357.613 243.083 358.092 243.262 358.643C243.442 359.195 243.636 359.794 243.846 360.441C243.927 360.688 244.008 360.872 244.089 360.993C244.176 361.133 244.309 361.216 244.485 361.243C244.662 361.269 244.906 361.243 245.217 361.163C245.508 361.089 245.901 360.972 246.396 360.811C247.004 360.614 247.524 360.529 247.953 360.557C248.39 360.605 248.694 360.895 248.867 361.428C248.991 361.808 248.995 362.143 248.878 362.433C248.75 362.749 248.377 363.027 247.762 363.269C247.648 363.306 247.467 363.365 247.22 363.445C246.96 363.551 246.687 363.65 246.402 363.743C246.098 363.842 245.803 363.938 245.517 364.03C245.232 364.123 245.004 364.197 244.833 364.253C244.262 364.438 243.787 364.529 243.407 364.527C243.034 364.543 242.656 364.413 242.272 364.138C242.077 363.991 241.893 363.683 241.719 363.214C241.527 362.751 241.328 362.205 241.124 361.578L238.733 354.217C238.566 353.703 238.585 353.276 238.79 352.936C238.976 352.602 239.249 352.377 239.611 352.259C240.048 352.117 240.447 352.114 240.806 352.249C241.141 352.372 241.385 352.671 241.54 353.147L241.901 354.26C242.21 353.528 242.667 352.928 243.271 352.458C243.857 351.994 244.663 351.596 245.69 351.262C246.736 350.922 247.831 350.797 248.976 350.888C250.12 350.979 251.215 351.307 252.26 351.872C253.312 352.455 254.286 353.285 255.182 354.36C256.066 355.461 256.776 356.839 257.314 358.494C257.852 360.149 258.093 361.7 258.038 363.148C257.963 364.602 257.653 365.912 257.106 367.078C256.566 368.263 255.812 369.276 254.844 370.116C253.877 370.956 252.746 371.586 251.453 372.007Z" fill="white"/>
<path d="M215.269 365.331C215.545 365.282 215.832 365.232 216.128 365.181C216.406 365.152 216.695 365.121 216.993 365.09C217.331 365.054 217.669 365.019 218.008 364.983C218.346 364.948 218.726 364.928 219.148 364.924L218.511 358.867C218.444 358.231 218.561 357.816 218.863 357.624C219.147 357.453 219.517 357.344 219.975 357.296C220.213 357.27 220.405 357.27 220.548 357.296C220.689 357.301 220.814 357.338 220.922 357.407C221.012 357.498 221.096 357.63 221.174 357.803C221.233 357.978 221.289 358.223 221.342 358.539C221.42 358.893 221.504 359.407 221.595 360.081C221.688 360.776 221.802 361.669 221.937 362.76C222.052 363.854 222.201 365.176 222.384 366.725C222.549 368.297 222.742 370.137 222.964 372.245C223.05 373.061 223.033 373.857 222.913 374.633C222.796 375.43 222.509 376.144 222.052 376.775C221.598 377.426 220.952 377.977 220.114 378.427C219.257 378.879 218.142 379.177 216.77 379.321C215.795 379.424 214.839 379.414 213.901 379.291C212.943 379.17 212.078 378.879 211.305 378.417C210.533 377.956 209.88 377.29 209.346 376.421C208.812 375.552 208.473 374.432 208.329 373.059C208.136 371.229 208.385 369.765 209.074 368.667C209.745 367.591 210.745 366.772 212.073 366.21L207.498 361.141C207.09 360.701 206.86 360.233 206.808 359.735C206.766 359.337 206.873 359.015 207.128 358.766C207.362 358.501 207.677 358.347 208.075 358.305C208.513 358.259 208.903 358.339 209.247 358.544C209.592 358.769 209.925 359.066 210.245 359.434L215.269 365.331ZM211.315 372.775C211.46 374.148 211.984 375.118 212.888 375.687C213.775 376.278 215.113 376.479 216.904 376.291C217.56 376.222 218.101 376.104 218.526 375.939C218.953 375.794 219.28 375.558 219.507 375.233C219.734 374.907 219.879 374.47 219.942 373.92C219.987 373.392 219.967 372.721 219.881 371.905C219.821 371.329 219.75 370.652 219.668 369.877C219.587 369.101 219.503 368.396 219.416 367.761C218.956 367.79 218.448 367.833 217.891 367.891C217.314 367.952 216.777 368.008 216.28 368.061C215.723 368.119 215.139 368.211 214.529 368.335C213.901 368.482 213.333 368.722 212.825 369.057C212.319 369.412 211.916 369.877 211.614 370.452C211.315 371.046 211.215 371.821 211.315 372.775Z" fill="white"/>
<path d="M174.542 358.828C174.691 359.326 174.852 359.896 175.026 360.538C175.178 361.198 175.347 361.889 175.532 362.612C176.131 362.655 176.759 362.701 177.418 362.75C178.074 362.819 178.741 362.889 179.417 362.96C180.272 363.05 181.048 363.132 181.744 363.205C182.44 363.278 183.076 363.355 183.65 363.436C183.962 362.764 184.26 362.132 184.544 361.538C184.827 360.945 185.094 360.42 185.343 359.963C185.847 358.991 186.477 358.544 187.233 358.624C187.512 358.653 187.771 358.771 188.01 358.977C188.23 359.181 188.322 359.452 188.287 359.79C188.251 360.128 188.146 360.56 187.97 361.084C187.792 361.629 187.581 362.2 187.337 362.797C187.072 363.413 186.795 364.037 186.507 364.671C186.217 365.324 185.942 365.929 185.683 366.485C185.417 367.1 185.054 367.877 184.593 368.814C184.111 369.768 183.604 370.761 183.074 371.791C182.543 372.821 182.015 373.831 181.488 374.822C180.96 375.832 180.486 376.707 180.066 377.448C179.966 377.638 179.843 377.846 179.699 378.073C179.552 378.319 179.388 378.543 179.206 378.745C179.004 378.945 178.795 379.114 178.579 379.252C178.344 379.388 178.097 379.443 177.838 379.416C177.58 379.388 177.35 379.274 177.15 379.072C176.948 378.89 176.78 378.671 176.646 378.415C176.492 378.158 176.369 377.894 176.277 377.623C176.165 377.349 176.08 377.109 176.021 376.902C175.786 376.073 175.525 375.12 175.235 374.044C174.926 372.966 174.628 371.879 174.341 370.783C174.035 369.685 173.752 368.639 173.495 367.647C173.237 366.655 173.033 365.819 172.883 365.139C172.765 364.544 172.631 363.906 172.481 363.227C172.311 362.545 172.161 361.876 172.029 361.219C171.897 360.561 171.8 359.948 171.739 359.378C171.657 358.827 171.633 358.382 171.668 358.044C171.704 357.705 171.86 357.46 172.138 357.309C172.395 357.155 172.663 357.092 172.942 357.122C173.3 357.159 173.615 357.313 173.889 357.583C174.16 357.873 174.378 358.288 174.542 358.828ZM179.133 365.947C178.656 365.897 178.179 365.837 177.704 365.767C177.227 365.717 176.75 365.656 176.275 365.586C176.441 366.308 176.606 367.029 176.772 367.75C176.937 368.471 177.096 369.162 177.248 369.821C177.38 370.479 177.507 371.085 177.63 371.641C177.73 372.215 177.818 372.717 177.894 373.147C177.946 373.414 178.014 373.632 178.096 373.802C178.179 373.971 178.3 374.064 178.459 374.081C178.618 374.098 178.757 374.022 178.875 373.853C178.991 373.705 179.103 373.505 179.21 373.255C179.534 372.465 179.984 371.436 180.56 370.169C181.113 368.92 181.704 367.605 182.332 366.223C181.793 366.186 181.255 366.14 180.718 366.083C180.178 366.047 179.65 366.001 179.133 365.947Z" fill="white"/>
<path d="M137.787 366.747C138.332 366.882 138.912 367.038 139.527 367.217C140.123 367.39 140.785 367.584 141.514 367.8C141.662 367.28 141.801 366.789 141.93 366.326C142.053 365.882 142.179 365.429 142.308 364.967C142.438 364.504 142.583 364.025 142.743 363.531C142.885 363.03 143.055 362.475 143.253 361.867C143.531 361.011 143.8 360.183 144.059 359.384C144.313 358.605 144.579 357.818 144.857 357.026C145.13 356.252 145.405 355.469 145.684 354.676C145.962 353.883 146.26 353.065 146.576 352.222C146.743 351.771 146.905 351.435 147.061 351.212C147.199 350.983 147.346 350.821 147.504 350.725C147.661 350.629 147.819 350.596 147.977 350.627C148.142 350.638 148.319 350.675 148.509 350.736C148.852 350.848 149.11 351.057 149.283 351.366C149.431 351.688 149.397 352.244 149.181 353.037C148.997 353.734 148.791 354.466 148.562 355.233C148.315 355.994 148.059 356.815 147.794 357.696C147.528 358.577 147.232 359.522 146.905 360.53C146.571 361.557 146.203 362.689 145.801 363.925C145.461 364.971 145.165 365.884 144.911 366.664C144.639 367.438 144.391 368.104 144.168 368.662L145.337 369.042C146.136 369.302 146.818 369.534 147.382 369.738C147.928 369.936 148.369 370.132 148.706 370.326C149.036 370.538 149.256 370.767 149.365 371.013C149.456 371.253 149.445 371.544 149.334 371.886C149.278 372.058 149.21 372.203 149.129 372.324C149.041 372.464 148.912 372.569 148.742 372.64C148.566 372.73 148.351 372.776 148.098 372.778C147.826 372.774 147.494 372.729 147.101 372.643C146.733 372.545 146.404 372.459 146.112 372.385C145.821 372.311 145.529 372.238 145.238 372.164C144.946 372.09 144.648 372.004 144.344 371.905C144.04 371.806 143.688 371.692 143.288 371.562C142.166 371.198 141.113 370.845 140.131 370.505C139.129 370.158 138.076 369.774 136.972 369.352C136.528 369.166 136.195 368.994 135.972 368.838C135.743 368.701 135.581 368.553 135.485 368.396C135.389 368.238 135.356 368.081 135.386 367.922C135.398 367.758 135.434 367.58 135.496 367.39C135.607 367.048 135.824 366.803 136.145 366.655C136.448 366.501 136.995 366.531 137.787 366.747Z" fill="white"/>
<path d="M104.223 350.591C104.728 350.836 105.263 351.11 105.827 351.413C106.374 351.706 106.982 352.033 107.65 352.396C107.903 351.918 108.14 351.467 108.363 351.041C108.576 350.633 108.793 350.216 109.016 349.79C109.239 349.364 109.48 348.926 109.74 348.476C109.983 348.016 110.264 347.508 110.584 346.954C111.034 346.175 111.469 345.421 111.889 344.694C112.299 343.984 112.723 343.27 113.16 342.552C113.587 341.852 114.02 341.143 114.457 340.426C114.894 339.708 115.355 338.97 115.84 338.211C116.097 337.805 116.326 337.509 116.525 337.324C116.707 337.129 116.885 337.001 117.059 336.94C117.233 336.878 117.394 336.879 117.542 336.942C117.701 336.987 117.867 337.06 118.04 337.16C118.352 337.34 118.56 337.599 118.665 337.937C118.743 338.282 118.595 338.819 118.219 339.55C117.894 340.193 117.54 340.866 117.157 341.569C116.757 342.262 116.336 343.012 115.893 343.818C115.45 344.625 114.964 345.488 114.434 346.406C113.894 347.341 113.299 348.371 112.649 349.497C112.099 350.45 111.619 351.281 111.209 351.991C110.782 352.692 110.401 353.291 110.066 353.791L111.131 354.406C111.859 354.826 112.477 355.195 112.987 355.512C113.479 355.819 113.87 356.103 114.159 356.362C114.438 356.639 114.606 356.908 114.661 357.172C114.7 357.425 114.629 357.707 114.449 358.019C114.359 358.175 114.262 358.304 114.157 358.405C114.043 358.523 113.895 358.6 113.714 358.634C113.522 358.685 113.303 358.685 113.055 358.634C112.79 358.574 112.474 358.461 112.108 358.295C111.768 358.123 111.464 357.97 111.194 357.837C110.924 357.705 110.655 357.572 110.385 357.439C110.115 357.306 109.842 357.16 109.564 357C109.287 356.84 108.967 356.655 108.603 356.445C107.581 355.855 106.625 355.291 105.734 354.754C104.826 354.207 103.876 353.612 102.884 352.97C102.489 352.696 102.198 352.459 102.013 352.259C101.818 352.077 101.69 351.899 101.628 351.726C101.567 351.552 101.568 351.39 101.631 351.242C101.676 351.083 101.749 350.917 101.849 350.744C102.029 350.432 102.291 350.238 102.636 350.16C102.964 350.072 103.493 350.216 104.223 350.591Z" fill="white"/>
<path d="M85.0508 314.598C84.8782 315.088 84.6737 315.644 84.4372 316.266C84.1724 316.888 83.9025 317.547 83.6273 318.241C84.0866 318.628 84.5681 319.034 85.072 319.461C85.5625 319.903 86.0604 320.351 86.5657 320.806C87.2048 321.382 87.7845 321.903 88.3047 322.372C88.8249 322.84 89.2938 323.276 89.7114 323.679C90.3582 323.319 90.9707 322.983 91.5491 322.669C92.1274 322.356 92.6515 322.087 93.1213 321.865C94.1011 321.374 94.8734 321.383 95.4382 321.892C95.6463 322.079 95.7867 322.327 95.8595 322.634C95.9174 322.929 95.8326 323.202 95.6051 323.455C95.3776 323.708 95.0386 323.994 94.5881 324.315C94.1242 324.651 93.6179 324.989 93.0693 325.33C92.4924 325.672 91.9014 326.014 91.2963 326.357C90.6778 326.715 90.1002 327.043 89.5635 327.34C88.9866 327.682 88.2365 328.097 87.3132 328.584C86.3617 329.073 85.3685 329.578 84.3338 330.1C83.299 330.621 82.2776 331.128 81.2696 331.62C80.2482 332.127 79.3502 332.556 78.5756 332.908C78.3823 333.003 78.1608 333.1 77.911 333.198C77.6479 333.311 77.3832 333.395 77.1171 333.452C76.8361 333.495 76.5678 333.509 76.3121 333.494C76.0416 333.466 75.8097 333.365 75.6165 333.191C75.4232 333.017 75.3051 332.789 75.2621 332.508C75.2056 332.242 75.1983 331.966 75.2399 331.681C75.2668 331.382 75.3226 331.096 75.4074 330.822C75.4773 330.536 75.5495 330.291 75.6238 330.089C75.9213 329.28 76.2694 328.356 76.668 327.315C77.0518 326.261 77.4497 325.207 77.8617 324.151C78.2589 323.082 78.6449 322.071 79.0197 321.117C79.3946 320.162 79.721 319.366 79.9992 318.729C80.2535 318.177 80.5197 317.583 80.7979 316.945C81.0611 316.294 81.3326 315.664 81.6122 315.054C81.8918 314.445 82.1744 313.892 82.4599 313.395C82.7172 312.9 82.9596 312.526 83.1871 312.274C83.4146 312.021 83.6852 311.915 83.9989 311.955C84.2977 311.982 84.5511 312.089 84.7592 312.276C85.0267 312.517 85.1917 312.827 85.254 313.206C85.303 313.6 85.2352 314.064 85.0508 314.598ZM84.5806 323.056C84.2239 322.734 83.8739 322.406 83.5306 322.07C83.1739 321.749 82.8238 321.42 82.4805 321.084C82.1905 321.765 81.9004 322.446 81.6104 323.126C81.3204 323.807 81.043 324.459 80.7782 325.082C80.4986 325.691 80.245 326.257 80.0175 326.778C79.7616 327.302 79.5378 327.76 79.346 328.152C79.2314 328.399 79.1578 328.615 79.125 328.801C79.0923 328.987 79.1354 329.133 79.2543 329.24C79.3732 329.347 79.53 329.367 79.7248 329.3C79.9062 329.248 80.1136 329.153 80.347 329.013C81.074 328.564 82.0427 327.996 83.2529 327.31C84.4349 326.625 85.686 325.908 87.0063 325.159C86.5916 324.812 86.1836 324.459 85.7823 324.097C85.3676 323.751 84.9671 323.404 84.5806 323.056Z" fill="white"/>
<path d="M64.2858 289.52C63.95 290.555 63.6047 291.56 63.2499 292.534C62.8671 293.505 62.449 294.562 61.9956 295.708C61.5304 296.837 61.035 298.111 60.5094 299.532C59.9558 300.947 59.3323 302.624 58.6388 304.562C59.8523 303.68 60.9445 302.887 61.9153 302.181C62.8699 301.488 63.7657 300.849 64.6027 300.266C65.4396 299.682 66.2281 299.134 66.9679 298.622C67.7078 298.109 68.4535 297.604 69.2052 297.107C69.6053 296.841 69.934 296.664 70.1913 296.576C70.437 296.472 70.6517 296.427 70.8355 296.442C71.0193 296.457 71.1663 296.523 71.2765 296.641C71.3911 296.731 71.5072 296.856 71.6248 297.018C71.8364 297.309 71.9157 297.623 71.8626 297.958C71.7933 298.305 71.4387 298.735 70.7988 299.25C69.0778 300.624 67.3332 301.965 65.5651 303.275C63.7691 304.58 61.9164 305.926 60.0072 307.313C58.9231 308.101 58.0677 308.71 57.4411 309.14C56.8028 309.555 56.3005 309.833 55.9343 309.975C55.5563 310.102 55.274 310.121 55.0873 310.035C54.8888 309.931 54.6955 309.751 54.5075 309.492C54.3194 309.233 54.2747 308.746 54.3736 308.031C54.4563 307.329 54.639 306.491 54.9218 305.519C55.2046 304.548 55.561 303.473 55.9909 302.295C56.4091 301.102 56.8574 299.898 57.3358 298.685C57.8143 297.472 58.3023 296.29 58.7999 295.137C59.2857 293.968 59.7258 292.907 60.1204 291.953C59.3717 292.522 58.5442 293.135 57.6381 293.793C56.7159 294.463 55.6965 295.204 54.5801 296.015C53.3018 296.944 52.2442 297.7 51.4073 298.283C50.5541 298.878 49.8613 299.32 49.3289 299.608C48.7847 299.88 48.3568 300.005 48.045 299.984C47.7333 299.964 47.4717 299.808 47.2601 299.516C47.0602 299.241 46.9729 298.934 46.998 298.594C47.0232 298.255 47.3476 297.834 47.9713 297.331C48.5303 296.875 49.0304 296.475 49.4717 296.13C49.913 295.784 50.3543 295.439 50.7956 295.094C51.2207 294.76 51.676 294.417 52.1614 294.064C52.6306 293.723 53.1646 293.335 53.7633 292.9C54.4914 292.371 55.1871 291.866 55.8505 291.384C56.5139 290.902 57.1751 290.434 57.8341 289.98C58.493 289.526 59.1601 289.066 59.8352 288.6C60.5104 288.134 61.2238 287.653 61.9754 287.156C62.3755 286.89 62.7042 286.713 62.9616 286.625C63.2072 286.521 63.4219 286.476 63.6057 286.491C63.7895 286.506 63.9365 286.572 64.0467 286.69C64.1614 286.78 64.2775 286.905 64.395 287.067C64.5949 287.342 64.6844 287.636 64.6637 287.947C64.643 288.259 64.517 288.783 64.2858 289.52Z" fill="white"/>
<path d="M47.7858 258.72C47.4286 259.098 47.0157 259.523 46.5469 259.994C46.0517 260.456 45.5373 260.947 45.0035 261.47C45.2658 262.01 45.5404 262.577 45.8271 263.172C46.0955 263.775 46.368 264.387 46.6446 265.008C46.9944 265.794 47.3117 266.506 47.5964 267.146C47.8811 267.785 48.1323 268.374 48.3499 268.912C49.087 268.846 49.7835 268.788 50.4394 268.737C51.0953 268.686 51.6831 268.654 52.203 268.641C53.2975 268.592 53.9993 268.914 54.3084 269.609C54.4223 269.864 54.4499 270.148 54.3912 270.458C54.3244 270.751 54.1357 270.966 53.8251 271.104C53.5145 271.243 53.0881 271.367 52.546 271.477C51.9856 271.595 51.3856 271.698 50.746 271.786C50.08 271.863 49.4007 271.936 48.7083 272.003C47.9976 272.079 47.3367 272.143 46.7255 272.197C46.0595 272.274 45.2056 272.348 44.1639 272.418C43.0958 272.477 41.983 272.535 40.8255 272.59C39.6681 272.646 38.5289 272.693 37.408 272.733C36.2688 272.78 35.2738 272.807 34.4229 272.814C34.2077 272.822 33.966 272.82 33.698 272.808C33.4116 272.804 33.1354 272.774 32.8694 272.717C32.5952 272.642 32.3443 272.546 32.1168 272.429C31.8812 272.293 31.7105 272.106 31.6047 271.868C31.499 271.631 31.4836 271.375 31.5585 271.101C31.6152 270.835 31.7206 270.58 31.8748 270.336C32.0208 270.074 32.1882 269.835 32.3769 269.62C32.5575 269.386 32.7229 269.192 32.8731 269.038C33.4737 268.42 34.1678 267.717 34.9552 266.929C35.7344 266.122 36.5269 265.32 37.3326 264.524C38.1301 263.709 38.8941 262.942 39.6247 262.222C40.3553 261.503 40.9773 260.909 41.4908 260.439C41.9474 260.039 42.4325 259.604 42.9459 259.135C43.4512 258.647 43.9556 258.182 44.4589 257.739C44.9622 257.295 45.4453 256.905 45.908 256.568C46.3444 256.22 46.7179 255.977 47.0285 255.839C47.3391 255.701 47.6295 255.714 47.8997 255.878C48.1617 256.024 48.3497 256.225 48.4636 256.481C48.61 256.81 48.6346 257.16 48.5374 257.532C48.4219 257.912 48.1714 258.308 47.7858 258.72ZM43.9162 266.256C43.7209 265.817 43.5348 265.375 43.3579 264.928C43.1626 264.489 42.9765 264.047 42.7996 263.6C42.2577 264.104 41.7159 264.608 41.174 265.112C40.6321 265.616 40.1136 266.099 39.6184 266.56C39.1151 267.003 38.6534 267.417 38.2333 267.801C37.7868 268.175 37.3961 268.502 37.0612 268.782C36.8562 268.961 36.701 269.129 36.5955 269.285C36.49 269.442 36.4698 269.593 36.5349 269.739C36.5999 269.885 36.735 269.967 36.9401 269.985C37.127 270.012 37.3554 270.009 37.6255 269.976C38.4722 269.862 39.588 269.737 40.9728 269.602C42.3313 269.457 43.7659 269.311 45.2766 269.164C45.0387 268.678 44.8099 268.189 44.5903 267.696C44.3524 267.211 44.1277 266.731 43.9162 266.256Z" fill="white"/>
</svg>
