<svg width="360" height="721" viewBox="0 0 360 721" fill="none" xmlns="http://www.w3.org/2000/svg">
<path d="M358.295 166.327C359.239 166.327 360 167.086 360 168.03V247.191C360 248.135 359.239 248.896 358.295 248.896H345.164C344.22 248.896 343.459 248.135 343.459 247.191V168.03C343.459 167.086 344.22 166.327 345.164 166.327H358.295Z" fill="black"/>
<mask id="mask0_43_11" style="mask-type:luminance" maskUnits="userSpaceOnUse" x="343" y="166" width="17" height="83">
<path d="M358.295 166.327C359.239 166.327 360 167.086 360 168.03V247.191C360 248.135 359.239 248.896 358.295 248.896H345.164C344.22 248.896 343.459 248.135 343.459 247.191V168.03C343.459 167.086 344.22 166.327 345.164 166.327H358.295Z" fill="white"/>
</mask>
<g mask="url(#mask0_43_11)">
<g filter="url(#filter0_f_43_11)">
<path d="M357.932 167.847C358.774 167.847 359.452 168.525 359.452 169.367V245.856C359.452 246.697 358.774 247.375 357.932 247.375H357.46V167.847H357.932Z" fill="url(#paint0_linear_43_11)"/>
</g>
</g>
<path d="M14.8366 96.9736H1.70463C0.76319 96.9736 0 97.7368 0 98.6783V123.301C0 124.242 0.76319 125.005 1.70463 125.005H14.8366C15.7781 125.005 16.5412 124.242 16.5412 123.301V98.6783C16.5412 97.7368 15.7781 96.9736 14.8366 96.9736Z" fill="black"/>
<mask id="mask1_43_11" style="mask-type:luminance" maskUnits="userSpaceOnUse" x="0" y="96" width="17" height="30">
<path d="M14.8366 96.9736H1.70463C0.76319 96.9736 0 97.7368 0 98.6783V123.301C0 124.242 0.76319 125.005 1.70463 125.005H14.8366C15.7781 125.005 16.5412 124.242 16.5412 123.301V98.6783C16.5412 97.7368 15.7781 96.9736 14.8366 96.9736Z" fill="white"/>
</mask>
<g mask="url(#mask1_43_11)">
<g filter="url(#filter1_f_43_11)">
<path d="M2.0675 98.4944C1.2256 98.4944 0.547974 99.172 0.547974 100.014V121.965C0.547974 122.807 1.2256 123.485 2.0675 123.485H2.54016V98.4944H2.0675Z" fill="url(#paint1_linear_43_11)"/>
</g>
</g>
<path d="M1.70508 149.25C0.760712 149.25 0 150.009 0 150.953V199.757C0 200.701 0.760712 201.462 1.70508 201.462H14.8359C15.7803 201.462 16.541 200.701 16.541 199.757V150.953C16.541 150.009 15.7803 149.25 14.8359 149.25H1.70508Z" fill="black"/>
<mask id="mask2_43_11" style="mask-type:luminance" maskUnits="userSpaceOnUse" x="0" y="149" width="17" height="53">
<path d="M1.70508 149.25C0.760712 149.25 0 150.009 0 150.953V199.757C0 200.701 0.760712 201.462 1.70508 201.462H14.8359C15.7803 201.462 16.541 200.701 16.541 199.757V150.953C16.541 150.009 15.7803 149.25 14.8359 149.25H1.70508Z" fill="white"/>
</mask>
<g mask="url(#mask2_43_11)">
<g filter="url(#filter2_f_43_11)">
<path d="M2.0675 150.77C1.2256 150.77 0.547974 151.448 0.547974 152.29V198.421C0.547974 199.263 1.2256 199.941 2.0675 199.941H2.54016V150.77H2.0675Z" fill="url(#paint2_linear_43_11)"/>
</g>
</g>
<path d="M1.70508 214.91C0.760712 214.91 0 215.669 0 216.613V265.417C0 266.361 0.760712 267.122 1.70508 267.122H14.8359C15.7803 267.122 16.541 266.361 16.541 265.417V216.613C16.541 215.669 15.7803 214.91 14.8359 214.91H1.70508Z" fill="black"/>
<mask id="mask3_43_11" style="mask-type:luminance" maskUnits="userSpaceOnUse" x="0" y="214" width="17" height="54">
<path d="M1.70508 214.91C0.760712 214.91 0 215.669 0 216.613V265.417C0 266.361 0.760712 267.122 1.70508 267.122H14.8359C15.7803 267.122 16.541 266.361 16.541 265.417V216.613C16.541 215.669 15.7803 214.91 14.8359 214.91H1.70508Z" fill="white"/>
</mask>
<g mask="url(#mask3_43_11)">
<g filter="url(#filter3_f_43_11)">
<path d="M2.0675 216.43C1.2256 216.43 0.547974 217.108 0.547974 217.949V264.081C0.547974 264.923 1.2256 265.601 2.0675 265.601H2.54016V216.43H2.0675Z" fill="url(#paint3_linear_43_11)"/>
</g>
</g>
<path d="M54.7402 0C25.4998 0 1.96094 23.5389 1.96094 52.7793V667.457C1.96094 696.697 25.4998 720.238 54.7402 720.238H161.703L163.889 717.141H171.646H188.353H196.109L198.297 720.238H305.26C334.5 720.238 358.039 696.697 358.039 667.457V52.7793C358.039 23.5389 334.5 0 305.26 0H54.7402Z" fill="black"/>
<path d="M3.16211 74.1816H7.32809V69.2578H3.16211V74.1816Z" fill="#7D7E7F"/>
<path d="M3.16211 646.307H7.32809V74.1816H3.16211V646.307Z" fill="#EBEBEB"/>
<path d="M3.16211 651.232H7.32809V646.307H3.16211V651.232Z" fill="#7D7E7F"/>
<path d="M356.838 651.232H352.672V667.709C352.672 694.291 331.272 715.691 304.689 715.691H55.3105C28.7284 715.691 7.32809 694.291 7.32809 667.709V651.232H3.16211V665.529C3.16211 695.208 27.0558 719.102 56.7343 719.102H303.266C332.944 719.102 356.838 695.208 356.838 665.529V651.232Z" fill="#EBEBEB"/>
<path d="M356.838 646.307H352.672V651.232H356.838V646.307Z" fill="#7D7E7F"/>
<path d="M356.838 74.1816H352.672V646.307H356.838V74.1816Z" fill="#EBEBEB"/>
<path d="M356.838 69.2578H352.672V74.1816H356.838V69.2578Z" fill="#7D7E7F"/>
<path d="M56.7343 1.51367C27.0558 1.51367 3.16211 25.4074 3.16211 55.0859V69.2578H7.32809V53.4726C7.32809 26.8905 28.7284 5.49219 55.3105 5.49219H304.689C331.272 5.49219 352.672 26.8905 352.672 53.4726V69.2578H356.838V55.0859C356.838 25.4074 332.944 1.51367 303.266 1.51367H56.7343Z" fill="#EBEBEB"/>
<mask id="mask4_43_11" style="mask-type:luminance" maskUnits="userSpaceOnUse" x="3" y="1" width="354" height="718">
<path d="M56.7344 1.26172C27.0558 1.26172 3.16211 25.1554 3.16211 54.834V665.277C3.16211 694.956 27.0558 718.849 56.7344 718.849H303.266C332.944 718.849 356.838 694.956 356.838 665.277V54.834C356.838 25.1554 332.944 1.26172 303.266 1.26172H56.7344ZM55.3106 5.24023H304.689C331.272 5.24023 352.672 26.6385 352.672 53.2207V667.457C352.672 694.039 331.272 715.439 304.689 715.439H55.3106C28.7284 715.439 7.32813 694.039 7.32813 667.457V53.2207C7.32813 26.6385 28.7284 5.24023 55.3106 5.24023Z" fill="white"/>
</mask>
<g mask="url(#mask4_43_11)">
<g filter="url(#filter4_f_43_11)">
<path fill-rule="evenodd" clip-rule="evenodd" d="M37.9238 10.8281C31.337 10.6602 18.7832 12.654 5.89257 27.1406C-12.8574 48.212 3.92773 35.5332 3.92773 35.5332C3.92773 35.5332 15.4461 17.6769 31.5176 15.3554C47.589 13.034 42.6777 11.4257 42.6777 11.4257C42.6777 11.4257 40.9178 10.9044 37.9238 10.8281ZM322.076 10.8281C319.082 10.9044 317.322 11.4257 317.322 11.4257C317.322 11.4257 312.411 13.034 328.482 15.3554C344.554 17.6769 356.072 35.5332 356.072 35.5332C356.072 35.5332 372.857 48.212 354.107 27.1406C341.217 12.654 328.663 10.6602 322.076 10.8281ZM-2.43946 681.189C-3.87774 681.017 -2.89649 683.478 5.89257 693.355C24.6426 714.427 42.6777 709.07 42.6777 709.07C42.6777 709.07 47.589 707.462 31.5176 705.141C15.4461 702.819 3.92773 684.963 3.92773 684.963C3.92773 684.963 -0.809412 681.385 -2.43946 681.189ZM362.439 681.189C360.809 681.385 356.072 684.963 356.072 684.963C356.072 684.963 344.554 702.819 328.482 705.141C312.411 707.462 317.322 709.07 317.322 709.07C317.322 709.07 335.357 714.427 354.107 693.355C362.896 683.478 363.878 681.017 362.439 681.189Z" fill="#434343"/>
</g>
</g>
<path d="M325.152 14.6114C323.978 14.4951 324.532 15.6661 327.168 18.1075C335.864 26.1626 341.263 37.8216 341.263 50.7989V360.371V669.943C341.263 682.921 335.864 694.58 327.168 702.635C324.532 705.076 323.978 706.247 325.152 706.131C325.857 706.061 327.184 705.528 329.056 704.529C341.766 697.749 349.146 683.121 349.146 667.584V360.371V53.1583C349.146 37.6215 341.766 22.9933 329.056 16.213C327.184 15.2142 325.857 14.6812 325.152 14.6114Z" fill="url(#paint4_linear_43_11)"/>
<path d="M34.8479 14.6114C36.0225 14.4951 35.468 15.6661 32.8323 18.1075C24.1361 26.1626 18.7366 37.8216 18.7366 50.7989V360.371V669.943C18.7366 682.921 24.1361 694.58 32.8323 702.635C35.468 705.076 36.0225 706.247 34.8479 706.131C34.1432 706.061 32.8157 705.528 30.9436 704.529C18.2341 697.749 10.8538 683.121 10.8538 667.584V360.371V53.1583C10.8538 37.6215 18.2341 22.9933 30.9436 16.213C32.8157 15.2142 34.1432 14.6812 34.8479 14.6114Z" fill="url(#paint5_linear_43_11)"/>
<path d="M199.062 26.6943H161.563C160.059 26.6943 158.839 27.9136 158.839 29.4176C158.839 30.9215 160.059 32.1408 161.563 32.1408H199.062C200.566 32.1408 201.786 30.9215 201.786 29.4176C201.786 27.9136 200.566 26.6943 199.062 26.6943Z" fill="#1E1E1E"/>
<path d="M218.891 34.1498C221.698 34.1498 223.973 31.8743 223.973 29.0674C223.973 26.2605 221.698 23.9851 218.891 23.9851C216.084 23.9851 213.809 26.2605 213.809 29.0674C213.809 31.8743 216.084 34.1498 218.891 34.1498Z" fill="#2B2B2B"/>
<path d="M218.891 33.1397C221.14 33.1397 222.963 31.3165 222.963 29.0675C222.963 26.8185 221.14 24.9954 218.891 24.9954C216.642 24.9954 214.819 26.8185 214.819 29.0675C214.819 31.3165 216.642 33.1397 218.891 33.1397Z" fill="#0A0D13"/>
<path d="M218.891 32.1702C220.604 32.1702 221.994 30.7811 221.994 29.0675C221.994 27.354 220.604 25.9648 218.891 25.9648C217.177 25.9648 215.788 27.354 215.788 29.0675C215.788 30.7811 217.177 32.1702 218.891 32.1702Z" fill="#091427"/>
<g filter="url(#filter5_f_43_11)">
<path fill-rule="evenodd" clip-rule="evenodd" d="M216.755 26.9917C216.387 27.0304 215.864 27.592 215.826 28.6958C215.787 29.7995 216.271 30.3998 216.542 30.3998C216.813 30.3998 217.936 28.7926 216.755 26.9917Z" fill="#235A91" fill-opacity="0.556075"/>
</g>
<g filter="url(#filter6_f_43_11)">
<path fill-rule="evenodd" clip-rule="evenodd" d="M219.397 26.6052C218.817 26.7837 218.705 27.7212 218.728 28.2569C218.75 28.7927 219.509 30.1989 220.424 29.8864C221.339 29.5739 221.496 28.4132 221.116 27.6319C220.737 26.8507 220.045 26.2927 219.397 26.6052Z" fill="#235A91" fill-opacity="0.556075"/>
</g>
<path d="M152.091 29.5358C152.091 30.593 151.672 31.607 150.926 32.3559C150.18 33.1048 149.168 33.5274 148.111 33.5313C147.053 33.5352 146.038 33.12 145.286 32.3766C144.535 31.6333 144.108 30.6223 144.1 29.5652C144.093 28.5081 144.504 27.491 145.245 26.7367C145.985 25.9823 146.995 25.5522 148.052 25.5405C149.109 25.5289 150.127 25.9366 150.884 26.6744C151.642 27.4122 152.075 28.42 152.091 29.477L148.096 29.5358H152.091Z" fill="#0F0F0F"/>
<path d="M129.433 29.6297C129.433 31.199 128.801 32.7043 127.676 33.8159C126.55 34.9276 125.023 35.5551 123.428 35.5608C121.834 35.5666 120.302 34.9503 119.168 33.8468C118.035 32.7433 117.391 31.2426 117.38 29.6733C117.368 28.1041 117.989 26.5943 119.106 25.4745C120.223 24.3547 121.745 23.7162 123.34 23.6988C124.934 23.6815 126.471 24.2868 127.613 25.382C128.755 26.4773 129.409 27.9733 129.432 29.5424L123.406 29.6297H129.433Z" fill="#101010"/>
<path d="M55.2721 8.98901C46.5846 8.98901 38.503 11.4737 31.6803 15.7624V21.4499C38.1825 17.1849 45.9671 14.7019 54.358 14.7019H154.182H206.323H306.147C314.538 14.7019 322.323 17.1849 328.825 21.4499V15.7624C322.002 11.4737 313.921 8.98901 305.233 8.98901H206.323H154.182H55.2721Z" fill="url(#paint6_linear_43_11)"/>
<path d="M55.2721 711.249C46.5846 711.249 38.503 708.765 31.6803 704.476V698.788C38.1825 703.053 45.9671 705.536 54.358 705.536H154.182H206.323H306.147C314.538 705.536 322.323 703.053 328.825 698.788V704.476C322.002 708.765 313.921 711.249 305.233 711.249H206.323H154.182H55.2721Z" fill="url(#paint7_linear_43_11)"/>
<path d="M250.953 28.9906C250.953 31.1001 250.107 33.1236 248.602 34.618C247.097 36.1124 245.054 36.9558 242.921 36.9635C240.788 36.9713 238.739 36.1428 237.222 34.6594C235.706 33.176 234.846 31.1587 234.83 29.0493C234.814 26.9398 235.644 24.9102 237.139 23.4049C238.633 21.8996 240.669 21.0414 242.802 21.0181C244.935 20.9948 246.99 21.8084 248.518 23.2807C250.045 24.753 250.92 26.764 250.952 28.8732L242.891 28.9906H250.953Z" fill="#0F0F0F"/>
<defs>
<filter id="filter0_f_43_11" x="356.92" y="167.308" width="3.07148" height="80.6071" filterUnits="userSpaceOnUse" color-interpolation-filters="sRGB">
<feFlood flood-opacity="0" result="BackgroundImageFix"/>
<feBlend mode="normal" in="SourceGraphic" in2="BackgroundImageFix" result="shape"/>
<feGaussianBlur stdDeviation="0.269824" result="effect1_foregroundBlur_43_11"/>
</filter>
<filter id="filter1_f_43_11" x="0.0083254" y="97.9547" width="3.07148" height="26.0695" filterUnits="userSpaceOnUse" color-interpolation-filters="sRGB">
<feFlood flood-opacity="0" result="BackgroundImageFix"/>
<feBlend mode="normal" in="SourceGraphic" in2="BackgroundImageFix" result="shape"/>
<feGaussianBlur stdDeviation="0.269824" result="effect1_foregroundBlur_43_11"/>
</filter>
<filter id="filter2_f_43_11" x="0.0083254" y="150.23" width="3.07148" height="50.25" filterUnits="userSpaceOnUse" color-interpolation-filters="sRGB">
<feFlood flood-opacity="0" result="BackgroundImageFix"/>
<feBlend mode="normal" in="SourceGraphic" in2="BackgroundImageFix" result="shape"/>
<feGaussianBlur stdDeviation="0.269824" result="effect1_foregroundBlur_43_11"/>
</filter>
<filter id="filter3_f_43_11" x="0.0083254" y="215.89" width="3.07148" height="50.25" filterUnits="userSpaceOnUse" color-interpolation-filters="sRGB">
<feFlood flood-opacity="0" result="BackgroundImageFix"/>
<feBlend mode="normal" in="SourceGraphic" in2="BackgroundImageFix" result="shape"/>
<feGaussianBlur stdDeviation="0.269824" result="effect1_foregroundBlur_43_11"/>
</filter>
<filter id="filter4_f_43_11" x="-3.51508" y="10.2864" width="367.03" height="699.925" filterUnits="userSpaceOnUse" color-interpolation-filters="sRGB">
<feFlood flood-opacity="0" result="BackgroundImageFix"/>
<feBlend mode="normal" in="SourceGraphic" in2="BackgroundImageFix" result="shape"/>
<feGaussianBlur stdDeviation="0.266206" result="effect1_foregroundBlur_43_11"/>
</filter>
<filter id="filter5_f_43_11" x="215.589" y="26.7575" width="1.93012" height="3.87662" filterUnits="userSpaceOnUse" color-interpolation-filters="sRGB">
<feFlood flood-opacity="0" result="BackgroundImageFix"/>
<feBlend mode="normal" in="SourceGraphic" in2="BackgroundImageFix" result="shape"/>
<feGaussianBlur stdDeviation="0.117104" result="effect1_foregroundBlur_43_11"/>
</filter>
<filter id="filter6_f_43_11" x="218.491" y="26.2826" width="3.05206" height="3.88272" filterUnits="userSpaceOnUse" color-interpolation-filters="sRGB">
<feFlood flood-opacity="0" result="BackgroundImageFix"/>
<feBlend mode="normal" in="SourceGraphic" in2="BackgroundImageFix" result="shape"/>
<feGaussianBlur stdDeviation="0.117104" result="effect1_foregroundBlur_43_11"/>
</filter>
<linearGradient id="paint0_linear_43_11" x1="357.46" y1="167.847" x2="357.46" y2="247.375" gradientUnits="userSpaceOnUse">
<stop stop-color="#CBCBCB" stop-opacity="0.27451"/>
<stop offset="0.04" stop-color="#CBCBCB"/>
<stop offset="0.96" stop-color="#CBCBCB"/>
<stop offset="1" stop-color="#CBCBCB" stop-opacity="0.275701"/>
</linearGradient>
<linearGradient id="paint1_linear_43_11" x1="2.54016" y1="98.4944" x2="2.54016" y2="123.485" gradientUnits="userSpaceOnUse">
<stop stop-color="#CBCBCB" stop-opacity="0.27451"/>
<stop offset="0.05" stop-color="#CBCBCB"/>
<stop offset="0.95" stop-color="#CBCBCB"/>
<stop offset="1" stop-color="#CBCBCB" stop-opacity="0.275701"/>
</linearGradient>
<linearGradient id="paint2_linear_43_11" x1="2.54016" y1="150.77" x2="2.54016" y2="199.941" gradientUnits="userSpaceOnUse">
<stop stop-color="#CBCBCB" stop-opacity="0.27451"/>
<stop offset="0.05" stop-color="#CBCBCB"/>
<stop offset="0.95" stop-color="#CBCBCB"/>
<stop offset="1" stop-color="#CBCBCB" stop-opacity="0.275701"/>
</linearGradient>
<linearGradient id="paint3_linear_43_11" x1="2.54016" y1="216.43" x2="2.54016" y2="265.601" gradientUnits="userSpaceOnUse">
<stop stop-color="#CBCBCB" stop-opacity="0.27451"/>
<stop offset="0.05" stop-color="#CBCBCB"/>
<stop offset="0.95" stop-color="#CBCBCB"/>
<stop offset="1" stop-color="#CBCBCB" stop-opacity="0.275701"/>
</linearGradient>
<linearGradient id="paint4_linear_43_11" x1="340.224" y1="360.371" x2="349.146" y2="360.371" gradientUnits="userSpaceOnUse">
<stop stop-color="#404040"/>
<stop offset="0.6" stop-color="#838383"/>
<stop offset="1" stop-color="#A7A7A7"/>
</linearGradient>
<linearGradient id="paint5_linear_43_11" x1="19.7758" y1="360.371" x2="10.8538" y2="360.371" gradientUnits="userSpaceOnUse">
<stop stop-color="#404040"/>
<stop offset="0.6" stop-color="#838383"/>
<stop offset="1" stop-color="#A7A7A7"/>
</linearGradient>
<linearGradient id="paint6_linear_43_11" x1="31.6803" y1="21.4499" x2="328.825" y2="21.4499" gradientUnits="userSpaceOnUse">
<stop stop-color="#4F4F4F" stop-opacity="0.130841"/>
<stop offset="0.07" stop-color="#4F4F4F"/>
<stop offset="0.937" stop-color="#4F4F4F" stop-opacity="0.953271"/>
<stop offset="1" stop-color="#4F4F4F" stop-opacity="0"/>
</linearGradient>
<linearGradient id="paint7_linear_43_11" x1="31.6803" y1="698.788" x2="328.825" y2="698.788" gradientUnits="userSpaceOnUse">
<stop stop-color="#4F4F4F" stop-opacity="0.130841"/>
<stop offset="0.07" stop-color="#4F4F4F"/>
<stop offset="0.937" stop-color="#4F4F4F" stop-opacity="0.953271"/>
<stop offset="1" stop-color="#4F4F4F" stop-opacity="0"/>
</linearGradient>
</defs>
</svg>
