<svg width="300" height="300" viewBox="0 0 300 300" fill="none" xmlns="http://www.w3.org/2000/svg">
<circle cx="150" cy="150" r="150" fill="url(#paint0_linear_1_176)"/>
<path d="M73 189.4C73 192.6 72.6667 195.067 72 196.8C71.4667 198.533 70.7333 199.867 69.8 200.8C69 201.733 68 202.267 66.8 202.4C65.7333 202.667 64.6667 202.8 63.6 202.8C60 202.8 57.6 202 56.4 200.4C55.3333 198.8 54.6 195.2 54.2 189.6C53.9333 186.667 53.7333 182.4 53.6 176.8C53.4667 171.2 53.3333 164.533 53.2 156.8C53.2 149.067 53.1333 140.533 53 131.2C53 121.867 53 112 53 101.6C53 96.6666 53.6 91.6666 54.8 86.6C56 81.5333 58.2667 76.9333 61.6 72.8C65.0667 68.6666 69.8 65.3333 75.8 62.8C81.9333 60.2666 89.8667 59 99.6 59C106.4 59 112.867 59.7333 119 61.2C125.133 62.6666 130.533 65.2 135.2 68.8C139.867 72.4 143.6 77.2 146.4 83.2C149.2 89.2 150.6 96.6666 150.6 105.6C150.6 114.933 149.067 122.667 146 128.8C142.933 134.933 138.6 139.8 133 143.4C127.4 147 120.733 149.533 113 151C105.267 152.467 96.8 153.2 87.6 153.2C85.3333 153.2 83.0667 153.2 80.8 153.2C78.5333 153.2 76 153.067 73.2 152.8L73 189.4ZM130.6 105.2C130.6 96.2666 128.067 89.5333 123 85C118.067 80.4666 109.8 78.2 98.2 78.2C93.8 78.2 90 78.6 86.8 79.4C83.7333 80.0666 81.2 81.3333 79.2 83.2C77.2 84.9333 75.6667 87.3333 74.6 90.4C73.6667 93.4666 73.2 97.3333 73.2 102C73.2 106.533 73.2 111.733 73.2 117.6C73.2 123.333 73.2667 128.733 73.4 133.8C76.4667 133.933 79.8667 134 83.6 134C87.4667 134 91.0667 134 94.4 134C98.4 134 102.533 133.733 106.8 133.2C111.2 132.667 115.133 131.467 118.6 129.6C122.067 127.6 124.933 124.733 127.2 121C129.467 117.133 130.6 111.867 130.6 105.2Z" fill="white"/>
<path d="M190.8 242.8C189.467 239.6 188 235.933 186.4 231.8C184.933 227.533 183.333 223.067 181.6 218.4C177.6 218.533 173.4 218.667 169 218.8C164.6 218.8 160.133 218.8 155.6 218.8C149.867 218.8 144.667 218.8 140 218.8C135.333 218.8 131.067 218.733 127.2 218.6C125.6 223.267 124.067 227.667 122.6 231.8C121.133 235.933 119.733 239.6 118.4 242.8C115.733 249.6 111.867 253 106.8 253C104.933 253 103.133 252.4 101.4 251.2C99.8 250 99 248.267 99 246C99 243.733 99.4 240.8 100.2 237.2C101 233.467 102 229.533 103.2 225.4C104.533 221.133 105.933 216.8 107.4 212.4C108.867 207.867 110.267 203.667 111.6 199.8C112.933 195.533 114.8 190.133 117.2 183.6C119.733 176.933 122.4 170 125.2 162.8C128 155.6 130.8 148.533 133.6 141.6C136.4 134.533 138.933 128.4 141.2 123.2C141.733 121.867 142.4 120.4 143.2 118.8C144 117.067 144.933 115.467 146 114C147.2 112.533 148.467 111.267 149.8 110.2C151.267 109.133 152.867 108.6 154.6 108.6C156.333 108.6 157.933 109.2 159.4 110.4C160.867 111.467 162.133 112.8 163.2 114.4C164.4 116 165.4 117.667 166.2 119.4C167.133 121.133 167.867 122.667 168.4 124C170.533 129.333 172.933 135.467 175.6 142.4C178.4 149.333 181.133 156.333 183.8 163.4C186.6 170.467 189.2 177.2 191.6 183.6C194 190 195.933 195.4 197.4 199.8C198.6 203.667 199.933 207.8 201.4 212.2C203 216.6 204.467 220.933 205.8 225.2C207.133 229.467 208.2 233.467 209 237.2C209.933 240.8 210.4 243.733 210.4 246C210.4 248.267 209.533 250 207.8 251.2C206.2 252.4 204.467 253 202.6 253C200.2 253 198 252.2 196 250.6C194 248.867 192.267 246.267 190.8 242.8ZM155.4 198.8C158.6 198.8 161.8 198.867 165 199C168.2 199 171.4 199.067 174.6 199.2C173 194.533 171.4 189.867 169.8 185.2C168.2 180.533 166.667 176.067 165.2 171.8C163.867 167.533 162.6 163.6 161.4 160C160.333 156.267 159.4 153 158.6 150.2C158.067 148.467 157.467 147.067 156.8 146C156.133 144.933 155.267 144.4 154.2 144.4C153.133 144.4 152.267 145 151.6 146.2C150.933 147.267 150.333 148.667 149.8 150.4C148.2 155.867 145.933 163 143 171.8C140.2 180.467 137.2 189.6 134 199.2C137.6 199.067 141.2 199 144.8 199C148.4 198.867 151.933 198.8 155.4 198.8Z" fill="white"/>
<path d="M195 93.8C187.4 89.9333 181.8 86.6666 178.2 84C174.733 81.3333 173 78.6666 173 76C173 74 173.867 72.0666 175.6 70.2C177.333 68.3333 179.267 67.4 181.4 67.4C184.2 67.4 187.6 68.7333 191.6 71.4C195.733 73.9333 199.733 76.8666 203.6 80.2C203.467 79.1333 203.333 77.8666 203.2 76.4C203.2 74.9333 203.2 73.3333 203.2 71.6C203.2 69.3333 203.333 67 203.6 64.6C203.867 62.2 204.4 60 205.2 58C206 56 207.067 54.3333 208.4 53C209.867 51.6666 211.733 51 214 51C216.4 51 218.467 52 220.2 54C221.933 55.8666 222.8 58.9333 222.8 63.2C222.8 65.8666 222.333 68.8 221.4 72C220.6 75.2 219.667 79 218.6 83.4C222.333 81.8 225.4 80.5333 227.8 79.6C230.333 78.6666 232.333 78 233.8 77.6C235.4 77.0666 236.667 76.7333 237.6 76.6C238.533 76.4666 239.467 76.4 240.4 76.4C243.6 76.4 246.133 77.3333 248 79.2C249.867 81.0666 250.8 83.1333 250.8 85.4C250.8 88.6 248.733 91.2 244.6 93.2C240.6 95.0666 233.467 96.6666 223.2 98C225.333 101.6 227.067 104.667 228.4 107.2C229.867 109.6 230.933 111.667 231.6 113.4C232.4 115.133 232.933 116.6 233.2 117.8C233.467 118.867 233.6 119.867 233.6 120.8C233.6 123.2 232.6 125.267 230.6 127C228.6 128.733 226.667 129.6 224.8 129.6C218.267 129.6 212.667 120.867 208 103.4C206.267 105.8 204.4 108.133 202.4 110.4C200.533 112.533 198.6 114.533 196.6 116.4C194.733 118.133 192.867 119.533 191 120.6C189.267 121.667 187.733 122.2 186.4 122.2C184 122.2 182 121.333 180.4 119.6C178.8 117.867 178 116 178 114C178 112.267 178.533 110.533 179.6 108.8C180.667 106.933 182.067 105.2 183.8 103.6C185.533 101.867 187.333 100.2 189.2 98.6C191.2 97 193.133 95.4 195 93.8Z" fill="white"/>
<defs>
<linearGradient id="paint0_linear_1_176" x1="150" y1="-1.52588e-05" x2="150" y2="300" gradientUnits="userSpaceOnUse">
<stop stop-color="#FE8DB6"/>
<stop offset="1" stop-color="#A7EFFE"/>
</linearGradient>
</defs>
</svg>
