<svg width="510" height="512" viewBox="0 0 510 512" fill="none" xmlns="http://www.w3.org/2000/svg">
<g filter="url(#filter0_i_8_65)">
<g clip-path="url(#clip0_8_65)">
<rect x="5.00001" y="6.00024" width="500" height="500" rx="250" fill="white"/>
<g filter="url(#filter1_f_8_65)">
<ellipse cx="935.045" cy="78.5101" rx="737.098" ry="439.177" transform="rotate(-7.31983 935.045 78.5101)" fill="#FFE198"/>
</g>
<g filter="url(#filter2_f_8_65)">
<ellipse cx="-123.213" cy="77.6248" rx="358.638" ry="506.771" transform="rotate(12.0847 -123.213 77.6248)" fill="#FF3278"/>
</g>
<g filter="url(#filter3_f_8_65)">
<ellipse cx="-15.8006" cy="462.995" rx="325.5" ry="64.5" transform="rotate(-31.0146 -15.8006 462.995)" fill="#D015FF"/>
</g>
<g filter="url(#filter4_f_8_65)">
<ellipse cx="217.219" cy="605.863" rx="150.473" ry="297" transform="rotate(49.2498 217.219 605.863)" fill="#5D85FF"/>
</g>
<g filter="url(#filter5_f_8_65)">
<ellipse cx="629.51" cy="460.638" rx="338.823" ry="264.964" transform="rotate(-15.224 629.51 460.638)" fill="#82FFF9"/>
</g>
<g filter="url(#filter6_d_8_65)">
<path d="M156 307.1C156 311.9 155.5 315.6 154.5 318.2C153.7 320.8 152.6 322.8 151.2 324.2C150 325.6 148.5 326.4 146.7 326.6C145.1 327 143.5 327.2 141.9 327.2C136.5 327.2 132.9 326 131.1 323.6C129.5 321.2 128.4 315.8 127.8 307.4C127.4 303 127.1 296.6 126.9 288.2C126.7 279.8 126.5 269.8 126.3 258.2C126.3 246.6 126.2 233.8 126 219.8C126 205.8 126 191 126 175.4C126 168 126.9 160.5 128.7 152.9C130.5 145.3 133.9 138.4 138.9 132.2C144.1 126 151.2 121 160.2 117.2C169.4 113.4 181.3 111.5 195.9 111.5C206.1 111.5 215.8 112.6 225 114.8C234.2 117 242.3 120.8 249.3 126.2C256.3 131.6 261.9 138.8 266.1 147.8C270.3 156.8 272.4 168 272.4 181.4C272.4 195.4 270.1 207 265.5 216.2C260.9 225.4 254.4 232.7 246 238.1C237.6 243.5 227.6 247.3 216 249.5C204.4 251.7 191.7 252.8 177.9 252.8C174.5 252.8 171.1 252.8 167.7 252.8C164.3 252.8 160.5 252.6 156.3 252.2L156 307.1ZM242.4 180.8C242.4 167.4 238.6 157.3 231 150.5C223.6 143.7 211.2 140.3 193.8 140.3C187.2 140.3 181.5 140.9 176.7 142.1C172.1 143.1 168.3 145 165.3 147.8C162.3 150.4 160 154 158.4 158.6C157 163.2 156.3 169 156.3 176C156.3 182.8 156.3 190.6 156.3 199.4C156.3 208 156.4 216.1 156.6 223.7C161.2 223.9 166.3 224 171.9 224C177.7 224 183.1 224 188.1 224C194.1 224 200.3 223.6 206.7 222.8C213.3 222 219.2 220.2 224.4 217.4C229.6 214.4 233.9 210.1 237.3 204.5C240.7 198.7 242.4 190.8 242.4 180.8Z" fill="white"/>
</g>
<g filter="url(#filter7_d_8_65)">
<path d="M335.7 387.7C333.7 382.9 331.5 377.4 329.1 371.2C326.9 364.8 324.5 358.1 321.9 351.1C315.9 351.3 309.6 351.5 303 351.7C296.4 351.7 289.7 351.7 282.9 351.7C274.3 351.7 266.5 351.7 259.5 351.7C252.5 351.7 246.1 351.6 240.3 351.4C237.9 358.4 235.6 365 233.4 371.2C231.2 377.4 229.1 382.9 227.1 387.7C223.1 397.9 217.3 403 209.7 403C206.9 403 204.2 402.1 201.6 400.3C199.2 398.5 198 395.9 198 392.5C198 389.1 198.6 384.7 199.8 379.3C201 373.7 202.5 367.8 204.3 361.6C206.3 355.2 208.4 348.7 210.6 342.1C212.8 335.3 214.9 329 216.9 323.2C218.9 316.8 221.7 308.7 225.3 298.9C229.1 288.9 233.1 278.5 237.3 267.7C241.5 256.9 245.7 246.3 249.9 235.9C254.1 225.3 257.9 216.1 261.3 208.3C262.1 206.3 263.1 204.1 264.3 201.7C265.5 199.1 266.9 196.7 268.5 194.5C270.3 192.3 272.2 190.4 274.2 188.8C276.4 187.2 278.8 186.4 281.4 186.4C284 186.4 286.4 187.3 288.6 189.1C290.8 190.7 292.7 192.7 294.3 195.1C296.1 197.5 297.6 200 298.8 202.6C300.2 205.2 301.3 207.5 302.1 209.5C305.3 217.5 308.9 226.7 312.9 237.1C317.1 247.5 321.2 258 325.2 268.6C329.4 279.2 333.3 289.3 336.9 298.9C340.5 308.5 343.4 316.6 345.6 323.2C347.4 329 349.4 335.2 351.6 341.8C354 348.4 356.2 354.9 358.2 361.3C360.2 367.7 361.8 373.7 363 379.3C364.4 384.7 365.1 389.1 365.1 392.5C365.1 395.9 363.8 398.5 361.2 400.3C358.8 402.1 356.2 403 353.4 403C349.8 403 346.5 401.8 343.5 399.4C340.5 396.8 337.9 392.9 335.7 387.7ZM282.6 321.7C287.4 321.7 292.2 321.8 297 322C301.8 322 306.6 322.1 311.4 322.3C309 315.3 306.6 308.3 304.2 301.3C301.8 294.3 299.5 287.6 297.3 281.2C295.3 274.8 293.4 268.9 291.6 263.5C290 257.9 288.6 253 287.4 248.8C286.6 246.2 285.7 244.1 284.7 242.5C283.7 240.9 282.4 240.1 280.8 240.1C279.2 240.1 277.9 241 276.9 242.8C275.9 244.4 275 246.5 274.2 249.1C271.8 257.3 268.4 268 264 281.2C259.8 294.2 255.3 307.9 250.5 322.3C255.9 322.1 261.3 322 266.7 322C272.1 321.8 277.4 321.7 282.6 321.7Z" fill="white"/>
</g>
<g filter="url(#filter8_d_8_65)">
<path d="M327 147.8C319.4 143.933 313.8 140.667 310.2 138C306.733 135.333 305 132.667 305 130C305 128 305.867 126.067 307.6 124.2C309.333 122.333 311.267 121.4 313.4 121.4C316.2 121.4 319.6 122.733 323.6 125.4C327.733 127.933 331.733 130.867 335.6 134.2C335.467 133.133 335.333 131.867 335.2 130.4C335.2 128.933 335.2 127.333 335.2 125.6C335.2 123.333 335.333 121 335.6 118.6C335.867 116.2 336.4 114 337.2 112C338 110 339.067 108.333 340.4 107C341.867 105.667 343.733 105 346 105C348.4 105 350.467 106 352.2 108C353.933 109.867 354.8 112.933 354.8 117.2C354.8 119.867 354.333 122.8 353.4 126C352.6 129.2 351.667 133 350.6 137.4C354.333 135.8 357.4 134.533 359.8 133.6C362.333 132.667 364.333 132 365.8 131.6C367.4 131.067 368.667 130.733 369.6 130.6C370.533 130.467 371.467 130.4 372.4 130.4C375.6 130.4 378.133 131.333 380 133.2C381.867 135.067 382.8 137.133 382.8 139.4C382.8 142.6 380.733 145.2 376.6 147.2C372.6 149.067 365.467 150.667 355.2 152C357.333 155.6 359.067 158.667 360.4 161.2C361.867 163.6 362.933 165.667 363.6 167.4C364.4 169.133 364.933 170.6 365.2 171.8C365.467 172.867 365.6 173.867 365.6 174.8C365.6 177.2 364.6 179.267 362.6 181C360.6 182.733 358.667 183.6 356.8 183.6C350.267 183.6 344.667 174.867 340 157.4C338.267 159.8 336.4 162.133 334.4 164.4C332.533 166.533 330.6 168.533 328.6 170.4C326.733 172.133 324.867 173.533 323 174.6C321.267 175.667 319.733 176.2 318.4 176.2C316 176.2 314 175.333 312.4 173.6C310.8 171.867 310 170 310 168C310 166.267 310.533 164.533 311.6 162.8C312.667 160.933 314.067 159.2 315.8 157.6C317.533 155.867 319.333 154.2 321.2 152.6C323.2 151 325.133 149.4 327 147.8Z" fill="white"/>
</g>
<path d="M507.934 466.917C506.588 468.756 505.098 469.741 503.466 469.871C502.829 469.929 502.121 469.863 501.344 469.672C500.562 469.454 499.631 469.066 498.551 468.51C497.483 467.937 496.212 467.168 494.737 466.204C493.258 465.211 491.488 463.972 489.428 462.486C488.762 462.007 488.231 461.599 487.833 461.263C487.418 460.914 487.125 460.604 486.952 460.332C486.764 460.048 486.674 459.798 486.683 459.583C486.704 459.351 486.803 459.115 486.98 458.873C487.322 458.405 487.776 458.226 488.339 458.336C488.903 458.447 489.704 458.876 490.742 459.625C491.099 459.882 491.409 460.118 491.673 460.333C491.949 460.532 492.233 460.737 492.525 460.947C492.801 461.146 493.103 461.377 493.432 461.638C493.773 461.884 494.186 462.182 494.673 462.533C496.295 463.703 497.677 464.625 498.819 465.3C499.972 465.959 500.968 466.394 501.806 466.603C502.628 466.801 503.328 466.776 503.906 466.527C504.497 466.263 505.034 465.8 505.519 465.138C506.027 464.444 506.308 463.772 506.363 463.121C506.414 462.443 506.207 461.726 505.743 460.972C505.262 460.207 504.504 459.364 503.467 458.444C502.442 457.508 501.094 456.437 499.423 455.233C498.693 454.706 498.063 454.264 497.532 453.906C497.013 453.532 496.542 453.192 496.12 452.888C495.52 452.456 495.029 452.077 494.647 451.752C494.277 451.411 494.008 451.119 493.84 450.874C493.667 450.602 493.591 450.35 493.612 450.118C493.633 449.887 493.732 449.65 493.909 449.408C494.086 449.166 494.283 448.999 494.498 448.908C494.714 448.817 494.979 448.811 495.293 448.889C495.607 448.968 495.995 449.149 496.457 449.433C496.902 449.704 497.466 450.086 498.147 450.577C501.002 452.636 503.29 454.421 505.009 455.931C506.712 457.431 507.934 458.792 508.674 460.016C509.397 461.228 509.681 462.382 509.524 463.477C509.362 464.544 508.832 465.69 507.934 466.917Z" fill="white"/>
</g>
<path d="M50.11 259.726C50.59 259.726 50.96 259.776 51.22 259.876C51.48 259.956 51.68 260.066 51.82 260.206C51.96 260.326 52.04 260.476 52.06 260.656C52.1 260.816 52.12 260.976 52.12 261.136C52.12 261.676 52 262.036 51.76 262.216C51.52 262.376 50.98 262.486 50.14 262.546C49.7 262.586 49.06 262.616 48.22 262.636C47.38 262.656 46.38 262.676 45.22 262.696C44.06 262.696 42.78 262.706 41.38 262.726C39.98 262.726 38.5 262.726 36.94 262.726C36.2 262.726 35.45 262.636 34.69 262.456C33.93 262.276 33.24 261.936 32.62 261.436C32 260.916 31.5 260.206 31.12 259.306C30.74 258.386 30.55 257.196 30.55 255.736C30.55 254.716 30.66 253.746 30.88 252.826C31.1 251.906 31.48 251.096 32.02 250.396C32.56 249.696 33.28 249.136 34.18 248.716C35.08 248.296 36.2 248.086 37.54 248.086C38.94 248.086 40.1 248.316 41.02 248.776C41.94 249.236 42.67 249.886 43.21 250.726C43.75 251.566 44.13 252.566 44.35 253.726C44.57 254.886 44.68 256.156 44.68 257.536C44.68 257.876 44.68 258.216 44.68 258.556C44.68 258.896 44.66 259.276 44.62 259.696L50.11 259.726ZM37.48 251.086C36.14 251.086 35.13 251.466 34.45 252.226C33.77 252.966 33.43 254.206 33.43 255.946C33.43 256.606 33.49 257.176 33.61 257.656C33.71 258.116 33.9 258.496 34.18 258.796C34.44 259.096 34.8 259.326 35.26 259.486C35.72 259.626 36.3 259.696 37 259.696C37.68 259.696 38.46 259.696 39.34 259.696C40.2 259.696 41.01 259.686 41.77 259.666C41.79 259.206 41.8 258.696 41.8 258.136C41.8 257.556 41.8 257.016 41.8 256.516C41.8 255.916 41.76 255.296 41.68 254.656C41.6 253.996 41.42 253.406 41.14 252.886C40.84 252.366 40.41 251.936 39.85 251.596C39.27 251.256 38.48 251.086 37.48 251.086Z" fill="white"/>
<path d="M54.3129 214.885C53.6004 214.775 52.8605 214.648 52.0934 214.506C51.3304 214.344 50.5067 214.179 49.6222 214.011C48.7377 213.844 47.7869 213.652 46.7696 213.435C45.7327 213.215 44.5785 212.97 43.3069 212.699C41.918 212.404 40.7365 212.143 39.7625 211.915C38.7689 211.684 37.9696 211.452 37.3643 211.222C36.7591 210.991 36.3306 210.746 36.0787 210.488C35.831 210.211 35.7446 209.896 35.8194 209.544C35.8568 209.368 35.9118 209.206 35.9841 209.057C36.0565 208.909 36.1737 208.791 36.3356 208.703C36.4779 208.61 36.6845 208.552 36.9555 208.528C37.211 208.48 37.5365 208.488 37.9319 208.551C38.6445 208.662 39.2768 208.766 39.8287 208.862C40.3806 208.959 40.9325 209.056 41.4845 209.153C42.0168 209.246 42.5764 209.354 43.1633 209.479C43.7306 209.6 44.3762 209.737 45.1001 209.891C45.9804 210.078 46.8216 210.257 47.6237 210.427C48.4258 210.598 49.216 210.776 49.9943 210.962C50.7727 211.148 51.5608 211.336 52.3588 211.526C53.1567 211.716 53.9917 211.924 54.8637 212.15C55.329 212.27 55.6805 212.395 55.9182 212.528C56.1559 212.66 56.3308 212.799 56.4427 212.946C56.5547 213.092 56.6039 213.246 56.5902 213.407C56.596 213.571 56.5782 213.752 56.5366 213.947C56.4617 214.299 56.2799 214.578 55.9911 214.782C55.6827 214.982 55.1233 215.017 54.3129 214.885Z" fill="white"/>
<path d="M64.9115 171.412C62.6919 171.431 60.577 171.387 58.5667 171.28C56.5462 171.146 54.7583 171.007 53.2029 170.862C55.2814 172.291 57.4066 173.664 59.5786 174.981C61.7587 176.28 63.8017 177.617 65.7076 178.991C66.1339 179.312 66.3641 179.655 66.3984 180.021C66.4144 180.378 66.3777 180.657 66.2882 180.858C66.1418 181.187 65.9233 181.407 65.6329 181.519C65.3506 181.612 65.0541 181.59 64.7435 181.451C64.3233 181.264 63.7041 180.934 62.886 180.46C62.0579 179.96 61.1282 179.393 60.097 178.759C59.0739 178.106 58.0042 177.411 56.8878 176.673C55.7714 175.935 54.7007 175.218 53.6757 174.52C52.6405 173.797 51.7068 173.14 50.8746 172.551C50.0505 171.943 49.4244 171.456 48.9962 171.091C48.2614 170.479 48.0568 169.808 48.3822 169.077C48.5774 168.638 48.9634 168.361 49.5402 168.246C50.0987 168.122 50.9029 168.086 51.9527 168.138C52.9924 168.163 54.2981 168.23 55.8698 168.338C57.4496 168.429 59.3321 168.479 61.5171 168.488C60.0398 166.889 58.74 165.555 57.6177 164.486C56.4853 163.391 55.5538 162.484 54.8232 161.764C54.0825 161.019 53.5712 160.397 53.2893 159.899C52.989 159.393 52.9406 158.912 53.144 158.455C53.3311 158.035 53.5831 157.764 53.8999 157.643C54.1985 157.513 54.5824 157.487 55.0514 157.564C55.6199 157.664 56.4016 157.826 57.3965 158.05C58.3731 158.266 59.4635 158.521 60.6675 158.817C61.8613 159.085 63.106 159.388 64.4013 159.724C65.6967 160.06 66.9291 160.389 68.0986 160.713C69.268 161.037 70.3207 161.352 71.2567 161.659C72.1825 161.94 72.8829 162.186 73.358 162.398C73.6503 162.528 73.8431 162.734 73.9363 163.017C74.0113 163.291 73.9796 163.583 73.8413 163.894C73.7518 164.095 73.5689 164.309 73.2926 164.536C72.998 164.755 72.5888 164.814 72.0649 164.712C70.9259 164.468 69.7584 164.189 68.5625 163.875C67.3748 163.543 66.1779 163.208 64.9719 162.868C63.7558 162.501 62.5488 162.139 61.3509 161.781C60.1347 161.415 58.9237 161.061 57.7177 160.722C58.3427 161.284 59.0246 161.916 59.7634 162.617C60.5021 163.319 61.2418 164.042 61.9825 164.788C62.7049 165.525 63.4142 166.268 64.1102 167.016C64.8063 167.764 65.4241 168.466 65.9639 169.122C66.1445 169.355 66.2499 169.61 66.2802 169.887C66.3003 170.136 66.2616 170.371 66.164 170.59C66.0582 170.828 65.9017 171.032 65.6945 171.202C65.4771 171.346 65.2161 171.416 64.9115 171.412Z" fill="white"/>
<path d="M86.9617 138.857C87.3501 139.139 87.62 139.397 87.7716 139.631C87.9349 139.848 88.032 140.055 88.063 140.25C88.1057 140.43 88.0823 140.598 87.9927 140.755C87.931 140.908 87.8531 141.05 87.7591 141.179C87.4417 141.616 87.133 141.837 86.833 141.841C86.5448 141.83 86.0433 141.601 85.3284 141.156C84.949 140.93 84.4136 140.578 83.7222 140.1C83.0309 139.623 82.2101 139.051 81.2599 138.385C80.3215 137.704 79.28 136.959 78.1357 136.153C77.003 135.33 75.8057 134.46 74.5436 133.543C73.9449 133.108 73.3911 132.594 72.882 132.002C72.373 131.41 72.0146 130.729 71.8069 129.96C71.611 129.175 71.6238 128.307 71.8454 127.355C72.0787 126.387 72.6245 125.313 73.4826 124.132C74.0822 123.307 74.7413 122.587 75.4601 121.972C76.1788 121.357 76.9623 120.925 77.8106 120.676C78.659 120.427 79.5706 120.397 80.5456 120.586C81.5206 120.775 82.5501 121.264 83.6342 122.052C84.7668 122.874 85.5701 123.742 86.044 124.655C86.5179 125.568 86.7265 126.523 86.6696 127.52C86.6127 128.517 86.3324 129.549 85.8285 130.617C85.3247 131.685 84.6672 132.777 83.856 133.894C83.6562 134.169 83.4563 134.444 83.2565 134.719C83.0566 134.994 82.8171 135.289 82.5379 135.606L86.9617 138.857ZM81.8223 124.443C80.7382 123.656 79.6978 123.369 78.7009 123.585C77.7158 123.784 76.7119 124.587 75.6892 125.995C75.3012 126.529 75.0147 127.025 74.8297 127.484C74.6402 127.915 74.5705 128.334 74.6207 128.741C74.6547 129.137 74.8108 129.534 75.0889 129.934C75.3788 130.318 75.8068 130.715 76.3732 131.127C76.9233 131.526 77.5543 131.985 78.2662 132.502C78.962 133.008 79.6232 133.476 80.2498 133.906C80.5364 133.546 80.8442 133.139 81.1734 132.686C81.5143 132.217 81.8317 131.78 82.1256 131.375C82.4783 130.89 82.8103 130.365 83.1218 129.8C83.445 129.219 83.6462 128.636 83.7253 128.051C83.7882 127.454 83.6931 126.853 83.4399 126.249C83.1705 125.633 82.6313 125.031 81.8223 124.443Z" fill="white"/>
<path d="M123.033 99.8089C122.563 99.586 122.032 99.3245 121.439 99.0244C120.847 98.696 120.22 98.3586 119.559 98.0124C119.126 98.4288 118.671 98.8652 118.194 99.3217C117.704 99.7633 117.206 100.212 116.7 100.667C116.061 101.242 115.482 101.764 114.961 102.232C114.441 102.701 113.959 103.122 113.515 103.495C113.805 104.176 114.075 104.82 114.327 105.428C114.578 106.036 114.79 106.585 114.963 107.076C115.348 108.101 115.258 108.868 114.693 109.377C114.485 109.564 114.224 109.678 113.911 109.718C113.612 109.745 113.349 109.632 113.121 109.38C112.894 109.127 112.644 108.76 112.372 108.278C112.086 107.782 111.803 107.243 111.522 106.662C111.242 106.052 110.963 105.429 110.685 104.791C110.394 104.138 110.128 103.53 109.889 102.965C109.609 102.355 109.275 101.566 108.887 100.597C108.5 99.5996 108.101 98.5591 107.691 97.4754C107.28 96.3918 106.883 95.323 106.499 94.2691C106.102 93.2004 105.769 92.2624 105.5 91.4552C105.425 91.2531 105.353 91.0227 105.281 90.764C105.196 90.4905 105.14 90.2185 105.112 89.9479C105.098 89.664 105.112 89.3957 105.154 89.1429C105.21 88.8768 105.335 88.6568 105.528 88.4828C105.721 88.3088 105.96 88.2151 106.244 88.2017C106.514 88.1734 106.789 88.1949 107.069 88.2662C107.363 88.3241 107.642 88.4095 107.905 88.5224C108.183 88.6219 108.419 88.7193 108.612 88.8144C109.385 89.1948 110.268 89.6376 111.262 90.1428C112.27 90.6346 113.277 91.1406 114.283 91.6607C115.305 92.1674 116.27 92.657 117.18 93.1295C118.09 93.602 118.848 94.0099 119.453 94.3532C119.975 94.6638 120.538 94.9907 121.143 95.334C121.763 95.6639 122.362 95.9997 122.939 96.3415C123.516 96.6833 124.036 97.0221 124.5 97.358C124.965 97.6656 125.312 97.9457 125.539 98.1984C125.767 98.4511 125.844 98.7313 125.771 99.039C125.713 99.3334 125.58 99.5742 125.372 99.7616C125.105 100.002 124.779 100.134 124.396 100.156C123.999 100.164 123.544 100.048 123.033 99.8089ZM114.671 98.4573C115.027 98.1361 115.391 97.8223 115.761 97.516C116.118 97.1948 116.481 96.8811 116.851 96.5747C116.204 96.2151 115.558 95.8555 114.911 95.4959C114.264 95.1363 113.645 94.7923 113.053 94.4639C112.476 94.1221 111.94 93.8108 111.445 93.5299C110.952 93.2208 110.52 92.9504 110.149 92.7185C109.916 92.5789 109.709 92.483 109.527 92.431C109.346 92.379 109.196 92.4066 109.077 92.5136C108.958 92.6207 108.922 92.7746 108.968 92.9752C109 93.1611 109.074 93.3773 109.189 93.6241C109.559 94.3941 110.022 95.4167 110.578 96.6921C111.136 97.9392 111.719 99.2584 112.325 100.65C112.713 100.274 113.108 99.9048 113.509 99.5435C113.897 99.1673 114.284 98.8052 114.671 98.4573Z" fill="white"/>
<path d="M148.733 62.1568C148.268 62.4714 147.764 62.7974 147.22 63.1347C146.693 63.462 146.105 63.8244 145.457 64.2217C145.744 64.6793 146.017 65.111 146.274 65.5167C146.521 65.9051 146.774 66.3021 147.031 66.7078C147.288 67.1135 147.547 67.5415 147.807 67.9918C148.084 68.4322 148.383 68.9295 148.703 69.4837C149.153 70.2631 149.588 71.0166 150.008 71.744C150.418 72.4542 150.824 73.178 151.227 73.9154C151.619 74.6356 152.017 75.3644 152.42 76.1019C152.823 76.8393 153.232 77.6078 153.647 78.4072C153.87 78.8329 154.011 79.1783 154.072 79.4435C154.15 79.6986 154.172 79.9168 154.138 80.0981C154.104 80.2793 154.023 80.4186 153.894 80.5159C153.776 80.6306 153.63 80.7379 153.457 80.8379C153.145 81.0179 152.817 81.069 152.471 80.9911C152.134 80.886 151.742 80.4883 151.298 79.7982C150.903 79.1946 150.497 78.5514 150.08 77.8686C149.68 77.1758 149.241 76.436 148.764 75.6493C148.286 74.8625 147.783 74.0102 147.253 73.0922C146.713 72.1569 146.118 71.1263 145.468 70.0005C144.918 69.0478 144.438 68.2165 144.028 67.5063C143.635 66.7862 143.306 66.1563 143.041 65.6167L141.975 66.2317C141.248 66.6517 140.619 67.003 140.09 67.2857C139.578 67.5584 139.137 67.7551 138.768 67.8758C138.389 67.9792 138.071 67.9893 137.815 67.9061C137.577 67.8129 137.367 67.6104 137.187 67.2986C137.097 67.1427 137.035 66.9942 136.999 66.8529C136.954 66.6944 136.962 66.5281 137.023 66.3542C137.075 66.163 137.184 65.9727 137.352 65.7834C137.537 65.5841 137.793 65.3672 138.119 65.1325C138.438 64.9252 138.723 64.7379 138.973 64.5706C139.222 64.4032 139.472 64.2359 139.722 64.0686C139.972 63.9013 140.235 63.7376 140.512 63.5776C140.79 63.4176 141.11 63.2326 141.474 63.0226C142.496 62.4326 143.462 61.8863 144.373 61.3836C145.301 60.8709 146.291 60.3456 147.342 59.8075C147.778 59.6022 148.129 59.4691 148.394 59.4084C148.649 59.3304 148.867 59.3083 149.048 59.3422C149.23 59.3762 149.369 59.4574 149.466 59.586C149.581 59.7045 149.688 59.8504 149.788 60.0236C149.968 60.3354 150.006 60.6602 149.9 60.998C149.813 61.3259 149.424 61.7121 148.733 62.1568Z" fill="white"/>
<path d="M190.029 62.0467C189.769 61.3743 189.509 60.6703 189.249 59.9346C189.008 59.1928 188.738 58.397 188.441 57.5472C188.144 56.6975 187.835 55.778 187.514 54.7889C187.186 53.7808 186.821 52.6586 186.42 51.4222C185.981 50.0717 185.616 48.9178 185.326 47.9606C185.03 46.9843 184.831 46.1764 184.728 45.5368C184.626 44.8973 184.623 44.4039 184.72 44.0568C184.837 43.7035 185.066 43.4712 185.409 43.36C185.58 43.3043 185.748 43.2708 185.912 43.2594C186.077 43.248 186.238 43.2904 186.395 43.3864C186.546 43.4635 186.7 43.6133 186.857 43.8358C187.026 44.0332 187.182 44.319 187.325 44.6932C187.585 45.3656 187.811 45.965 188.003 46.4914C188.196 47.0178 188.388 47.5443 188.58 48.0707C188.766 48.5781 188.951 49.1171 189.137 49.6877C189.316 50.2393 189.52 50.867 189.748 51.5708C190.027 52.4267 190.292 53.2447 190.546 54.0245C190.799 54.8044 191.04 55.5778 191.268 56.3449C191.496 57.1119 191.728 57.8884 191.962 58.6745C192.196 59.4605 192.434 60.2877 192.674 61.156C192.803 61.6187 192.87 61.986 192.874 62.258C192.878 62.53 192.845 62.7511 192.774 62.9214C192.703 63.0916 192.595 63.2109 192.449 63.2794C192.309 63.3669 192.144 63.4415 191.954 63.5033C191.611 63.6146 191.279 63.5963 190.958 63.4484C190.63 63.2814 190.321 62.8142 190.029 62.0467Z" fill="white"/>
<path d="M229.461 53.086C229.511 53.5633 229.5 53.9365 229.427 54.2056C229.375 54.4725 229.286 54.6829 229.162 54.8368C229.057 54.9886 228.916 55.0838 228.739 55.1225C228.584 55.179 228.427 55.2156 228.268 55.2323C227.731 55.2888 227.361 55.2071 227.157 54.9872C226.972 54.7652 226.807 54.2397 226.659 53.4106C226.573 52.9772 226.477 52.3438 226.369 51.5105C226.261 50.6772 226.137 49.6848 225.996 48.5332C225.874 47.3796 225.731 46.1076 225.564 44.7174C225.418 43.325 225.263 41.8532 225.1 40.3017C225.023 39.5658 225.034 38.8105 225.134 38.0358C225.233 37.2612 225.499 36.5394 225.932 35.8705C226.384 35.1996 227.038 34.6281 227.893 34.1561C228.768 33.682 229.932 33.3687 231.384 33.216C232.398 33.1094 233.375 33.1174 234.313 33.2401C235.251 33.3627 236.096 33.6559 236.848 34.1198C237.601 34.5837 238.233 35.2412 238.745 36.0924C239.257 36.9435 239.583 38.0355 239.723 39.3681C239.869 40.7604 239.762 41.9381 239.4 42.9012C239.039 43.8642 238.469 44.6582 237.69 45.283C236.911 45.9079 235.956 46.3903 234.826 46.7304C233.695 47.0704 232.443 47.3125 231.071 47.4568C230.733 47.4923 230.395 47.5279 230.057 47.5634C229.718 47.599 229.338 47.6188 228.916 47.6229L229.461 53.086ZM236.733 39.622C236.593 38.2894 236.109 37.3246 235.283 36.7278C234.475 36.1289 233.207 35.9203 231.476 36.1022C230.82 36.1712 230.259 36.2905 229.794 36.46C229.347 36.6075 228.989 36.8362 228.72 37.146C228.449 37.436 228.258 37.818 228.147 38.2922C228.056 38.7643 228.047 39.3485 228.12 40.0446C228.191 40.7209 228.273 41.4967 228.365 42.3718C228.454 43.2271 228.549 44.0316 228.648 44.7854C229.108 44.7572 229.616 44.7138 230.173 44.6553C230.75 44.5947 231.287 44.5382 231.784 44.486C232.381 44.4232 232.993 44.3186 233.622 44.1722C234.27 44.0236 234.838 43.783 235.325 43.4501C235.811 43.0974 236.194 42.6248 236.474 42.0324C236.751 41.42 236.838 40.6166 236.733 39.622Z" fill="white"/>
<path d="M282.615 53.7641C282.466 53.2658 282.305 52.6958 282.131 52.0541C281.979 51.3946 281.811 50.7032 281.625 49.9799C281.026 49.937 280.398 49.8911 279.739 49.842C279.083 49.773 278.416 49.703 277.74 49.6319C276.885 49.542 276.109 49.4605 275.413 49.3873C274.717 49.3141 274.081 49.2373 273.507 49.1568C273.195 49.8278 272.897 50.4602 272.613 51.0538C272.33 51.6474 272.064 52.1724 271.814 52.6289C271.31 53.6015 270.68 54.0481 269.924 53.9686C269.646 53.9394 269.386 53.8216 269.147 53.6154C268.927 53.4113 268.835 53.1402 268.87 52.8021C268.906 52.4639 269.011 52.0326 269.187 51.5081C269.365 50.9637 269.576 50.3927 269.82 49.7949C270.086 49.1793 270.362 48.5548 270.65 47.9214C270.94 47.2681 271.215 46.6635 271.474 46.1076C271.74 45.492 272.103 44.7157 272.564 43.7787C273.046 42.8239 273.553 41.8314 274.083 40.8012C274.614 39.7711 275.142 38.7608 275.669 37.7704C276.197 36.7601 276.671 35.8848 277.091 35.1447C277.191 34.9541 277.314 34.7458 277.458 34.5196C277.605 34.2736 277.769 34.0495 277.951 33.8475C278.153 33.6475 278.362 33.4784 278.578 33.3402C278.813 33.2041 279.06 33.1496 279.319 33.1768C279.577 33.2039 279.807 33.3185 280.007 33.5205C280.209 33.7027 280.377 33.9214 280.511 34.1768C280.665 34.4343 280.788 34.6986 280.88 34.9698C280.992 35.243 281.077 35.4832 281.136 35.6905C281.371 36.5195 281.633 37.4721 281.922 38.5482C282.231 39.6264 282.529 40.7136 282.816 41.8096C283.123 42.9077 283.405 43.9529 283.663 44.9453C283.92 45.9376 284.124 46.7735 284.274 47.4529C284.392 48.0485 284.526 48.686 284.676 49.3654C284.846 50.0469 284.997 50.7163 285.129 51.3737C285.261 52.0311 285.357 52.6446 285.418 53.214C285.501 53.7657 285.524 54.2106 285.489 54.5488C285.453 54.8869 285.297 55.1319 285.019 55.2837C284.762 55.4376 284.494 55.5 284.215 55.4707C283.857 55.4331 283.542 55.2792 283.268 55.0092C282.997 54.7193 282.779 54.3042 282.615 53.7641ZM278.024 46.6452C278.501 46.6954 278.978 46.7555 279.453 46.8255C279.93 46.8757 280.407 46.9358 280.882 47.0059C280.716 46.2846 280.551 45.5634 280.385 44.8421C280.22 44.1209 280.061 43.4305 279.909 42.771C279.777 42.1136 279.65 41.507 279.527 40.9511C279.427 40.3775 279.339 39.8755 279.263 39.4453C279.211 39.1784 279.143 38.9601 279.061 38.7905C278.978 38.6209 278.857 38.5278 278.698 38.5111C278.539 38.4943 278.4 38.5703 278.282 38.7388C278.166 38.8875 278.054 39.0869 277.947 39.3371C277.623 40.1276 277.173 41.1562 276.597 42.4229C276.044 43.6719 275.453 44.9874 274.825 46.3693C275.364 46.4059 275.902 46.4524 276.44 46.5088C276.979 46.5454 277.507 46.5908 278.024 46.6452Z" fill="white"/>
<path d="M322.868 63.7644C322.531 62.7297 322.22 61.7138 321.934 60.7166C321.673 59.7066 321.39 58.6051 321.083 57.4121C320.796 56.2252 320.448 54.9028 320.038 53.4449C319.654 51.9742 319.173 50.2512 318.595 48.2759C318.131 49.7025 317.714 50.9864 317.343 52.1277C316.979 53.2499 316.629 54.293 316.295 55.2569C315.961 56.2208 315.645 57.1276 315.348 57.9774C315.051 58.8272 314.744 59.6739 314.428 60.5175C314.261 60.9678 314.099 61.3042 313.942 61.5268C313.805 61.7555 313.657 61.9179 313.5 62.014C313.343 62.11 313.185 62.1429 313.026 62.1124C312.881 62.1072 312.713 62.0737 312.523 62.0119C312.18 61.9007 311.932 61.6938 311.778 61.3914C311.63 61.07 311.664 60.5131 311.879 59.7209C312.464 57.5977 313.087 55.4868 313.748 53.3883C314.434 51.277 315.141 49.099 315.871 46.8546C316.285 45.5801 316.619 44.5846 316.873 43.868C317.145 43.1576 317.388 42.6371 317.601 42.3066C317.832 41.9823 318.049 41.8004 318.251 41.7609C318.472 41.7276 318.735 41.7604 319.039 41.8593C319.344 41.9581 319.666 42.3257 320.006 42.9619C320.352 43.5791 320.696 44.3639 321.039 45.3164C321.381 46.2688 321.725 47.3477 322.069 48.5531C322.432 49.7647 322.777 51.0017 323.103 52.2642C323.429 53.5267 323.729 54.7704 324.004 55.9953C324.298 57.2264 324.566 58.3438 324.807 59.3476C325.079 58.4475 325.388 57.4648 325.734 56.3996C326.086 55.3154 326.475 54.1171 326.902 52.8046C327.39 51.3019 327.801 50.0687 328.136 49.1048C328.476 48.1218 328.777 47.3574 329.038 46.8115C329.319 46.2718 329.591 45.9187 329.856 45.7522C330.12 45.5858 330.423 45.5582 330.766 45.6694C331.089 45.7745 331.341 45.9718 331.52 46.2614C331.699 46.551 331.684 47.0824 331.475 47.8556C331.291 48.5527 331.121 49.1706 330.967 49.7094C330.813 50.2482 330.659 50.787 330.505 51.3257C330.357 51.8455 330.191 52.3907 330.005 52.9613C329.826 53.5129 329.622 54.1406 329.393 54.8444C329.115 55.7003 328.85 56.5183 328.596 57.2981C328.343 58.078 328.083 58.8453 327.817 59.5999C327.551 60.3546 327.281 61.1188 327.009 61.8924C326.736 62.6661 326.442 63.4748 326.126 64.3184C325.959 64.7687 325.797 65.1051 325.64 65.3277C325.503 65.5564 325.355 65.7188 325.198 65.8149C325.041 65.9109 324.883 65.9438 324.724 65.9133C324.579 65.9081 324.411 65.8746 324.221 65.8128C323.897 65.7077 323.653 65.523 323.486 65.2586C323.32 64.9943 323.114 64.4962 322.868 63.7644Z" fill="white"/>
<path d="M396.123 108.894C396.296 108.403 396.5 107.847 396.737 107.226C397.002 106.603 397.272 105.945 397.547 105.25C397.087 104.864 396.606 104.457 396.102 104.03C395.612 103.589 395.114 103.14 394.608 102.685C393.969 102.11 393.39 101.588 392.869 101.12C392.349 100.651 391.88 100.216 391.463 99.8126C390.816 100.172 390.203 100.509 389.625 100.822C389.047 101.136 388.522 101.404 388.053 101.627C387.073 102.117 386.301 102.108 385.736 101.6C385.528 101.412 385.387 101.165 385.315 100.857C385.257 100.563 385.341 100.289 385.569 100.036C385.796 99.7838 386.135 99.497 386.586 99.176C387.05 98.8401 387.556 98.502 388.105 98.1617C388.682 97.8199 389.273 97.4774 389.878 97.1341C390.496 96.776 391.074 96.4483 391.611 96.1511C392.187 95.8093 392.938 95.3948 393.861 94.9074C394.812 94.4185 395.805 93.9133 396.84 93.3917C397.875 92.8701 398.896 92.3634 399.904 91.8716C400.926 91.3649 401.824 90.9355 402.598 90.5833C402.792 90.4882 403.013 90.3917 403.263 90.2936C403.526 90.1807 403.791 90.096 404.057 90.0396C404.338 89.9965 404.606 89.9825 404.862 89.9974C405.132 90.0257 405.364 90.1268 405.558 90.3008C405.751 90.4748 405.869 90.7023 405.912 90.9832C405.968 91.2493 405.976 91.5251 405.934 91.8105C405.907 92.1093 405.851 92.3955 405.767 92.669C405.697 92.9559 405.625 93.2004 405.55 93.4026C405.253 94.2112 404.905 95.1358 404.506 96.1763C404.122 97.2302 403.724 98.2849 403.312 99.3403C402.915 100.409 402.529 101.421 402.154 102.375C401.779 103.329 401.453 104.125 401.175 104.763C400.921 105.314 400.654 105.909 400.376 106.547C400.113 107.198 399.841 107.828 399.562 108.437C399.282 109.047 399 109.6 398.714 110.096C398.457 110.591 398.214 110.965 397.987 111.218C397.759 111.47 397.489 111.577 397.175 111.536C396.876 111.51 396.623 111.402 396.415 111.215C396.147 110.974 395.982 110.664 395.92 110.285C395.871 109.891 395.939 109.427 396.123 108.894ZM396.593 100.436C396.95 100.757 397.3 101.086 397.643 101.422C398 101.743 398.35 102.071 398.693 102.408C398.984 101.727 399.274 101.046 399.564 100.365C399.854 99.6844 400.131 99.0326 400.396 98.4097C400.675 97.8003 400.929 97.2347 401.157 96.713C401.412 96.1897 401.636 95.7319 401.828 95.3395C401.943 95.0928 402.016 94.8765 402.049 94.6907C402.082 94.5048 402.039 94.3584 401.92 94.2513C401.801 94.1443 401.644 94.1242 401.449 94.191C401.268 94.243 401.06 94.3389 400.827 94.4786C400.1 94.9273 399.131 95.495 397.921 96.1815C396.739 96.8666 395.488 97.5836 394.168 98.3325C394.582 98.679 394.99 99.0329 395.392 99.3942C395.806 99.7407 396.207 100.088 396.593 100.436Z" fill="white"/>
<path d="M422.81 140.644C423.146 139.609 423.491 138.604 423.846 137.629C424.229 136.659 424.647 135.601 425.101 134.456C425.566 133.327 426.061 132.052 426.587 130.632C427.14 129.216 427.764 127.54 428.457 125.602C427.244 126.484 426.152 127.277 425.181 127.982C424.226 128.676 423.33 129.315 422.493 129.898C421.656 130.481 420.868 131.029 420.128 131.542C419.388 132.055 418.643 132.56 417.891 133.056C417.491 133.322 417.162 133.499 416.905 133.587C416.659 133.692 416.444 133.736 416.261 133.722C416.077 133.707 415.93 133.641 415.82 133.523C415.705 133.433 415.589 133.307 415.471 133.146C415.26 132.854 415.18 132.541 415.234 132.206C415.303 131.859 415.657 131.428 416.297 130.914C418.018 129.54 419.763 128.198 421.531 126.889C423.327 125.584 425.18 124.238 427.089 122.851C428.173 122.063 429.028 121.454 429.655 121.024C430.293 120.609 430.796 120.331 431.162 120.188C431.54 120.062 431.822 120.042 432.009 120.129C432.207 120.232 432.401 120.413 432.589 120.672C432.777 120.931 432.821 121.418 432.723 122.132C432.64 122.835 432.457 123.672 432.174 124.644C431.892 125.616 431.535 126.691 431.105 127.868C430.687 129.062 430.239 130.266 429.76 131.478C429.282 132.691 428.794 133.874 428.296 135.027C427.81 136.195 427.37 137.257 426.976 138.211C427.724 137.642 428.552 137.029 429.458 136.37C430.38 135.7 431.4 134.96 432.516 134.149C433.794 133.22 434.852 132.464 435.689 131.88C436.542 131.285 437.235 130.844 437.767 130.556C438.311 130.284 438.739 130.159 439.051 130.179C439.363 130.2 439.624 130.356 439.836 130.647C440.036 130.922 440.123 131.23 440.098 131.569C440.073 131.909 439.749 132.33 439.125 132.833C438.566 133.288 438.066 133.689 437.624 134.034C437.183 134.379 436.742 134.725 436.301 135.07C435.875 135.404 435.42 135.747 434.935 136.099C434.465 136.44 433.932 136.828 433.333 137.263C432.605 137.792 431.909 138.298 431.246 138.78C430.582 139.262 429.921 139.73 429.262 140.184C428.603 140.638 427.936 141.098 427.261 141.564C426.586 142.029 425.872 142.511 425.121 143.007C424.721 143.273 424.392 143.45 424.135 143.538C423.889 143.643 423.674 143.687 423.49 143.673C423.307 143.658 423.16 143.592 423.049 143.474C422.935 143.384 422.819 143.258 422.701 143.097C422.501 142.821 422.412 142.528 422.432 142.216C422.453 141.905 422.579 141.381 422.81 140.644Z" fill="white"/>
<path d="M460.098 167.538C460.367 168.141 460.589 168.787 460.764 169.475C460.939 170.164 461.035 170.821 461.051 171.449C461.086 172.068 461.026 172.621 460.87 173.106C460.714 173.592 460.435 173.924 460.033 174.103C459.612 174.29 459.244 174.323 458.927 174.201C458.61 174.079 458.378 173.854 458.232 173.525C458.094 173.215 458.018 172.898 458.006 172.575C458.002 172.27 457.99 171.925 457.972 171.539C457.953 171.153 457.897 170.708 457.803 170.202C457.71 169.697 457.508 169.097 457.199 168.402C456.857 167.635 456.353 166.995 455.687 166.481C455.047 165.978 454.293 165.613 453.426 165.386C452.577 165.151 451.658 165.079 450.669 165.169C449.68 165.259 448.684 165.527 447.679 165.975C446.454 166.52 445.464 167.147 444.707 167.856C443.95 168.565 443.389 169.297 443.024 170.05C442.667 170.822 442.481 171.584 442.465 172.335C442.476 173.097 442.623 173.797 442.908 174.437C443.372 175.478 443.884 176.235 444.445 176.708C445.032 177.191 445.644 177.509 446.282 177.663C446.674 177.511 447.135 177.317 447.665 177.081C448.194 176.845 448.77 176.589 449.391 176.312C449.629 176.206 449.803 176.107 449.915 176.013C450.045 175.911 450.114 175.771 450.122 175.593C450.13 175.414 450.078 175.174 449.966 174.874C449.862 174.592 449.705 174.213 449.493 173.738C449.233 173.153 449.094 172.646 449.078 172.215C449.08 171.777 449.336 171.443 449.848 171.216C450.213 171.053 450.546 171.014 450.847 171.099C451.174 171.194 451.49 171.535 451.795 172.122C451.844 172.232 451.921 172.405 452.027 172.643C452.159 172.89 452.286 173.151 452.408 173.425C452.538 173.718 452.664 174.001 452.786 174.275C452.908 174.549 453.006 174.768 453.079 174.933C453.323 175.481 453.463 175.944 453.5 176.321C453.555 176.691 453.466 177.081 453.233 177.491C453.107 177.701 452.82 177.916 452.371 178.138C451.931 178.378 451.409 178.632 450.806 178.9L443.735 182.048C443.242 182.268 442.816 182.294 442.456 182.125C442.105 181.975 441.852 181.727 441.697 181.379C441.51 180.959 441.465 180.563 441.562 180.192C441.649 179.846 441.921 179.572 442.378 179.369L443.447 178.893C442.687 178.662 442.042 178.27 441.512 177.718C440.99 177.185 440.509 176.424 440.07 175.438C439.622 174.433 439.384 173.357 439.355 172.209C439.326 171.062 439.537 169.939 439.989 168.84C440.46 167.733 441.183 166.678 442.159 165.674C443.162 164.68 444.458 163.829 446.047 163.122C447.637 162.414 449.154 162.012 450.6 161.916C452.054 161.837 453.389 162.009 454.606 162.431C455.841 162.844 456.927 163.488 457.864 164.363C458.8 165.237 459.545 166.296 460.098 167.538Z" fill="white"/>
<path d="M453.087 207.044C453.783 206.855 454.511 206.67 455.269 206.488C456.032 206.326 456.852 206.142 457.728 205.935C458.604 205.728 459.551 205.517 460.568 205.301C461.605 205.08 462.759 204.835 464.031 204.565C465.42 204.269 466.605 204.028 467.588 203.839C468.59 203.647 469.412 203.523 470.055 203.468C470.701 203.433 471.192 203.482 471.527 203.615C471.862 203.748 472.067 203.991 472.142 204.343C472.213 204.676 472.168 204.992 472.006 205.292C471.845 205.592 471.378 205.845 470.603 206.051C469.908 206.239 469.288 206.402 468.744 206.538C468.201 206.674 467.657 206.81 467.113 206.946C466.589 207.078 466.034 207.206 465.447 207.331C464.88 207.451 464.234 207.588 463.51 207.742L461.984 208.067L470.508 212.818C471.622 213.44 472.373 213.945 472.763 214.333C473.171 214.716 473.411 215.074 473.482 215.407C473.565 215.798 473.527 216.102 473.369 216.32C473.215 216.557 472.991 216.707 472.698 216.769C472.58 216.794 472.459 216.8 472.333 216.785C472.207 216.771 472.022 216.719 471.778 216.627C471.558 216.552 471.264 216.42 470.897 216.232C470.549 216.04 470.095 215.779 469.534 215.448L464.236 212.311L456.446 220.684C456.265 220.886 456.065 221.051 455.846 221.179C455.632 221.327 455.418 221.424 455.203 221.469C454.831 221.548 454.505 221.505 454.224 221.34C453.929 221.198 453.726 220.873 453.618 220.365C453.531 219.954 453.569 219.557 453.733 219.175C453.882 218.816 454.143 218.454 454.515 218.089L461.575 210.76L458.281 208.823C457.533 208.962 456.786 209.1 456.038 209.238C455.29 209.377 454.502 209.514 453.672 209.649C453.198 209.73 452.826 209.758 452.555 209.734C452.288 209.729 452.074 209.682 451.912 209.594C451.75 209.506 451.643 209.386 451.59 209.233C451.521 209.105 451.467 208.942 451.425 208.747C451.35 208.395 451.405 208.076 451.59 207.792C451.794 207.503 452.293 207.254 453.087 207.044Z" fill="white"/>
<path d="M459.287 261.781C460.367 261.741 461.497 261.701 462.677 261.661C463.877 261.641 465.257 261.631 466.817 261.631C466.797 260.991 466.777 260.311 466.757 259.591C466.757 258.871 466.757 258.131 466.757 257.371C466.757 256.471 466.757 255.651 466.757 254.911C466.757 254.171 466.767 253.511 466.787 252.931C465.527 252.911 464.307 252.891 463.127 252.871C461.967 252.851 460.697 252.811 459.317 252.751C458.837 252.731 458.467 252.681 458.207 252.601C457.947 252.541 457.747 252.451 457.607 252.331C457.467 252.211 457.387 252.071 457.367 251.911C457.327 251.771 457.307 251.601 457.307 251.401C457.307 251.041 457.427 250.741 457.667 250.501C457.927 250.261 458.467 250.121 459.287 250.081C460.007 250.041 460.757 250.011 461.537 249.991C462.317 249.991 463.157 249.981 464.057 249.961C464.957 249.941 465.927 249.931 466.967 249.931C468.027 249.931 469.207 249.931 470.507 249.931C471.927 249.931 473.137 249.941 474.137 249.961C475.157 249.981 475.987 250.031 476.627 250.111C477.267 250.211 477.737 250.361 478.037 250.561C478.337 250.761 478.487 251.041 478.487 251.401C478.487 251.741 478.377 252.041 478.157 252.301C477.937 252.561 477.427 252.711 476.627 252.751C475.947 252.791 475.327 252.821 474.767 252.841C474.227 252.861 473.687 252.881 473.147 252.901C472.627 252.921 472.087 252.931 471.527 252.931C470.967 252.931 470.347 252.931 469.667 252.931C469.727 254.431 469.757 255.901 469.757 257.341C469.757 258.041 469.747 258.741 469.727 259.441C469.707 260.161 469.677 260.891 469.637 261.631L470.507 261.631C471.927 261.631 473.137 261.641 474.137 261.661C475.157 261.681 475.987 261.731 476.627 261.811C477.267 261.911 477.737 262.061 478.037 262.261C478.337 262.461 478.487 262.741 478.487 263.101C478.487 263.441 478.377 263.741 478.157 264.001C477.937 264.261 477.427 264.411 476.627 264.451C475.907 264.491 475.267 264.521 474.707 264.541C474.147 264.561 473.587 264.581 473.027 264.601C472.487 264.621 471.917 264.631 471.317 264.631C470.737 264.631 470.077 264.631 469.337 264.631C468.437 264.631 467.577 264.631 466.757 264.631C465.937 264.631 465.127 264.621 464.327 264.601C463.527 264.581 462.717 264.561 461.897 264.541C461.077 264.521 460.217 264.491 459.317 264.451C458.837 264.431 458.467 264.381 458.207 264.301C457.947 264.241 457.747 264.151 457.607 264.031C457.467 263.911 457.387 263.771 457.367 263.611C457.327 263.471 457.307 263.301 457.307 263.101C457.307 262.741 457.427 262.441 457.667 262.201C457.927 261.961 458.467 261.821 459.287 261.781Z" fill="white"/>
<path d="M452.726 305.067C453.237 304.971 453.821 304.87 454.477 304.765C455.149 304.682 455.854 304.587 456.593 304.478C456.698 303.887 456.81 303.267 456.927 302.617C457.065 301.972 457.204 301.316 457.345 300.651C457.524 299.81 457.686 299.047 457.832 298.362C457.977 297.677 458.12 297.054 458.26 296.49C457.626 296.11 457.028 295.748 456.467 295.404C455.906 295.06 455.412 294.74 454.984 294.444C454.07 293.841 453.691 293.168 453.849 292.424C453.908 292.15 454.052 291.905 454.282 291.688C454.508 291.491 454.787 291.428 455.12 291.498C455.452 291.569 455.87 291.719 456.373 291.949C456.896 292.183 457.442 292.452 458.011 292.757C458.596 293.086 459.188 293.426 459.788 293.779C460.407 294.135 460.98 294.472 461.505 294.788C462.09 295.116 462.824 295.559 463.708 296.115C464.607 296.694 465.541 297.302 466.51 297.937C467.479 298.572 468.428 299.204 469.358 299.831C470.308 300.462 471.129 301.025 471.821 301.52C472 301.639 472.195 301.783 472.404 301.95C472.634 302.122 472.839 302.309 473.021 302.511C473.199 302.733 473.345 302.958 473.46 303.187C473.571 303.435 473.599 303.687 473.545 303.941C473.491 304.195 473.353 304.411 473.132 304.589C472.929 304.771 472.694 304.915 472.426 305.022C472.154 305.148 471.878 305.243 471.599 305.306C471.316 305.389 471.068 305.449 470.855 305.486C470.006 305.632 469.032 305.793 467.931 305.968C466.827 306.163 465.714 306.345 464.594 306.516C463.47 306.707 462.401 306.878 461.387 307.031C460.373 307.183 459.521 307.299 458.83 307.377C458.225 307.432 457.577 307.499 456.885 307.577C456.19 307.674 455.508 307.754 454.841 307.817C454.173 307.879 453.553 307.911 452.98 307.912C452.423 307.937 451.978 307.914 451.646 307.843C451.313 307.772 451.086 307.591 450.964 307.299C450.837 307.027 450.803 306.754 450.862 306.48C450.937 306.128 451.123 305.83 451.42 305.587C451.736 305.347 452.172 305.174 452.726 305.067ZM460.286 301.245C460.186 301.715 460.077 302.182 459.957 302.648C459.858 303.117 459.748 303.585 459.629 304.05C460.363 303.961 461.098 303.872 461.832 303.782C462.567 303.693 463.27 303.607 463.942 303.525C464.61 303.463 465.226 303.4 465.792 303.336C466.373 303.296 466.881 303.261 467.317 303.231C467.588 303.206 467.812 303.162 467.989 303.097C468.167 303.033 468.272 302.922 468.305 302.766C468.338 302.609 468.277 302.464 468.122 302.328C467.986 302.197 467.8 302.066 467.562 301.933C466.81 301.528 465.834 300.973 464.634 300.268C463.45 299.587 462.204 298.862 460.895 298.093C460.802 298.625 460.7 299.156 460.587 299.684C460.495 300.216 460.394 300.737 460.286 301.245Z" fill="white"/>
<path d="M446.269 341.446C446.365 341.182 446.465 340.909 446.568 340.627C446.682 340.371 446.8 340.106 446.922 339.832C447.061 339.522 447.199 339.211 447.337 338.9C447.475 338.59 447.648 338.251 447.856 337.883L442.292 335.406C441.707 335.146 441.407 334.837 441.391 334.48C441.385 334.149 441.476 333.773 441.663 333.353C441.761 333.134 441.856 332.968 441.95 332.857C442.025 332.737 442.119 332.648 442.233 332.589C442.357 332.556 442.513 332.549 442.702 332.568C442.883 332.604 443.123 332.679 443.424 332.791C443.769 332.9 444.256 333.084 444.886 333.343C445.533 333.609 446.364 333.957 447.377 334.386C448.382 334.834 449.601 335.365 451.034 335.982C452.477 336.624 454.167 337.377 456.104 338.239C456.853 338.573 457.534 338.985 458.147 339.477C458.778 339.977 459.253 340.582 459.572 341.293C459.908 342.013 460.062 342.847 460.033 343.798C459.996 344.766 459.696 345.881 459.135 347.142C458.737 348.037 458.25 348.86 457.674 349.611C457.091 350.38 456.406 350.984 455.62 351.422C454.834 351.86 453.931 352.093 452.912 352.121C451.892 352.149 450.752 351.882 449.492 351.32C447.811 350.572 446.667 349.625 446.061 348.479C445.464 347.36 445.255 346.085 445.433 344.653L438.755 346.08C438.17 346.214 437.649 346.179 437.192 345.976C436.827 345.813 436.601 345.559 436.513 345.214C436.4 344.879 436.425 344.528 436.587 344.163C436.766 343.761 437.03 343.463 437.38 343.268C437.748 343.081 438.171 342.942 438.65 342.848L446.269 341.446ZM450.739 348.592C452 349.153 453.103 349.185 454.047 348.686C455.002 348.213 455.845 347.155 456.578 345.51C456.846 344.907 457.015 344.38 457.084 343.93C457.172 343.487 457.131 343.086 456.963 342.726C456.795 342.367 456.488 342.022 456.044 341.693C455.61 341.39 455.018 341.072 454.269 340.739C453.739 340.503 453.118 340.226 452.405 339.909C451.693 339.592 451.04 339.312 450.447 339.07C450.242 339.482 450.025 339.944 449.797 340.455C449.561 340.985 449.342 341.479 449.138 341.935C448.911 342.447 448.698 342.998 448.501 343.589C448.313 344.206 448.238 344.818 448.274 345.426C448.329 346.041 448.529 346.623 448.876 347.171C449.241 347.728 449.862 348.202 450.739 348.592Z" fill="white"/>
<path d="M417.26 375.728C418.601 373.884 420.084 372.897 421.71 372.768C422.345 372.711 423.05 372.778 423.825 372.97C424.605 373.191 425.533 373.581 426.609 374.14C427.674 374.716 428.942 375.489 430.413 376.459C431.888 377.457 433.653 378.702 435.708 380.195C436.372 380.677 436.902 381.087 437.299 381.425C437.713 381.775 438.005 382.086 438.177 382.36C438.366 382.645 438.456 382.895 438.447 383.112C438.426 383.344 438.328 383.581 438.152 383.824C437.811 384.293 437.359 384.472 436.798 384.361C436.236 384.249 435.437 383.817 434.402 383.065C434.046 382.806 433.736 382.569 433.473 382.353C433.198 382.153 432.915 381.947 432.623 381.736C432.348 381.536 432.047 381.305 431.719 381.041C431.379 380.795 430.966 380.495 430.481 380.142C428.863 378.967 427.485 378.039 426.346 377.361C425.196 376.698 424.203 376.261 423.368 376.05C422.549 375.85 421.851 375.875 421.275 376.123C420.687 376.388 420.152 376.853 419.67 377.516C419.164 378.212 418.885 378.886 418.83 379.539C418.781 380.22 418.988 380.939 419.451 381.696C419.931 382.465 420.688 383.311 421.722 384.236C422.744 385.176 424.089 386.252 425.756 387.463C426.484 387.992 427.112 388.436 427.642 388.796C428.16 389.172 428.629 389.513 429.05 389.819C429.648 390.254 430.138 390.635 430.519 390.961C430.888 391.303 431.157 391.597 431.325 391.843C431.497 392.116 431.573 392.369 431.552 392.601C431.532 392.834 431.433 393.071 431.257 393.314C431.081 393.557 430.885 393.724 430.671 393.815C430.456 393.906 430.192 393.912 429.879 393.833C429.565 393.754 429.179 393.572 428.718 393.286C428.274 393.013 427.712 392.63 427.033 392.136C424.185 390.067 421.903 388.273 420.188 386.755C418.489 385.249 417.27 383.881 416.531 382.652C415.809 381.435 415.525 380.277 415.681 379.179C415.84 378.108 416.367 376.958 417.26 375.728Z" fill="white"/>
<path d="M397.861 405.619C398.319 406.068 398.931 406.687 399.697 407.478C400.463 408.269 401.234 409.095 402.01 409.957C402.452 410.448 402.907 410.953 403.375 411.473C403.842 412.022 404.315 412.578 404.796 413.141C405.756 414.267 406.466 415.19 406.924 415.908C407.367 416.639 407.565 417.308 407.52 417.914C407.459 418.534 407.157 419.156 406.615 419.779C406.072 420.402 405.296 421.168 404.285 422.078C404.27 422.092 404.114 422.232 403.817 422.5C403.505 422.781 403.126 423.108 402.682 423.481C402.251 423.869 401.798 424.263 401.324 424.663C400.835 425.077 400.428 425.417 400.102 425.683C399.749 425.947 399.448 426.137 399.202 426.252C398.953 426.394 398.737 426.468 398.553 426.472C398.382 426.492 398.228 426.455 398.091 426.363C397.968 426.286 397.846 426.18 397.725 426.047C397.418 425.705 397.287 425.365 397.333 425.028C397.392 424.705 397.699 424.254 398.253 423.674C398.524 423.377 398.942 422.96 399.509 422.423C400.073 421.914 400.653 421.392 401.248 420.857C401.842 420.322 402.37 419.832 402.833 419.389C403.308 418.961 403.606 418.693 403.724 418.586C404.097 418.224 404.292 417.887 404.308 417.576C404.323 417.294 404.07 416.863 403.548 416.283C403.427 416.149 403.125 415.829 402.642 415.322C402.157 414.844 401.5 414.144 400.671 413.222L398.82 414.888C398.032 415.597 397.38 416.158 396.863 416.57C396.344 417.01 395.917 417.313 395.583 417.48C395.234 417.66 394.933 417.715 394.682 417.645C394.431 417.575 394.185 417.407 393.944 417.139C393.823 417.005 393.724 416.866 393.647 416.72C393.568 416.603 393.541 416.452 393.565 416.27C393.602 416.102 393.69 415.901 393.83 415.667C393.983 415.449 394.224 415.164 394.554 414.813C394.959 414.395 395.347 414.005 395.72 413.642C396.092 413.308 396.463 412.973 396.835 412.639L398.708 410.952C398.507 410.729 398.266 410.462 397.985 410.15C397.704 409.838 397.416 409.518 397.122 409.191C396.827 408.864 396.54 408.545 396.259 408.233C395.963 407.934 395.72 407.695 395.532 407.515C395.303 407.29 395.092 407.116 394.9 406.993C394.694 406.883 394.477 406.836 394.249 406.853C394.007 406.882 393.732 406.996 393.424 407.192C393.102 407.401 392.71 407.714 392.249 408.129L387.456 412.445C386.936 412.913 386.522 413.111 386.214 413.038C385.906 412.965 385.605 412.765 385.311 412.438C385.07 412.171 384.942 411.909 384.927 411.653C384.926 411.413 385.128 411.055 385.536 410.581C385.915 410.105 386.551 409.451 387.444 408.62C388.322 407.802 389.549 406.684 391.125 405.266C391.794 404.663 392.397 404.228 392.935 403.959C393.473 403.689 394.003 403.576 394.525 403.617C395.047 403.659 395.575 403.842 396.111 404.167C396.644 404.521 397.228 405.005 397.861 405.619Z" fill="white"/>
<path d="M351.668 435.413C352.662 435.855 353.625 436.304 354.558 436.758C355.483 437.24 356.491 437.767 357.583 438.338C358.657 438.918 359.873 439.544 361.23 440.215C362.58 440.914 364.183 441.709 366.037 442.601C365.287 441.302 364.612 440.133 364.012 439.094C363.422 438.072 362.881 437.115 362.388 436.221C361.896 435.328 361.433 434.486 361 433.697C360.568 432.908 360.144 432.113 359.728 431.314C359.505 430.888 359.364 430.543 359.303 430.277C359.225 430.022 359.203 429.804 359.237 429.623C359.271 429.442 359.352 429.302 359.481 429.205C359.582 429.1 359.719 428.998 359.892 428.898C360.204 428.718 360.524 428.672 360.852 428.76C361.19 428.865 361.581 429.263 362.025 429.953C363.212 431.808 364.364 433.683 365.481 435.579C366.591 437.501 367.736 439.484 368.916 441.528C369.586 442.689 370.103 443.603 370.465 444.271C370.811 444.949 371.035 445.478 371.139 445.857C371.225 446.246 371.215 446.529 371.109 446.706C370.986 446.892 370.785 447.065 370.508 447.225C370.231 447.385 369.742 447.379 369.042 447.206C368.352 447.05 367.538 446.781 366.601 446.398C365.664 446.015 364.633 445.549 363.506 444.998C362.363 444.457 361.213 443.886 360.057 443.283C358.901 442.68 357.775 442.071 356.681 441.456C355.57 440.851 354.56 440.302 353.652 439.81C354.14 440.614 354.663 441.501 355.223 442.471C355.793 443.458 356.423 444.549 357.113 445.745C357.903 447.113 358.545 448.244 359.037 449.137C359.54 450.048 359.907 450.783 360.137 451.343C360.351 451.912 360.431 452.351 360.378 452.659C360.324 452.967 360.142 453.21 359.83 453.39C359.536 453.56 359.221 453.615 358.886 453.555C358.551 453.494 358.166 453.127 357.731 452.455C357.336 451.851 356.99 451.312 356.693 450.837C356.396 450.362 356.098 449.887 355.801 449.412C355.514 448.954 355.22 448.466 354.92 447.946C354.63 447.444 354.3 446.872 353.93 446.231C353.48 445.452 353.05 444.707 352.64 443.997C352.23 443.287 351.834 442.58 351.451 441.878C351.068 441.175 350.681 440.463 350.288 439.743C349.895 439.023 349.491 438.263 349.076 437.464C348.853 437.038 348.712 436.693 348.651 436.427C348.573 436.172 348.551 435.954 348.585 435.773C348.619 435.592 348.7 435.452 348.829 435.355C348.93 435.25 349.067 435.148 349.24 435.048C349.535 434.878 349.836 434.82 350.144 434.873C350.451 434.926 350.96 435.106 351.668 435.413Z" fill="white"/>
<path d="M321.023 469.686C320.395 469.89 319.73 470.043 319.027 470.145C318.325 470.247 317.66 470.274 317.034 470.225C316.415 470.195 315.872 470.077 315.405 469.871C314.939 469.665 314.638 469.353 314.502 468.934C314.36 468.497 314.366 468.127 314.52 467.824C314.674 467.522 314.922 467.315 315.264 467.204C315.588 467.099 315.911 467.057 316.233 467.078C316.536 467.106 316.881 467.131 317.267 467.153C317.652 467.174 318.101 467.165 318.614 467.125C319.126 467.084 319.744 466.947 320.467 466.712C321.266 466.452 321.955 466.018 322.536 465.409C323.103 464.825 323.545 464.114 323.861 463.275C324.183 462.455 324.352 461.549 324.366 460.556C324.379 459.563 324.216 458.544 323.876 457.497C323.462 456.223 322.942 455.172 322.316 454.345C321.69 453.518 321.021 452.884 320.31 452.442C319.579 452.007 318.841 451.742 318.096 451.647C317.337 451.578 316.625 451.652 315.959 451.868C314.875 452.221 314.069 452.651 313.54 453.159C312.998 453.693 312.618 454.269 312.398 454.887C312.509 455.292 312.654 455.771 312.833 456.323C313.012 456.874 313.207 457.473 313.417 458.12C313.497 458.367 313.578 458.551 313.659 458.672C313.747 458.812 313.879 458.895 314.056 458.922C314.233 458.949 314.477 458.922 314.787 458.842C315.079 458.768 315.472 458.651 315.966 458.49C316.575 458.293 317.094 458.208 317.524 458.237C317.96 458.284 318.265 458.574 318.438 459.107C318.561 459.487 318.565 459.823 318.449 460.113C318.32 460.428 317.948 460.707 317.333 460.949C317.218 460.986 317.038 461.044 316.79 461.125C316.53 461.23 316.258 461.329 315.972 461.422C315.668 461.521 315.373 461.617 315.088 461.709C314.803 461.802 314.574 461.876 314.403 461.932C313.832 462.117 313.357 462.209 312.978 462.206C312.605 462.222 312.226 462.092 311.842 461.818C311.647 461.671 311.463 461.363 311.29 460.893C311.097 460.43 310.899 459.885 310.695 459.257L308.303 451.896C308.136 451.382 308.155 450.955 308.36 450.615C308.546 450.282 308.82 450.056 309.181 449.939C309.619 449.796 310.017 449.793 310.377 449.929C310.711 450.051 310.955 450.35 311.11 450.826L311.472 451.939C311.781 451.207 312.237 450.607 312.842 450.137C313.427 449.673 314.234 449.275 315.261 448.941C316.307 448.601 317.402 448.477 318.546 448.568C319.69 448.658 320.785 448.986 321.831 449.551C322.882 450.134 323.856 450.964 324.753 452.04C325.636 453.14 326.347 454.518 326.884 456.173C327.422 457.828 327.663 459.379 327.608 460.827C327.534 462.281 327.223 463.591 326.677 464.757C326.137 465.942 325.383 466.955 324.415 467.795C323.447 468.635 322.317 469.265 321.023 469.686Z" fill="white"/>
<path d="M276.403 464.771C276.679 464.722 276.966 464.672 277.262 464.621C277.54 464.591 277.829 464.561 278.127 464.53C278.465 464.494 278.803 464.459 279.142 464.423C279.48 464.388 279.86 464.368 280.282 464.364L279.645 458.307C279.578 457.67 279.695 457.256 279.997 457.063C280.281 456.893 280.651 456.783 281.109 456.735C281.348 456.71 281.539 456.71 281.682 456.735C281.823 456.741 281.948 456.778 282.056 456.847C282.146 456.938 282.23 457.07 282.308 457.243C282.367 457.418 282.423 457.663 282.476 457.979C282.554 458.333 282.638 458.847 282.729 459.521C282.822 460.215 282.936 461.108 283.071 462.2C283.186 463.294 283.335 464.616 283.518 466.165C283.683 467.737 283.876 469.576 284.098 471.685C284.184 472.5 284.167 473.296 284.047 474.073C283.93 474.87 283.643 475.584 283.186 476.215C282.732 476.866 282.086 477.417 281.248 477.867C280.391 478.319 279.276 478.617 277.904 478.761C276.929 478.864 275.973 478.853 275.035 478.731C274.077 478.61 273.212 478.319 272.439 477.857C271.667 477.396 271.014 476.73 270.48 475.861C269.946 474.992 269.607 473.872 269.463 472.499C269.27 470.669 269.519 469.205 270.208 468.107C270.879 467.031 271.879 466.212 273.207 465.65L268.632 460.581C268.224 460.141 267.994 459.672 267.942 459.175C267.9 458.777 268.007 458.454 268.262 458.206C268.496 457.94 268.811 457.787 269.209 457.745C269.647 457.699 270.037 457.778 270.381 457.984C270.726 458.209 271.059 458.506 271.379 458.874L276.403 464.771ZM272.449 472.215C272.594 473.588 273.118 474.558 274.022 475.127C274.909 475.717 276.247 475.919 278.038 475.73C278.694 475.661 279.235 475.544 279.66 475.379C280.087 475.234 280.414 474.998 280.641 474.673C280.868 474.347 281.013 473.909 281.076 473.36C281.121 472.832 281.101 472.161 281.015 471.345C280.955 470.768 280.884 470.092 280.802 469.316C280.721 468.541 280.637 467.836 280.55 467.201C280.09 467.229 279.582 467.273 279.025 467.331C278.448 467.392 277.911 467.448 277.414 467.501C276.857 467.559 276.273 467.651 275.663 467.775C275.035 467.922 274.467 468.162 273.959 468.497C273.453 468.852 273.05 469.317 272.748 469.891C272.449 470.486 272.349 471.261 272.449 472.215Z" fill="white"/>
<path d="M226.452 458.236C226.601 458.734 226.762 459.304 226.936 459.946C227.088 460.606 227.256 461.297 227.442 462.02C228.041 462.063 228.669 462.109 229.328 462.158C229.984 462.227 230.65 462.297 231.327 462.368C232.182 462.458 232.958 462.54 233.654 462.613C234.35 462.686 234.986 462.763 235.56 462.843C235.872 462.172 236.17 461.54 236.453 460.946C236.737 460.353 237.003 459.828 237.252 459.371C237.757 458.399 238.387 457.952 239.143 458.032C239.421 458.061 239.68 458.179 239.92 458.385C240.14 458.589 240.232 458.86 240.197 459.198C240.161 459.536 240.055 459.968 239.88 460.492C239.702 461.037 239.491 461.608 239.247 462.205C238.981 462.821 238.705 463.445 238.417 464.079C238.127 464.732 237.852 465.337 237.593 465.893C237.327 466.508 236.964 467.285 236.503 468.222C236.021 469.176 235.514 470.169 234.984 471.199C234.453 472.229 233.925 473.239 233.398 474.23C232.87 475.24 232.396 476.115 231.976 476.856C231.875 477.046 231.753 477.254 231.609 477.481C231.462 477.727 231.298 477.951 231.116 478.153C230.914 478.353 230.705 478.522 230.489 478.66C230.254 478.796 230.007 478.851 229.748 478.823C229.489 478.796 229.26 478.682 229.06 478.48C228.858 478.298 228.69 478.079 228.556 477.823C228.402 477.566 228.279 477.302 228.187 477.03C228.075 476.757 227.989 476.517 227.931 476.31C227.696 475.481 227.434 474.528 227.145 473.452C226.836 472.374 226.538 471.287 226.251 470.191C225.944 469.093 225.662 468.047 225.404 467.055C225.147 466.063 224.943 465.227 224.793 464.547C224.675 463.952 224.541 463.314 224.391 462.635C224.221 461.953 224.07 461.284 223.938 460.627C223.806 459.969 223.71 459.356 223.649 458.786C223.566 458.235 223.543 457.79 223.578 457.451C223.614 457.113 223.77 456.868 224.048 456.717C224.305 456.563 224.573 456.5 224.852 456.53C225.21 456.567 225.525 456.721 225.799 456.991C226.07 457.281 226.288 457.696 226.452 458.236ZM231.043 465.355C230.566 465.305 230.089 465.245 229.614 465.175C229.137 465.125 228.66 465.064 228.185 464.994C228.351 465.716 228.516 466.437 228.682 467.158C228.847 467.879 229.006 468.57 229.158 469.229C229.29 469.887 229.417 470.493 229.54 471.049C229.64 471.623 229.728 472.125 229.804 472.555C229.856 472.822 229.924 473.04 230.006 473.21C230.089 473.379 230.21 473.472 230.369 473.489C230.528 473.506 230.667 473.43 230.785 473.261C230.901 473.113 231.013 472.913 231.119 472.663C231.444 471.873 231.894 470.844 232.469 469.577C233.023 468.328 233.614 467.013 234.242 465.631C233.703 465.594 233.164 465.548 232.627 465.491C232.088 465.455 231.56 465.409 231.043 465.355Z" fill="white"/>
<path d="M181.274 464.332C181.819 464.467 182.399 464.623 183.014 464.802C183.609 464.975 184.272 465.169 185.001 465.385C185.149 464.865 185.287 464.374 185.417 463.911C185.54 463.467 185.666 463.014 185.795 462.552C185.924 462.089 186.069 461.61 186.23 461.116C186.372 460.615 186.542 460.06 186.739 459.452C187.017 458.596 187.286 457.768 187.546 456.969C187.799 456.189 188.065 455.403 188.344 454.61C188.616 453.837 188.892 453.054 189.17 452.261C189.449 451.468 189.746 450.65 190.062 449.806C190.23 449.356 190.392 449.02 190.548 448.797C190.686 448.568 190.833 448.406 190.99 448.31C191.148 448.214 191.306 448.181 191.464 448.211C191.628 448.223 191.806 448.259 191.996 448.321C192.338 448.432 192.596 448.642 192.769 448.951C192.917 449.272 192.883 449.829 192.668 450.622C192.484 451.319 192.277 452.051 192.049 452.818C191.802 453.579 191.546 454.4 191.28 455.281C191.015 456.162 190.719 457.107 190.391 458.115C190.057 459.142 189.69 460.274 189.288 461.51C188.948 462.556 188.651 463.469 188.398 464.249C188.126 465.023 187.878 465.689 187.654 466.247L188.824 466.627C189.623 466.887 190.305 467.119 190.869 467.323C191.414 467.521 191.856 467.717 192.192 467.911C192.523 468.123 192.743 468.352 192.852 468.598C192.942 468.838 192.932 469.129 192.821 469.471C192.765 469.642 192.697 469.788 192.615 469.909C192.528 470.049 192.399 470.154 192.229 470.225C192.052 470.315 191.838 470.361 191.585 470.363C191.313 470.359 190.98 470.314 190.588 470.228C190.22 470.13 189.89 470.044 189.599 469.97C189.307 469.896 189.016 469.823 188.724 469.749C188.433 469.675 188.135 469.589 187.831 469.49C187.526 469.391 187.174 469.277 186.775 469.147C185.653 468.783 184.6 468.43 183.617 468.09C182.615 467.743 181.562 467.359 180.459 466.937C180.015 466.751 179.681 466.579 179.459 466.423C179.23 466.286 179.068 466.138 178.972 465.981C178.875 465.823 178.843 465.666 178.873 465.507C178.884 465.343 178.921 465.165 178.983 464.975C179.094 464.633 179.31 464.388 179.632 464.24C179.934 464.086 180.482 464.116 181.274 464.332Z" fill="white"/>
<path d="M139.56 444.547C140.065 444.793 140.6 445.067 141.164 445.369C141.711 445.662 142.318 445.99 142.987 446.352C143.239 445.875 143.477 445.423 143.7 444.997C143.912 444.589 144.13 444.172 144.353 443.746C144.575 443.321 144.817 442.883 145.077 442.432C145.319 441.972 145.601 441.465 145.921 440.91C146.371 440.131 146.806 439.378 147.226 438.65C147.636 437.94 148.059 437.226 148.497 436.509C148.924 435.809 149.356 435.1 149.794 434.382C150.231 433.665 150.692 432.926 151.177 432.167C151.434 431.761 151.662 431.466 151.862 431.281C152.044 431.086 152.221 430.957 152.395 430.896C152.569 430.835 152.731 430.836 152.879 430.898C153.038 430.944 153.204 431.016 153.377 431.116C153.689 431.296 153.897 431.555 154.002 431.893C154.08 432.238 153.931 432.776 153.556 433.506C153.231 434.15 152.877 434.823 152.494 435.526C152.094 436.218 151.673 436.968 151.23 437.775C150.787 438.582 150.301 439.444 149.771 440.362C149.231 441.297 148.636 442.328 147.986 443.454C147.436 444.406 146.956 445.238 146.546 445.948C146.118 446.648 145.738 447.248 145.403 447.747L146.468 448.362C147.196 448.782 147.814 449.151 148.324 449.468C148.816 449.776 149.207 450.059 149.496 450.318C149.775 450.595 149.942 450.865 149.998 451.128C150.037 451.381 149.966 451.664 149.786 451.976C149.696 452.131 149.599 452.26 149.494 452.361C149.379 452.48 149.232 452.556 149.05 452.59C148.859 452.641 148.64 452.641 148.392 452.591C148.126 452.53 147.811 452.417 147.444 452.252C147.105 452.079 146.801 451.926 146.531 451.794C146.261 451.661 145.991 451.528 145.722 451.396C145.452 451.263 145.178 451.117 144.901 450.957C144.624 450.797 144.304 450.612 143.94 450.402C142.918 449.812 141.962 449.248 141.071 448.711C140.163 448.163 139.213 447.569 138.221 446.927C137.825 446.652 137.535 446.415 137.35 446.216C137.155 446.034 137.026 445.856 136.965 445.682C136.904 445.508 136.905 445.347 136.967 445.198C137.013 445.04 137.085 444.874 137.185 444.701C137.365 444.389 137.628 444.194 137.973 444.116C138.301 444.028 138.83 444.172 139.56 444.547Z" fill="white"/>
<path d="M112.944 403.107C112.771 403.597 112.567 404.153 112.33 404.774C112.065 405.397 111.795 406.056 111.52 406.75C111.979 407.137 112.461 407.543 112.965 407.97C113.455 408.412 113.953 408.86 114.459 409.315C115.098 409.89 115.677 410.412 116.198 410.881C116.718 411.349 117.187 411.785 117.604 412.188C118.251 411.828 118.864 411.492 119.442 411.178C120.02 410.864 120.544 410.596 121.014 410.373C121.994 409.883 122.766 409.892 123.331 410.401C123.539 410.588 123.68 410.836 123.752 411.143C123.81 411.438 123.726 411.711 123.498 411.964C123.27 412.217 122.931 412.503 122.481 412.824C122.017 413.16 121.511 413.498 120.962 413.839C120.385 414.18 119.794 414.523 119.189 414.866C118.571 415.224 117.993 415.552 117.456 415.849C116.88 416.191 116.129 416.606 115.206 417.093C114.255 417.582 113.261 418.087 112.227 418.609C111.192 419.13 110.171 419.637 109.162 420.129C108.141 420.635 107.243 421.065 106.469 421.417C106.275 421.512 106.054 421.609 105.804 421.707C105.541 421.82 105.276 421.904 105.01 421.961C104.729 422.004 104.461 422.018 104.205 422.003C103.934 421.975 103.703 421.873 103.509 421.699C103.316 421.526 103.198 421.298 103.155 421.017C103.099 420.751 103.091 420.475 103.133 420.19C103.16 419.891 103.216 419.605 103.3 419.331C103.37 419.044 103.442 418.8 103.517 418.598C103.814 417.789 104.162 416.865 104.561 415.824C104.945 414.77 105.343 413.715 105.755 412.66C106.152 411.591 106.538 410.58 106.913 409.625C107.287 408.671 107.614 407.875 107.892 407.237C108.146 406.686 108.413 406.091 108.691 405.454C108.954 404.803 109.226 404.172 109.505 403.563C109.785 402.954 110.067 402.401 110.353 401.904C110.61 401.409 110.853 401.035 111.08 400.783C111.308 400.53 111.578 400.424 111.892 400.464C112.191 400.491 112.444 400.598 112.652 400.785C112.92 401.026 113.085 401.336 113.147 401.715C113.196 402.109 113.128 402.573 112.944 403.107ZM112.474 411.564C112.117 411.243 111.767 410.915 111.423 410.579C111.067 410.257 110.717 409.929 110.373 409.593C110.083 410.274 109.793 410.954 109.503 411.635C109.213 412.316 108.936 412.968 108.671 413.591C108.392 414.2 108.138 414.766 107.91 415.287C107.655 415.811 107.431 416.268 107.239 416.661C107.124 416.908 107.051 417.124 107.018 417.31C106.985 417.495 107.028 417.642 107.147 417.749C107.266 417.856 107.423 417.876 107.618 417.809C107.799 417.757 108.006 417.661 108.24 417.522C108.967 417.073 109.936 416.505 111.146 415.819C112.328 415.134 113.579 414.417 114.899 413.668C114.485 413.321 114.077 412.967 113.675 412.606C113.261 412.26 112.86 411.912 112.474 411.564Z" fill="white"/>
<path d="M86.2566 371.356C85.9209 372.391 85.5756 373.396 85.2208 374.371C84.838 375.341 84.4199 376.399 83.9664 377.544C83.5012 378.673 83.0058 379.948 82.4802 381.368C81.9266 382.784 81.3031 384.461 80.6096 386.398C81.8231 385.517 82.9153 384.723 83.8861 384.018C84.8408 383.324 85.7366 382.686 86.5735 382.102C87.4105 381.519 88.1989 380.971 88.9388 380.458C89.6786 379.945 90.4244 379.441 91.176 378.944C91.5761 378.678 91.9048 378.501 92.1622 378.413C92.4078 378.308 92.6225 378.264 92.8063 378.279C92.9901 378.293 93.1371 378.36 93.2473 378.477C93.362 378.567 93.4781 378.693 93.5956 378.855C93.8072 379.146 93.8865 379.459 93.8334 379.794C93.7641 380.141 93.4096 380.572 92.7697 381.086C91.0486 382.46 89.304 383.802 87.536 385.111C85.7399 386.416 83.8873 387.762 81.978 389.149C80.8939 389.937 80.0386 390.546 79.412 390.977C78.7736 391.391 78.2713 391.669 77.9051 391.812C77.5272 391.938 77.2448 391.958 77.0581 391.871C76.8597 391.768 76.6664 391.587 76.4783 391.328C76.2902 391.069 76.2456 390.583 76.3445 389.868C76.4271 389.165 76.6099 388.328 76.8927 387.356C77.1754 386.384 77.5318 385.309 77.9617 384.132C78.3799 382.938 78.8282 381.735 79.3067 380.522C79.7852 379.309 80.2732 378.126 80.7707 376.974C81.2565 375.805 81.6967 374.743 82.0912 373.789C81.3425 374.358 80.5151 374.972 79.609 375.63C78.6867 376.3 77.6674 377.041 76.5509 377.852C75.2727 378.78 74.2151 379.536 73.3781 380.12C72.525 380.715 71.8322 381.156 71.2998 381.444C70.7556 381.716 70.3276 381.842 70.0159 381.821C69.7042 381.8 69.4425 381.644 69.2309 381.353C69.0311 381.078 68.9437 380.771 68.9689 380.431C68.994 380.091 69.3185 379.67 69.9422 379.168C70.5011 378.712 71.0013 378.311 71.4426 377.966C71.8839 377.621 72.3252 377.275 72.7665 376.93C73.1916 376.597 73.6468 376.253 74.1322 375.901C74.6015 375.56 75.1354 375.172 75.7341 374.737C76.4622 374.208 77.158 373.702 77.8214 373.22C78.4848 372.738 79.1459 372.27 79.8049 371.816C80.4639 371.362 81.1309 370.902 81.8061 370.437C82.4812 369.971 83.1946 369.49 83.9463 368.993C84.3463 368.727 84.6751 368.55 84.9324 368.462C85.178 368.358 85.3927 368.313 85.5765 368.328C85.7603 368.342 85.9073 368.409 86.0176 368.526C86.1322 368.616 86.2483 368.742 86.3659 368.904C86.5657 369.179 86.6553 369.472 86.6346 369.784C86.6138 370.096 86.4878 370.62 86.2566 371.356Z" fill="white"/>
<path d="M65.3512 332.799C64.994 333.177 64.5811 333.602 64.1123 334.073C63.6171 334.534 63.1026 335.026 62.5689 335.548C62.8312 336.088 63.1057 336.656 63.3925 337.25C63.6609 337.853 63.9334 338.465 64.21 339.087C64.5598 339.872 64.8771 340.585 65.1618 341.224C65.4465 341.864 65.6977 342.453 65.9153 342.991C66.6524 342.925 67.3489 342.867 68.0048 342.816C68.6606 342.764 69.2485 342.733 69.7684 342.72C70.8629 342.671 71.5647 342.993 71.8738 343.687C71.9877 343.943 72.0153 344.226 71.9566 344.537C71.8898 344.83 71.7011 345.045 71.3905 345.183C71.0799 345.322 70.6535 345.446 70.1114 345.556C69.551 345.674 68.951 345.777 68.3114 345.864C67.6453 345.942 66.9661 346.015 66.2737 346.082C65.563 346.158 64.9021 346.222 64.2909 346.275C63.6248 346.353 62.771 346.427 61.7293 346.496C60.6612 346.556 59.5484 346.613 58.3909 346.669C57.2335 346.725 56.0943 346.772 54.9734 346.811C53.8342 346.859 52.8392 346.886 51.9883 346.893C51.7731 346.901 51.5314 346.899 51.2634 346.887C50.977 346.883 50.7008 346.853 50.4348 346.796C50.1606 346.721 49.9097 346.625 49.6822 346.507C49.4466 346.371 49.2759 346.185 49.1701 345.947C49.0644 345.71 49.049 345.454 49.1239 345.18C49.1806 344.913 49.286 344.659 49.4402 344.415C49.5862 344.153 49.7536 343.914 49.9423 343.699C50.1229 343.465 50.2883 343.271 50.4385 343.116C51.0391 342.499 51.7332 341.796 52.5206 341.007C53.2998 340.201 54.0923 339.399 54.8979 338.602C55.6955 337.788 56.4595 337.02 57.1901 336.301C57.9207 335.582 58.5427 334.987 59.0562 334.518C59.5128 334.118 59.9979 333.683 60.5113 333.213C61.0166 332.726 61.521 332.26 62.0243 331.817C62.5276 331.374 63.0107 330.984 63.4734 330.647C63.9098 330.299 64.2833 330.056 64.5939 329.918C64.9045 329.78 65.1949 329.793 65.4651 329.957C65.7271 330.103 65.9151 330.304 66.029 330.56C66.1754 330.889 66.2 331.239 66.1028 331.61C65.9873 331.99 65.7368 332.386 65.3512 332.799ZM61.4816 340.334C61.2863 339.896 61.1002 339.453 60.9233 339.007C60.728 338.568 60.5419 338.126 60.365 337.679C59.8231 338.183 59.2813 338.687 58.7394 339.191C58.1975 339.695 57.679 340.177 57.1838 340.639C56.6805 341.082 56.2188 341.495 55.7987 341.879C55.3522 342.253 54.9615 342.58 54.6266 342.861C54.4216 343.04 54.2664 343.207 54.1609 343.364C54.0554 343.52 54.0352 343.672 54.1003 343.818C54.1653 343.964 54.3004 344.046 54.5055 344.064C54.6924 344.09 54.9208 344.087 55.1909 344.055C56.0376 343.94 57.1534 343.816 58.5382 343.681C59.8967 343.536 61.3313 343.39 62.842 343.242C62.6041 342.757 62.3753 342.268 62.1557 341.775C61.9178 341.289 61.6931 340.809 61.4816 340.334Z" fill="white"/>
</g>
<defs>
<filter id="filter0_i_8_65" x="5.00001" y="6.00024" width="504" height="504" filterUnits="userSpaceOnUse" color-interpolation-filters="sRGB">
<feFlood flood-opacity="0" result="BackgroundImageFix"/>
<feBlend mode="normal" in="SourceGraphic" in2="BackgroundImageFix" result="shape"/>
<feColorMatrix in="SourceAlpha" type="matrix" values="0 0 0 0 0 0 0 0 0 0 0 0 0 0 0 0 0 0 127 0" result="hardAlpha"/>
<feOffset dx="15" dy="15"/>
<feGaussianBlur stdDeviation="2"/>
<feComposite in2="hardAlpha" operator="arithmetic" k2="-1" k3="1"/>
<feColorMatrix type="matrix" values="0 0 0 0 0 0 0 0 0 0 0 0 0 0 0 0 0 0 0.25 0"/>
<feBlend mode="normal" in2="shape" result="effect1_innerShadow_8_65"/>
</filter>
<filter id="filter1_f_8_65" x="-198.219" y="-767.189" width="2266.53" height="1691.4" filterUnits="userSpaceOnUse" color-interpolation-filters="sRGB">
<feFlood flood-opacity="0" result="BackgroundImageFix"/>
<feBlend mode="normal" in="SourceGraphic" in2="BackgroundImageFix" result="shape"/>
<feGaussianBlur stdDeviation="200" result="effect1_foregroundBlur_8_65"/>
</filter>
<filter id="filter2_f_8_65" x="-889.698" y="-823.641" width="1532.97" height="1802.53" filterUnits="userSpaceOnUse" color-interpolation-filters="sRGB">
<feFlood flood-opacity="0" result="BackgroundImageFix"/>
<feBlend mode="normal" in="SourceGraphic" in2="BackgroundImageFix" result="shape"/>
<feGaussianBlur stdDeviation="200" result="effect1_foregroundBlur_8_65"/>
</filter>
<filter id="filter3_f_8_65" x="-596.766" y="-13.6438" width="1161.93" height="953.277" filterUnits="userSpaceOnUse" color-interpolation-filters="sRGB">
<feFlood flood-opacity="0" result="BackgroundImageFix"/>
<feBlend mode="normal" in="SourceGraphic" in2="BackgroundImageFix" result="shape"/>
<feGaussianBlur stdDeviation="150" result="effect1_foregroundBlur_8_65"/>
</filter>
<filter id="filter4_f_8_65" x="-228.345" y="180.927" width="891.127" height="849.872" filterUnits="userSpaceOnUse" color-interpolation-filters="sRGB">
<feFlood flood-opacity="0" result="BackgroundImageFix"/>
<feBlend mode="normal" in="SourceGraphic" in2="BackgroundImageFix" result="shape"/>
<feGaussianBlur stdDeviation="100" result="effect1_foregroundBlur_8_65"/>
</filter>
<filter id="filter5_f_8_65" x="-4.81273" y="-110.14" width="1268.65" height="1141.56" filterUnits="userSpaceOnUse" color-interpolation-filters="sRGB">
<feFlood flood-opacity="0" result="BackgroundImageFix"/>
<feBlend mode="normal" in="SourceGraphic" in2="BackgroundImageFix" result="shape"/>
<feGaussianBlur stdDeviation="150" result="effect1_foregroundBlur_8_65"/>
</filter>
<filter id="filter6_d_8_65" x="122" y="111.5" width="154.4" height="229.7" filterUnits="userSpaceOnUse" color-interpolation-filters="sRGB">
<feFlood flood-opacity="0" result="BackgroundImageFix"/>
<feColorMatrix in="SourceAlpha" type="matrix" values="0 0 0 0 0 0 0 0 0 0 0 0 0 0 0 0 0 0 127 0" result="hardAlpha"/>
<feOffset dy="10"/>
<feGaussianBlur stdDeviation="2"/>
<feComposite in2="hardAlpha" operator="out"/>
<feColorMatrix type="matrix" values="0 0 0 0 0 0 0 0 0 0 0 0 0 0 0 0 0 0 0.25 0"/>
<feBlend mode="normal" in2="BackgroundImageFix" result="effect1_dropShadow_8_65"/>
<feBlend mode="normal" in="SourceGraphic" in2="effect1_dropShadow_8_65" result="shape"/>
</filter>
<filter id="filter7_d_8_65" x="194" y="186.4" width="175.1" height="230.6" filterUnits="userSpaceOnUse" color-interpolation-filters="sRGB">
<feFlood flood-opacity="0" result="BackgroundImageFix"/>
<feColorMatrix in="SourceAlpha" type="matrix" values="0 0 0 0 0 0 0 0 0 0 0 0 0 0 0 0 0 0 127 0" result="hardAlpha"/>
<feOffset dy="10"/>
<feGaussianBlur stdDeviation="2"/>
<feComposite in2="hardAlpha" operator="out"/>
<feColorMatrix type="matrix" values="0 0 0 0 0 0 0 0 0 0 0 0 0 0 0 0 0 0 0.25 0"/>
<feBlend mode="normal" in2="BackgroundImageFix" result="effect1_dropShadow_8_65"/>
<feBlend mode="normal" in="SourceGraphic" in2="effect1_dropShadow_8_65" result="shape"/>
</filter>
<filter id="filter8_d_8_65" x="301" y="105" width="85.8" height="86.6" filterUnits="userSpaceOnUse" color-interpolation-filters="sRGB">
<feFlood flood-opacity="0" result="BackgroundImageFix"/>
<feColorMatrix in="SourceAlpha" type="matrix" values="0 0 0 0 0 0 0 0 0 0 0 0 0 0 0 0 0 0 127 0" result="hardAlpha"/>
<feOffset dy="4"/>
<feGaussianBlur stdDeviation="2"/>
<feComposite in2="hardAlpha" operator="out"/>
<feColorMatrix type="matrix" values="0 0 0 0 0 0 0 0 0 0 0 0 0 0 0 0 0 0 0.25 0"/>
<feBlend mode="normal" in2="BackgroundImageFix" result="effect1_dropShadow_8_65"/>
<feBlend mode="normal" in="SourceGraphic" in2="effect1_dropShadow_8_65" result="shape"/>
</filter>
<clipPath id="clip0_8_65">
<rect x="5.00001" y="6.00024" width="500" height="500" rx="250" fill="white"/>
</clipPath>
</defs>
</svg>
