<svg width="100" height="67" viewBox="0 0 100 67" fill="none" xmlns="http://www.w3.org/2000/svg">
<path d="M56 67H93C94.1807 67 95.3108 66.5831 96.3333 65.995C97.3559 65.4069 98.4099 64.6686 99 63.6498C99.5901 62.6313 100 61.4756 100 60.2997C99.9995 59.1236 99.591 57.9683 99 56.9503L74 13.7351C73.4099 12.7166 72.6889 11.978 71.6667 11.3899C70.6443 10.8021 69.1804 10.3849 68 10.3849C66.8196 10.3849 65.6889 10.8021 64.6667 11.3899C63.6443 11.978 62.9233 12.7166 62.3333 13.7351L56 24.7901L43.3333 3.34921C42.7427 2.33093 42.0226 1.25791 41 0.670079C39.9774 0.0820125 38.8474 0 37.6667 0C36.4861 0 35.3559 0.0820125 34.3333 0.670079C33.3109 1.25791 32.2573 2.33093 31.6667 3.34921L0.666677 56.9503C0.0756626 57.9683 0.000521454 59.1236 2.58619e-06 60.2997C-0.000516282 61.4756 0.0765588 62.6311 0.666677 63.6498C1.25679 64.6684 2.31083 65.4069 3.33333 65.995C4.35585 66.5831 5.48592 67 6.66668 67H30C39.2455 67 45.975 62.8319 50.6667 54.94L62 35.175L68 24.7901L86.3333 56.2799H62L56 67ZM29.6667 56.2799H13.3333L37.6667 14.07L50 35.175L41.8304 49.4877C38.7149 54.6082 35.1625 56.2799 29.6667 56.2799Z" fill="#00DC82"/>
</svg>
