<svg width="35" height="34" viewBox="0 0 35 34" fill="none" xmlns="http://www.w3.org/2000/svg">
<path d="M13.2355 13.941V12.5832C13.2355 10.8824 12.7666 10.4414 11.4857 10.4414H10.4219V16.1807H11.5347C12.7876 16.1807 13.2355 15.6768 13.2355 13.941Z" fill="#A5EBD7"/>
<path d="M0.75 0.125V33.875H34.4858V0.125H0.75ZM6.07633 7.50913H11.6336C15.0772 7.50913 17.051 9.20992 17.051 13.1995C17.051 17.189 15.0772 18.8618 11.6546 18.8618H10.4508V23.5442H6.07633L6.77624 20.7446V10.3228L6.07633 7.50913ZM16.722 29.4445H6.07633V26.4909H16.722V29.4445ZM29.1664 26.4909H16.722V23.5372H29.1664V26.4909ZM29.1664 20.5766H26.6048L25.8419 18.9318L24.883 20.5276C24.2477 20.7747 23.5697 20.8937 22.8883 20.8775C20.6695 20.8775 18.6888 19.5197 18.6888 15.0892V7.39014L17.9889 4.59047H22.3633V15.9921C22.3633 17.4479 22.8113 18.0359 23.8401 18.0359C24.4171 18.0572 24.9908 17.9396 25.5129 17.6929V7.40414L24.813 4.60447H29.1875L29.1664 20.5766Z" fill="#A5EBD7"/>
</svg>
