<svg width="543" height="67" viewBox="0 0 543 67" fill="none" xmlns="http://www.w3.org/2000/svg">
<g clip-path="url(#clip0_22_15)">
<path fill-rule="evenodd" clip-rule="evenodd" d="M167.877 28.3392H158.103V47.2622C158.103 52.3325 161.452 52.2419 167.877 51.9703V59.6662C154.755 61.2054 149.596 57.5838 149.596 47.3527V28.4297H142.356V20.1905H149.596V9.59731L158.103 7.06216V20.1905H167.877V28.3392ZM205.163 20.1H213.67V59.5757H205.163V53.8716C202.177 58.0365 197.471 60.5716 191.317 60.5716C180.547 60.5716 171.678 51.5176 171.678 39.8379C171.678 28.0676 180.638 19.1041 191.317 19.1041C197.471 19.1041 202.177 21.6392 205.163 25.7135V20.1ZM192.674 52.5135C199.824 52.5135 205.163 47.2622 205.163 39.8379C205.163 32.5041 199.824 27.1622 192.674 27.1622C185.615 27.1622 180.185 32.4135 180.185 39.8379C180.185 47.2622 185.615 52.5135 192.674 52.5135ZM227.879 14.2149C224.892 14.2149 222.449 11.6798 222.449 8.78245C222.449 5.79462 224.892 3.35002 227.879 3.35002C230.865 3.35002 233.309 5.79462 233.309 8.78245C233.399 11.6798 230.865 14.2149 227.879 14.2149ZM223.625 59.5757V20.1H232.132V59.5757H223.625ZM241.997 59.5757V1.90137H250.504V59.5757H241.997ZM305.89 20.1H314.849L302.451 59.5757H294.125L285.889 32.9568L277.563 59.5757H269.237L256.839 20.1H265.798L273.491 47.3527L281.817 20.1H289.962L298.197 47.3527L305.89 20.1ZM325.528 14.2149C322.542 14.2149 320.098 11.6798 320.098 8.78245C320.098 5.79462 322.542 3.35002 325.528 3.35002C328.515 3.35002 330.958 5.79462 330.958 8.78245C330.958 11.6798 328.515 14.2149 325.528 14.2149ZM321.184 59.5757V20.1H329.691V59.5757H321.184ZM360.371 19.1041C369.24 19.1041 375.575 25.0797 375.575 35.4014V59.6662H367.068V36.2162C367.068 30.2406 363.629 27.0716 358.199 27.0716C352.588 27.0716 348.153 30.4216 348.153 38.4797V59.6662H339.646V20.1905H348.153V25.2608C350.778 21.096 355.031 19.1041 360.371 19.1041ZM415.938 4.34595H424.445V59.6662H415.938V53.9622C412.951 58.127 408.245 60.6622 402.091 60.6622C391.322 60.6622 382.453 51.6081 382.453 39.9284C382.453 28.1581 391.412 19.1946 402.091 19.1946C408.245 19.1946 412.951 21.7297 415.938 25.8041V4.34595ZM403.539 52.5135C410.689 52.5135 416.028 47.2622 416.028 39.8379C416.028 32.5041 410.689 27.1622 403.539 27.1622C396.48 27.1622 391.05 32.4135 391.05 39.8379C391.05 47.2622 396.39 52.5135 403.539 52.5135ZM453.043 60.6622C441.097 60.6622 432.228 51.6081 432.228 39.9284C432.228 28.1581 441.187 19.1946 453.043 19.1946C460.826 19.1946 467.523 23.1784 470.69 29.4257L463.36 33.6811C461.64 29.9689 457.749 27.6149 453.043 27.6149C446.074 27.6149 440.825 32.8662 440.825 40.0189C440.825 47.1716 446.074 52.423 453.043 52.423C457.749 52.423 461.64 49.9784 463.541 46.3568L470.871 50.5216C467.523 56.5878 460.826 60.6622 453.043 60.6622ZM484.899 31.0554C484.899 38.2081 506.166 33.8622 506.166 48.5297C506.166 56.4068 499.288 60.6622 490.781 60.6622C482.908 60.6622 477.206 57.1311 474.672 51.427L482.003 47.1716C483.27 50.7027 486.437 52.8757 490.781 52.8757C494.582 52.8757 497.478 51.6081 497.478 48.4392C497.478 41.377 476.211 45.3608 476.211 31.2365C476.211 23.8122 482.636 19.1946 490.691 19.1946C497.207 19.1946 502.546 22.1824 505.261 27.4338L498.112 31.4176C496.664 28.3392 493.949 26.8906 490.691 26.8906C487.614 26.8 484.899 28.1581 484.899 31.0554ZM521.28 31.0554C521.28 38.2081 542.547 33.8622 542.547 48.5297C542.547 56.4068 535.669 60.6622 527.162 60.6622C519.289 60.6622 513.587 57.1311 511.053 51.427L518.384 47.1716C519.651 50.7027 522.818 52.8757 527.162 52.8757C530.963 52.8757 533.859 51.6081 533.859 48.4392C533.859 41.377 512.592 45.3608 512.592 31.2365C512.592 23.8122 519.017 19.1946 527.072 19.1946C533.588 19.1946 538.927 22.1824 541.642 27.4338L534.493 31.4176C533.045 28.3392 530.33 26.8906 527.072 26.8906C523.995 26.8 521.28 28.1581 521.28 31.0554Z" fill="black"/>
<path fill-rule="evenodd" clip-rule="evenodd" d="M55.6576 0C40.7251 0 31.3131 7.51485 27.6026 22.454C33.2136 14.9392 39.7296 12.1324 47.2411 14.0338C51.4946 15.1203 54.5716 18.1986 57.9201 21.6392C63.4406 27.2527 69.7756 33.6811 83.7126 33.6811C98.6451 33.6811 108.057 26.1662 111.768 11.227C106.157 18.7419 99.6406 21.5487 92.1291 19.6473C87.8756 18.5608 84.7986 15.4824 81.4501 12.0419C75.9296 6.42837 69.5946 0 55.6576 0ZM27.6026 33.5905C12.6701 33.5905 3.25811 41.1054 -0.452393 56.0446C5.15861 48.5297 11.6746 45.723 19.1861 47.6243C23.4396 48.7108 26.5166 51.7892 29.8651 55.2297C35.3856 60.8432 41.7206 67.2716 55.6576 67.2716C70.5901 67.2716 80.0021 59.7568 83.7126 44.8176C78.1016 52.3324 71.5856 55.1392 64.0741 53.2378C59.8206 52.1513 56.7436 49.073 53.3951 45.6324C47.8746 40.1095 41.5396 33.5905 27.6026 33.5905Z" fill="#06B6D4"/>
</g>
<defs>
<clipPath id="clip0_22_15">
<rect width="543" height="67" fill="white"/>
</clipPath>
</defs>
</svg>
