<svg width="190" height="57" viewBox="0 0 190 57" fill="none" xmlns="http://www.w3.org/2000/svg">
<g clip-path="url(#clip0_1871_6762)">
<path d="M43.3431 14.9706L41.2541 16.2773L33.8314 20.9197L23.9122 27.1267C23.5052 27.3805 22.9925 27.3825 22.5836 27.1267L6.65861 17.2121L2.85689 14.8446C2.0447 14.3389 2.03702 13.1305 2.84345 12.6149L21.9211 0.39783C22.7583 -0.139423 23.8239 -0.131551 24.6553 0.415543L36.646 8.32083L43.3664 12.7507C44.1594 13.2722 44.146 14.4648 43.3412 14.9686L43.3431 14.9706Z" fill="#F3CF45"/>
<path d="M46.0834 17.6136V36.8662C46.0834 37.7655 45.6321 38.5997 44.8911 39.0802L29.6956 48.8963C29.229 49.1994 29.0793 49.825 29.3616 50.3132L32.0669 55.0147C32.737 56.1815 31.4486 57.4982 30.3139 56.8035L24.7246 53.3929C24.3387 53.1568 24.1006 52.7297 24.1006 52.2693V29.7677C24.1006 29.3111 24.331 28.888 24.7131 28.6499L34.6494 22.4331L42.0954 17.7749L44.1442 16.4938C44.9947 15.9605 46.0854 16.5902 46.0854 17.6116L46.0834 17.6136Z" fill="#ED2E5B"/>
<path d="M22.4109 29.7775V49.6815C22.4109 50.6968 21.3318 51.3268 20.4794 50.8071L6.49748 42.2759L1.24804 39.0721C0.474255 38.6 0 37.7457 0 36.8227V17.4168C0 16.3954 1.08867 15.7676 1.93926 16.297L5.79089 18.694L21.7946 28.6577C22.1747 28.8939 22.409 29.319 22.409 29.7775H22.4109Z" fill="#57C0B2"/>
<path d="M93.596 1.91907H98.7339C99.3735 1.91907 99.9455 2.32446 100.17 2.9365L108.407 25.2728C108.657 25.9498 109.592 25.9518 109.843 25.2748L118.157 2.93256C118.384 2.3225 118.956 1.91907 119.592 1.91907H124.72C125.458 1.91907 126.091 2.45632 126.229 3.19824L132.393 36.3151C132.573 37.2854 131.848 38.1847 130.883 38.1847H126.602C125.866 38.1847 125.233 37.6492 125.095 36.9096L121.531 17.9894C121.385 17.2121 120.335 17.1176 120.06 17.8576L112.85 37.1731C112.624 37.7833 112.052 38.1847 111.416 38.1847H106.785C106.147 38.1847 105.575 37.7793 105.349 37.1691L98.2041 17.8537C97.9294 17.1137 96.8833 17.2042 96.7335 17.9796L93.0813 36.9173C92.9394 37.6553 92.3076 38.1867 91.5741 38.1867H87.2368C86.2691 38.1867 85.5431 37.2814 85.7295 36.307L92.0908 3.19037C92.2327 2.45238 92.8645 1.92104 93.598 1.92104L93.596 1.91907Z" fill="#071957"/>
<path d="M140.071 1.91907H158.963C159.811 1.91907 160.499 2.6236 160.499 3.49344V7.09873C160.499 7.96858 159.811 8.6731 158.963 8.6731H146.907C146.482 8.6731 146.139 9.02536 146.139 9.4603V15.4271C146.139 15.8621 146.482 16.2143 146.907 16.2143H156.658C157.507 16.2143 158.195 16.9189 158.195 17.7887V21.272C158.195 22.1418 157.507 22.8464 156.658 22.8464H146.907C146.482 22.8464 146.139 23.1986 146.139 23.6336V30.6159C146.139 31.0508 146.482 31.4031 146.907 31.4031H158.963C159.811 31.4031 160.499 32.1076 160.499 32.9774V36.6085C160.499 37.4782 159.811 38.1827 158.963 38.1827H140.071C139.222 38.1827 138.535 37.4782 138.535 36.6085V3.49344C138.535 2.6236 139.222 1.91907 140.071 1.91907Z" fill="#071957"/>
<path d="M187.69 7.96261L184.549 10.4599C183.929 10.9539 183.048 10.8831 182.5 10.3064C180.803 8.51363 179.079 7.61625 177.332 7.61625C176.327 7.61625 175.504 7.8583 174.866 8.34437C174.227 8.82851 173.906 9.3756 173.906 9.98369C173.906 10.5918 174.135 11.1664 174.592 11.7076C175.212 12.4318 177.084 13.9846 180.208 16.3678C183.13 18.5718 184.902 19.9593 185.523 20.5359C187.076 21.9489 188.176 23.3009 188.825 24.5899C189.474 25.8789 189.798 27.288 189.798 28.8171C189.798 31.7926 188.656 34.2486 186.375 36.1889C184.094 38.1276 181.118 39.0976 177.449 39.0976C174.582 39.0976 172.086 38.4639 169.961 37.1985C168.246 36.1792 166.729 34.6875 165.41 32.7254C164.89 31.9501 165.145 30.8815 165.955 30.4387L169.715 28.394C170.389 28.0279 171.222 28.2247 171.673 28.8544C173.432 31.3105 175.413 32.5365 177.62 32.5365C178.935 32.5365 180.041 32.1921 180.936 31.5014C181.83 30.8106 182.278 30.0136 182.278 29.1103C182.278 28.2877 181.94 27.4651 181.264 26.6444C180.588 25.8238 179.1 24.5663 176.798 22.8738C172.414 19.6523 169.582 17.1667 168.304 15.4153C167.025 13.6657 166.385 11.9202 166.385 10.1766C166.385 7.66346 167.449 5.5046 169.575 3.70592C171.7 1.90718 174.325 1.00586 177.449 1.00586C179.457 1.00586 181.369 1.42503 183.186 2.26339C184.626 2.92856 186.16 4.02669 187.79 5.55972C188.489 6.217 188.439 7.36434 187.69 7.96063V7.96261Z" fill="#071957"/>
<path d="M84.2437 3.49537V7.14987C84.2437 8.01972 83.5563 8.72424 82.7077 8.72424H75.6188C75.1943 8.72424 74.8506 9.0765 74.8506 9.51141V36.6101C74.8506 37.4802 74.1632 38.1847 73.3146 38.1847H68.6182C67.7696 38.1847 67.0822 37.4802 67.0822 36.6101V9.51339C67.0822 9.07848 66.7385 8.72622 66.314 8.72622H59.4191C58.5705 8.72622 57.8831 8.02167 57.8831 7.15185V3.49734C57.8831 2.6275 58.5705 1.92297 59.4191 1.92297H82.7077C83.5563 1.92297 84.2437 2.6275 84.2437 3.49734V3.49537Z" fill="#071957"/>
<path d="M62.8948 54.3179V48.1519H60.5403V47.2768H66.2207V48.1519H63.8661V54.3179H62.8948ZM68.1818 50.3145H71.7137V51.1695H68.1818V50.3145ZM68.2701 53.4428H72.2729V54.3179H67.289V47.2768H72.1355V48.1519H68.2701V53.4428ZM76.9228 54.3984C76.3996 54.3984 75.9156 54.3112 75.4708 54.1369C75.0326 53.9558 74.65 53.7043 74.323 53.3825C74.0025 53.0539 73.7507 52.6716 73.5675 52.2358C73.3844 51.7999 73.2928 51.3204 73.2928 50.7973C73.2928 50.2743 73.3844 49.7948 73.5675 49.3589C73.7507 48.9231 74.0058 48.5442 74.3328 48.2223C74.6598 47.8937 75.0424 47.6422 75.4806 47.4679C75.9254 47.2868 76.4094 47.1963 76.9326 47.1963C77.4624 47.1963 77.9496 47.2902 78.3944 47.4779C78.8457 47.659 79.2283 47.9306 79.5422 48.2927L78.9045 48.9264C78.6429 48.6448 78.3486 48.4369 78.0216 48.3028C77.6946 48.1619 77.3446 48.0915 76.9718 48.0915C76.586 48.0915 76.2262 48.1586 75.8927 48.2927C75.5657 48.4268 75.2811 48.6146 75.0391 48.856C74.7971 49.0974 74.6075 49.3858 74.4701 49.7211C74.3393 50.0496 74.2739 50.4084 74.2739 50.7973C74.2739 51.1863 74.3393 51.5484 74.4701 51.8837C74.6075 52.2123 74.7971 52.4973 75.0391 52.7387C75.2811 52.9801 75.5657 53.1679 75.8927 53.302C76.2262 53.4361 76.586 53.5032 76.9718 53.5032C77.3446 53.5032 77.6946 53.4361 78.0216 53.302C78.3486 53.1612 78.6429 52.9466 78.9045 52.6582L79.5422 53.2919C79.2283 53.6541 78.8457 53.929 78.3944 54.1168C77.9496 54.3045 77.4591 54.3984 76.9228 54.3984ZM85.8665 47.2768H86.8476V54.3179H85.8665V47.2768ZM81.9226 54.3179H80.9416V47.2768H81.9226V54.3179ZM85.9548 51.1796H81.8245V50.3045H85.9548V51.1796ZM88.9033 54.3179V47.2768H89.7077L94.2501 53.0606H93.8282V47.2768H94.8093V54.3179H94.0048L89.4625 48.5341H89.8843V54.3179H88.9033ZM99.9651 54.3984C99.4419 54.3984 98.9546 54.3079 98.5033 54.1268C98.0586 53.9458 97.6727 53.6943 97.3457 53.3724C97.0186 53.0438 96.7636 52.6616 96.5804 52.2257C96.3973 51.7898 96.3057 51.3137 96.3057 50.7973C96.3057 50.281 96.3973 49.8049 96.5804 49.369C96.7636 48.9331 97.0186 48.5542 97.3457 48.2323C97.6727 47.9038 98.0586 47.6489 98.5033 47.4679C98.9481 47.2868 99.4353 47.1963 99.9651 47.1963C100.488 47.1963 100.969 47.2868 101.407 47.4679C101.852 47.6422 102.238 47.8937 102.565 48.2223C102.899 48.5442 103.154 48.9231 103.33 49.3589C103.513 49.7948 103.605 50.2743 103.605 50.7973C103.605 51.3204 103.513 51.7999 103.33 52.2358C103.154 52.6716 102.899 53.0539 102.565 53.3825C102.238 53.7043 101.852 53.9558 101.407 54.1369C100.969 54.3112 100.488 54.3984 99.9651 54.3984ZM99.9651 53.5032C100.344 53.5032 100.694 53.4361 101.015 53.302C101.342 53.1679 101.623 52.9801 101.859 52.7387C102.101 52.4906 102.287 52.2022 102.418 51.8736C102.555 51.5451 102.624 51.1863 102.624 50.7973C102.624 50.4084 102.555 50.0496 102.418 49.7211C102.287 49.3925 102.101 49.1075 101.859 48.8661C101.623 48.6179 101.342 48.4268 101.015 48.2927C100.694 48.1586 100.344 48.0915 99.9651 48.0915C99.5792 48.0915 99.2228 48.1586 98.8957 48.2927C98.5753 48.4268 98.294 48.6179 98.052 48.8661C97.81 49.1075 97.6204 49.3925 97.483 49.7211C97.3522 50.0496 97.2868 50.4084 97.2868 50.7973C97.2868 51.1863 97.3522 51.5451 97.483 51.8736C97.6204 52.2022 97.81 52.4906 98.052 52.7387C98.294 52.9801 98.5753 53.1679 98.8957 53.302C99.2228 53.4361 99.5792 53.5032 99.9651 53.5032ZM105.104 54.3179V47.2768H106.085V53.4428H109.804V54.3179H105.104ZM113.905 54.3984C113.382 54.3984 112.895 54.3079 112.443 54.1268C111.999 53.9458 111.613 53.6943 111.286 53.3724C110.959 53.0438 110.704 52.6616 110.52 52.2257C110.337 51.7898 110.246 51.3137 110.246 50.7973C110.246 50.281 110.337 49.8049 110.52 49.369C110.704 48.9331 110.959 48.5542 111.286 48.2323C111.613 47.9038 111.999 47.6489 112.443 47.4679C112.888 47.2868 113.375 47.1963 113.905 47.1963C114.428 47.1963 114.909 47.2868 115.347 47.4679C115.792 47.6422 116.178 47.8937 116.505 48.2223C116.838 48.5442 117.094 48.9231 117.27 49.3589C117.453 49.7948 117.545 50.2743 117.545 50.7973C117.545 51.3204 117.453 51.7999 117.27 52.2358C117.094 52.6716 116.838 53.0539 116.505 53.3825C116.178 53.7043 115.792 53.9558 115.347 54.1369C114.909 54.3112 114.428 54.3984 113.905 54.3984ZM113.905 53.5032C114.284 53.5032 114.634 53.4361 114.955 53.302C115.282 53.1679 115.563 52.9801 115.799 52.7387C116.041 52.4906 116.227 52.2022 116.358 51.8736C116.495 51.5451 116.564 51.1863 116.564 50.7973C116.564 50.4084 116.495 50.0496 116.358 49.7211C116.227 49.3925 116.041 49.1075 115.799 48.8661C115.563 48.6179 115.282 48.4268 114.955 48.2927C114.634 48.1586 114.284 48.0915 113.905 48.0915C113.519 48.0915 113.163 48.1586 112.836 48.2927C112.515 48.4268 112.234 48.6179 111.992 48.8661C111.75 49.1075 111.56 49.3925 111.423 49.7211C111.292 50.0496 111.227 50.4084 111.227 50.7973C111.227 51.1863 111.292 51.5451 111.423 51.8736C111.56 52.2022 111.75 52.4906 111.992 52.7387C112.234 52.9801 112.515 53.1679 112.836 53.302C113.163 53.4361 113.519 53.5032 113.905 53.5032ZM122.144 54.3984C121.615 54.3984 121.127 54.3112 120.683 54.1369C120.238 53.9558 119.852 53.7043 119.525 53.3825C119.198 53.0539 118.943 52.6716 118.76 52.2358C118.577 51.7999 118.485 51.3204 118.485 50.7973C118.485 50.2743 118.577 49.7948 118.76 49.3589C118.943 48.9231 119.198 48.5442 119.525 48.2223C119.859 47.8937 120.248 47.6422 120.692 47.4679C121.137 47.2868 121.628 47.1963 122.164 47.1963C122.707 47.1963 123.204 47.2868 123.655 47.4679C124.107 47.6489 124.489 47.9205 124.803 48.2826L124.195 48.9063C123.914 48.6246 123.606 48.4201 123.273 48.2927C122.946 48.1586 122.589 48.0915 122.203 48.0915C121.811 48.0915 121.445 48.1586 121.104 48.2927C120.771 48.4268 120.48 48.6146 120.231 48.856C119.989 49.0974 119.8 49.3858 119.662 49.7211C119.532 50.0496 119.466 50.4084 119.466 50.7973C119.466 51.1796 119.532 51.5383 119.662 51.8736C119.8 52.2022 119.989 52.4906 120.231 52.7387C120.48 52.9801 120.771 53.1679 121.104 53.302C121.438 53.4361 121.801 53.5032 122.193 53.5032C122.56 53.5032 122.91 53.4462 123.243 53.3322C123.583 53.2115 123.897 53.0136 124.185 52.7387L124.744 53.5032C124.404 53.7982 124.005 54.0229 123.547 54.1771C123.096 54.3246 122.628 54.3984 122.144 54.3984ZM123.802 53.3724V50.7571H124.744V53.5032L123.802 53.3724ZM128.281 54.3179V51.6222L128.506 52.2458L125.553 47.2768H126.603L129.085 51.4713H128.516L131.008 47.2768H131.979L129.036 52.2458L129.252 51.6222V54.3179H128.281ZM138.244 54.3179V47.2768H139.049L142.129 52.5979H141.697L144.739 47.2768H145.543L145.553 54.3179H144.611L144.601 48.7956H144.827L142.119 53.4629H141.668L138.941 48.7956H139.186V54.3179H138.244ZM148.507 50.3145H152.039V51.1695H148.507V50.3145ZM148.595 53.4428H152.598V54.3179H147.614V47.2768H152.46V48.1519H148.595V53.4428ZM156.188 54.3984C155.665 54.3984 155.164 54.3179 154.687 54.157C154.209 53.9893 153.833 53.7748 153.559 53.5132L153.922 52.7286C154.183 52.9633 154.517 53.1578 154.922 53.3121C155.328 53.4663 155.75 53.5434 156.188 53.5434C156.587 53.5434 156.91 53.4965 157.159 53.4026C157.408 53.3087 157.591 53.1813 157.708 53.0203C157.826 52.8527 157.885 52.6649 157.885 52.4571C157.885 52.2156 157.807 52.0212 157.65 51.8736C157.499 51.7261 157.3 51.6088 157.051 51.5216C156.809 51.4277 156.541 51.3472 156.247 51.2802C155.952 51.2131 155.655 51.136 155.354 51.0488C155.06 50.9549 154.788 50.8376 154.54 50.6968C154.298 50.5559 154.101 50.3682 153.951 50.1335C153.801 49.8921 153.725 49.5836 153.725 49.2081C153.725 48.8459 153.817 48.514 154 48.2122C154.19 47.9038 154.477 47.659 154.863 47.4779C155.256 47.2902 155.753 47.1963 156.355 47.1963C156.754 47.1963 157.149 47.2499 157.542 47.3572C157.934 47.4645 158.274 47.6188 158.562 47.8199L158.238 48.6246C157.944 48.4235 157.633 48.2793 157.306 48.1921C156.979 48.0982 156.662 48.0513 156.355 48.0513C155.969 48.0513 155.651 48.1016 155.403 48.2022C155.154 48.3028 154.971 48.4369 154.854 48.6045C154.742 48.7722 154.687 48.9599 154.687 49.1678C154.687 49.4159 154.762 49.6138 154.912 49.7613C155.069 49.9088 155.269 50.0262 155.511 50.1133C155.759 50.2005 156.031 50.281 156.325 50.3548C156.619 50.4218 156.914 50.4989 157.208 50.5861C157.509 50.6733 157.78 50.7873 158.022 50.9281C158.271 51.0689 158.47 51.2567 158.621 51.4914C158.771 51.7261 158.846 52.0279 158.846 52.3967C158.846 52.7521 158.752 53.0841 158.562 53.3925C158.372 53.6943 158.078 53.9391 157.679 54.1268C157.287 54.3079 156.789 54.3984 156.188 54.3984ZM162.281 54.3984C161.758 54.3984 161.258 54.3179 160.78 54.157C160.303 53.9893 159.927 53.7748 159.652 53.5132L160.015 52.7286C160.277 52.9633 160.61 53.1578 161.016 53.3121C161.421 53.4663 161.843 53.5434 162.281 53.5434C162.68 53.5434 163.004 53.4965 163.252 53.4026C163.501 53.3087 163.684 53.1813 163.802 53.0203C163.92 52.8527 163.978 52.6649 163.978 52.4571C163.978 52.2156 163.9 52.0212 163.743 51.8736C163.593 51.7261 163.393 51.6088 163.145 51.5216C162.903 51.4277 162.634 51.3472 162.34 51.2802C162.046 51.2131 161.748 51.136 161.447 51.0488C161.153 50.9549 160.882 50.8376 160.633 50.6968C160.391 50.5559 160.195 50.3682 160.044 50.1335C159.894 49.8921 159.819 49.5836 159.819 49.2081C159.819 48.8459 159.91 48.514 160.093 48.2122C160.283 47.9038 160.571 47.659 160.957 47.4779C161.349 47.2902 161.846 47.1963 162.448 47.1963C162.847 47.1963 163.243 47.2499 163.635 47.3572C164.027 47.4645 164.368 47.6188 164.655 47.8199L164.332 48.6246C164.037 48.4235 163.727 48.2793 163.4 48.1921C163.073 48.0982 162.755 48.0513 162.448 48.0513C162.062 48.0513 161.745 48.1016 161.496 48.2022C161.248 48.3028 161.065 48.4369 160.947 48.6045C160.836 48.7722 160.78 48.9599 160.78 49.1678C160.78 49.4159 160.855 49.6138 161.006 49.7613C161.163 49.9088 161.362 50.0262 161.604 50.1133C161.853 50.2005 162.124 50.281 162.419 50.3548C162.713 50.4218 163.007 50.4989 163.301 50.5861C163.602 50.6733 163.874 50.7873 164.116 50.9281C164.364 51.0689 164.564 51.2567 164.714 51.4914C164.865 51.7261 164.94 52.0279 164.94 52.3967C164.94 52.7521 164.845 53.0841 164.655 53.3925C164.466 53.6943 164.171 53.9391 163.772 54.1268C163.38 54.3079 162.883 54.3984 162.281 54.3984ZM165.333 54.3179L168.443 47.2768H169.414L172.534 54.3179H171.504L168.727 47.8401H169.12L166.343 54.3179H165.333ZM166.657 52.5576L166.922 51.7529H170.788L171.072 52.5576H166.657ZM176.563 54.3984C176.033 54.3984 175.546 54.3112 175.101 54.1369C174.656 53.9558 174.27 53.7043 173.943 53.3825C173.616 53.0539 173.361 52.6716 173.178 52.2358C172.995 51.7999 172.904 51.3204 172.904 50.7973C172.904 50.2743 172.995 49.7948 173.178 49.3589C173.361 48.9231 173.616 48.5442 173.943 48.2223C174.277 47.8937 174.666 47.6422 175.111 47.4679C175.556 47.2868 176.046 47.1963 176.583 47.1963C177.125 47.1963 177.622 47.2868 178.074 47.4679C178.525 47.6489 178.908 47.9205 179.222 48.2826L178.613 48.9063C178.332 48.6246 178.025 48.4201 177.691 48.2927C177.364 48.1586 177.008 48.0915 176.622 48.0915C176.229 48.0915 175.863 48.1586 175.523 48.2927C175.189 48.4268 174.898 48.6146 174.65 48.856C174.408 49.0974 174.218 49.3858 174.081 49.7211C173.95 50.0496 173.885 50.4084 173.885 50.7973C173.885 51.1796 173.95 51.5383 174.081 51.8736C174.218 52.2022 174.408 52.4906 174.65 52.7387C174.898 52.9801 175.189 53.1679 175.523 53.302C175.857 53.4361 176.22 53.5032 176.612 53.5032C176.978 53.5032 177.328 53.4462 177.662 53.3322C178.002 53.2115 178.316 53.0136 178.604 52.7387L179.163 53.5032C178.823 53.7982 178.424 54.0229 177.966 54.1771C177.515 54.3246 177.047 54.3984 176.563 54.3984ZM178.221 53.3724V50.7571H179.163V53.5032L178.221 53.3724ZM181.934 50.3145H185.466V51.1695H181.934V50.3145ZM182.022 53.4428H186.025V54.3179H181.041V47.2768H185.888V48.1519H182.022V53.4428Z" fill="#071957"/>
</g>
<defs>
<clipPath id="clip0_1871_6762">
<rect width="190" height="57" fill="white"/>
</clipPath>
</defs>
</svg>
